G04 #@! TF.FileFunction,Copper,L2,Bot,Signal*
%FSLAX46Y46*%
G04 Gerber Fmt 4.6, Leading zero omitted, Abs format (unit mm)*
G04 Created by KiCad (PCBNEW 4.0.4-stable) date Friday, December 09, 2016 'AMt' 01:33:50 AM*
%MOMM*%
%LPD*%
G01*
G04 APERTURE LIST*
%ADD10C,0.100000*%
%ADD11O,1.600000X1.600000*%
%ADD12C,1.998980*%
%ADD13O,1.524000X2.524000*%
%ADD14R,1.727200X1.727200*%
%ADD15O,1.727200X1.727200*%
%ADD16R,1.400000X1.400000*%
%ADD17C,1.400000*%
%ADD18R,1.727200X2.032000*%
%ADD19O,1.727200X2.032000*%
%ADD20C,0.600000*%
%ADD21C,0.300000*%
%ADD22C,0.254000*%
G04 APERTURE END LIST*
D10*
D11*
X52705000Y-64770000D03*
X52705000Y-67310000D03*
X52705000Y-69850000D03*
X52705000Y-72390000D03*
X60325000Y-72390000D03*
X60325000Y-69850000D03*
X60325000Y-67310000D03*
X60325000Y-64770000D03*
X36195000Y-57150000D03*
X36195000Y-59690000D03*
X36195000Y-62230000D03*
X36195000Y-64770000D03*
X36195000Y-67310000D03*
X36195000Y-69850000D03*
X36195000Y-72390000D03*
X43815000Y-72390000D03*
X43815000Y-69850000D03*
X43815000Y-67310000D03*
X43815000Y-64770000D03*
X43815000Y-62230000D03*
X43815000Y-59690000D03*
X43815000Y-57150000D03*
X66675000Y-64770000D03*
X66675000Y-67310000D03*
X66675000Y-69850000D03*
X66675000Y-72390000D03*
X74295000Y-72390000D03*
X74295000Y-69850000D03*
X74295000Y-67310000D03*
X74295000Y-64770000D03*
X122555000Y-80010000D03*
X120015000Y-80010000D03*
X117475000Y-80010000D03*
X114935000Y-80010000D03*
X112395000Y-80010000D03*
X109855000Y-80010000D03*
X107315000Y-80010000D03*
X104775000Y-80010000D03*
X104775000Y-87630000D03*
X107315000Y-87630000D03*
X109855000Y-87630000D03*
X112395000Y-87630000D03*
X114935000Y-87630000D03*
X117475000Y-87630000D03*
X120015000Y-87630000D03*
X122555000Y-87630000D03*
X50165000Y-50800000D03*
X52705000Y-50800000D03*
X55245000Y-50800000D03*
X57785000Y-50800000D03*
X60325000Y-50800000D03*
X62865000Y-50800000D03*
X65405000Y-50800000D03*
X65405000Y-43180000D03*
X62865000Y-43180000D03*
X60325000Y-43180000D03*
X57785000Y-43180000D03*
X55245000Y-43180000D03*
X52705000Y-43180000D03*
X50165000Y-43180000D03*
D12*
X43815000Y-50800000D03*
X36195000Y-50800000D03*
X74295000Y-58420000D03*
X66675000Y-58420000D03*
X74295000Y-54610000D03*
X66675000Y-54610000D03*
D13*
X117475000Y-69850000D03*
X120015000Y-69850000D03*
X122555000Y-69850000D03*
X125095000Y-69850000D03*
X127635000Y-69850000D03*
X127635000Y-54610000D03*
X125095000Y-54610000D03*
X122555000Y-54610000D03*
X120015000Y-54610000D03*
X117475000Y-54610000D03*
D14*
X36195000Y-85090000D03*
D15*
X36195000Y-87630000D03*
X38735000Y-85090000D03*
X38735000Y-87630000D03*
X41275000Y-85090000D03*
X41275000Y-87630000D03*
X43815000Y-85090000D03*
X43815000Y-87630000D03*
X46355000Y-85090000D03*
X46355000Y-87630000D03*
X48895000Y-85090000D03*
X48895000Y-87630000D03*
D12*
X36195000Y-43180000D03*
X43815000Y-43180000D03*
X52705000Y-81280000D03*
X60325000Y-81280000D03*
X66675000Y-77470000D03*
X74295000Y-77470000D03*
X60325000Y-77470000D03*
X52705000Y-77470000D03*
X74295000Y-81280000D03*
X66675000Y-81280000D03*
D13*
X104775000Y-69850000D03*
X107315000Y-69850000D03*
X109855000Y-69850000D03*
X112395000Y-69850000D03*
X114935000Y-69850000D03*
X114935000Y-54610000D03*
X112395000Y-54610000D03*
X109855000Y-54610000D03*
X107315000Y-54610000D03*
X104775000Y-54610000D03*
X92075000Y-69850000D03*
X94615000Y-69850000D03*
X97155000Y-69850000D03*
X99695000Y-69850000D03*
X102235000Y-69850000D03*
X102235000Y-54610000D03*
X99695000Y-54610000D03*
X97155000Y-54610000D03*
X94615000Y-54610000D03*
X92075000Y-54610000D03*
X79375000Y-69850000D03*
X81915000Y-69850000D03*
X84455000Y-69850000D03*
X86995000Y-69850000D03*
X89535000Y-69850000D03*
X89535000Y-54610000D03*
X86995000Y-54610000D03*
X84455000Y-54610000D03*
X81915000Y-54610000D03*
X79375000Y-54610000D03*
D16*
X51816000Y-57150000D03*
D17*
X61816000Y-57150000D03*
D11*
X109855000Y-44450000D03*
X112395000Y-44450000D03*
X114935000Y-44450000D03*
X117475000Y-44450000D03*
X120015000Y-44450000D03*
X122555000Y-44450000D03*
X125095000Y-44450000D03*
X127635000Y-44450000D03*
X127635000Y-36830000D03*
X125095000Y-36830000D03*
X122555000Y-36830000D03*
X120015000Y-36830000D03*
X117475000Y-36830000D03*
X114935000Y-36830000D03*
X112395000Y-36830000D03*
X109855000Y-36830000D03*
X84455000Y-44450000D03*
X86995000Y-44450000D03*
X89535000Y-44450000D03*
X92075000Y-44450000D03*
X94615000Y-44450000D03*
X97155000Y-44450000D03*
X99695000Y-44450000D03*
X102235000Y-44450000D03*
X102235000Y-36830000D03*
X99695000Y-36830000D03*
X97155000Y-36830000D03*
X94615000Y-36830000D03*
X92075000Y-36830000D03*
X89535000Y-36830000D03*
X86995000Y-36830000D03*
X84455000Y-36830000D03*
X97155000Y-80010000D03*
X94615000Y-80010000D03*
X92075000Y-80010000D03*
X89535000Y-80010000D03*
X86995000Y-80010000D03*
X84455000Y-80010000D03*
X81915000Y-80010000D03*
X79375000Y-80010000D03*
X79375000Y-87630000D03*
X81915000Y-87630000D03*
X84455000Y-87630000D03*
X86995000Y-87630000D03*
X89535000Y-87630000D03*
X92075000Y-87630000D03*
X94615000Y-87630000D03*
X97155000Y-87630000D03*
D18*
X65405000Y-37465000D03*
D19*
X62865000Y-37465000D03*
X60325000Y-37465000D03*
X57785000Y-37465000D03*
X55245000Y-37465000D03*
D12*
X74295000Y-87630000D03*
X66675000Y-87630000D03*
D20*
X81280000Y-39624000D03*
X106680000Y-39624000D03*
X125984000Y-85344000D03*
X100584000Y-85344000D03*
X44196000Y-53848000D03*
X61468000Y-59944000D03*
X74676000Y-62484000D03*
X58064698Y-65782818D03*
X58962299Y-68528420D03*
X79762417Y-83102273D03*
X77226572Y-86060759D03*
X77724000Y-66548000D03*
X77724000Y-61976000D03*
X80567448Y-83082147D03*
X78353614Y-86020508D03*
X78740000Y-65532000D03*
X78740000Y-60960000D03*
X41663334Y-58050226D03*
X41656000Y-66548000D03*
D21*
X66675000Y-58420000D02*
X67825001Y-59570001D01*
X67825001Y-59570001D02*
X67825001Y-66159999D01*
X67825001Y-66159999D02*
X67474999Y-66510001D01*
X67474999Y-66510001D02*
X66675000Y-67310000D01*
X58962299Y-66680419D02*
X58364697Y-66082817D01*
X58962299Y-68528420D02*
X58962299Y-66680419D01*
X58364697Y-66082817D02*
X58064698Y-65782818D01*
X77226572Y-86060759D02*
X79762417Y-83524914D01*
X79762417Y-83524914D02*
X79762417Y-83102273D01*
X77724000Y-61976000D02*
X77724000Y-66548000D01*
X123354999Y-36030001D02*
X122555000Y-36830000D01*
X123705001Y-35679999D02*
X123354999Y-36030001D01*
X128187001Y-35679999D02*
X123705001Y-35679999D01*
X129285011Y-36778009D02*
X128187001Y-35679999D01*
X129285011Y-83712113D02*
X129285011Y-36778009D01*
X114045011Y-89280011D02*
X123717113Y-89280011D01*
X123717113Y-89280011D02*
X129285011Y-83712113D01*
X112395000Y-87630000D02*
X114045011Y-89280011D01*
X80567448Y-83506411D02*
X80567448Y-83082147D01*
X80567448Y-83806674D02*
X80567448Y-83506411D01*
X78353614Y-86020508D02*
X80567448Y-83806674D01*
X78740000Y-60960000D02*
X78740000Y-65532000D01*
X120015000Y-36830000D02*
X118364989Y-35179989D01*
X118364989Y-35179989D02*
X98805011Y-35179989D01*
X98805011Y-35179989D02*
X97954999Y-36030001D01*
X97954999Y-36030001D02*
X97155000Y-36830000D01*
X86995000Y-87630000D02*
X88645011Y-89280011D01*
X88645011Y-89280011D02*
X108204989Y-89280011D01*
X108204989Y-89280011D02*
X109055001Y-88429999D01*
X109055001Y-88429999D02*
X109855000Y-87630000D01*
X128434999Y-37629999D02*
X127635000Y-36830000D01*
X128785001Y-37980001D02*
X128434999Y-37629999D01*
X128785001Y-83505001D02*
X128785001Y-37980001D01*
X123510001Y-88780001D02*
X128785001Y-83505001D01*
X118625001Y-88780001D02*
X123510001Y-88780001D01*
X117475000Y-87630000D02*
X118625001Y-88780001D01*
X114935000Y-36830000D02*
X113784999Y-35679999D01*
X103385001Y-35679999D02*
X103034999Y-36030001D01*
X103034999Y-36030001D02*
X102235000Y-36830000D01*
X113784999Y-35679999D02*
X103385001Y-35679999D01*
X92075000Y-87630000D02*
X93225001Y-88780001D01*
X93225001Y-88780001D02*
X103624999Y-88780001D01*
X103975001Y-88429999D02*
X104775000Y-87630000D01*
X103624999Y-88780001D02*
X103975001Y-88429999D01*
X41656000Y-58057560D02*
X41663334Y-58050226D01*
X41656000Y-66548000D02*
X41656000Y-58057560D01*
D22*
G36*
X130048000Y-36667350D02*
X130010256Y-36477603D01*
X129840090Y-36222930D01*
X128742080Y-35124920D01*
X128487408Y-34954754D01*
X128187001Y-34894999D01*
X123705006Y-34894999D01*
X123705001Y-34894998D01*
X123404595Y-34954754D01*
X123149922Y-35124920D01*
X122849396Y-35425446D01*
X122555000Y-35366887D01*
X122005849Y-35476120D01*
X121540302Y-35787189D01*
X121285000Y-36169275D01*
X121029698Y-35787189D01*
X120564151Y-35476120D01*
X120015000Y-35366887D01*
X119720604Y-35425446D01*
X118920068Y-34624910D01*
X118665396Y-34454744D01*
X118364989Y-34394989D01*
X98805011Y-34394989D01*
X98504605Y-34454744D01*
X98249932Y-34624910D01*
X98249930Y-34624913D01*
X97449396Y-35425446D01*
X97155000Y-35366887D01*
X96605849Y-35476120D01*
X96140302Y-35787189D01*
X95885000Y-36169275D01*
X95629698Y-35787189D01*
X95164151Y-35476120D01*
X94615000Y-35366887D01*
X94065849Y-35476120D01*
X93600302Y-35787189D01*
X93332056Y-36188647D01*
X93133570Y-35861126D01*
X92682219Y-35529780D01*
X92565023Y-35481259D01*
X92348000Y-35583290D01*
X92348000Y-36557000D01*
X92368000Y-36557000D01*
X92368000Y-37103000D01*
X92348000Y-37103000D01*
X92348000Y-38076710D01*
X92565023Y-38178741D01*
X92682219Y-38130220D01*
X93133570Y-37798874D01*
X93332056Y-37471353D01*
X93600302Y-37872811D01*
X94065849Y-38183880D01*
X94615000Y-38293113D01*
X95164151Y-38183880D01*
X95629698Y-37872811D01*
X95885000Y-37490725D01*
X96140302Y-37872811D01*
X96605849Y-38183880D01*
X97155000Y-38293113D01*
X97704151Y-38183880D01*
X98169698Y-37872811D01*
X98425000Y-37490725D01*
X98680302Y-37872811D01*
X99145849Y-38183880D01*
X99695000Y-38293113D01*
X100244151Y-38183880D01*
X100709698Y-37872811D01*
X100965000Y-37490725D01*
X101220302Y-37872811D01*
X101685849Y-38183880D01*
X102235000Y-38293113D01*
X102784151Y-38183880D01*
X103249698Y-37872811D01*
X103560767Y-37407264D01*
X103670000Y-36858113D01*
X103670000Y-36801887D01*
X103620769Y-36554389D01*
X103710159Y-36464999D01*
X108487011Y-36464999D01*
X108420000Y-36801887D01*
X108420000Y-36858113D01*
X108529233Y-37407264D01*
X108840302Y-37872811D01*
X109305849Y-38183880D01*
X109855000Y-38293113D01*
X110404151Y-38183880D01*
X110869698Y-37872811D01*
X111125000Y-37490725D01*
X111380302Y-37872811D01*
X111845849Y-38183880D01*
X112395000Y-38293113D01*
X112944151Y-38183880D01*
X113409698Y-37872811D01*
X113665000Y-37490725D01*
X113920302Y-37872811D01*
X114385849Y-38183880D01*
X114935000Y-38293113D01*
X115484151Y-38183880D01*
X115949698Y-37872811D01*
X116217944Y-37471353D01*
X116416430Y-37798874D01*
X116867781Y-38130220D01*
X116984977Y-38178741D01*
X117202000Y-38076710D01*
X117202000Y-37103000D01*
X117182000Y-37103000D01*
X117182000Y-36557000D01*
X117202000Y-36557000D01*
X117202000Y-36537000D01*
X117748000Y-36537000D01*
X117748000Y-36557000D01*
X117768000Y-36557000D01*
X117768000Y-37103000D01*
X117748000Y-37103000D01*
X117748000Y-38076710D01*
X117965023Y-38178741D01*
X118082219Y-38130220D01*
X118533570Y-37798874D01*
X118732056Y-37471353D01*
X119000302Y-37872811D01*
X119465849Y-38183880D01*
X120015000Y-38293113D01*
X120564151Y-38183880D01*
X121029698Y-37872811D01*
X121285000Y-37490725D01*
X121540302Y-37872811D01*
X122005849Y-38183880D01*
X122555000Y-38293113D01*
X123104151Y-38183880D01*
X123569698Y-37872811D01*
X123825000Y-37490725D01*
X124080302Y-37872811D01*
X124545849Y-38183880D01*
X125095000Y-38293113D01*
X125644151Y-38183880D01*
X126109698Y-37872811D01*
X126365000Y-37490725D01*
X126620302Y-37872811D01*
X127085849Y-38183880D01*
X127635000Y-38293113D01*
X127929396Y-38234554D01*
X128000001Y-38305159D01*
X128000001Y-43160037D01*
X127908000Y-43203290D01*
X127908000Y-44177000D01*
X127928000Y-44177000D01*
X127928000Y-44723000D01*
X127908000Y-44723000D01*
X127908000Y-45696710D01*
X128000001Y-45739963D01*
X128000001Y-52748439D01*
X127635000Y-52675836D01*
X127100391Y-52782176D01*
X126647172Y-53085008D01*
X126365000Y-53507307D01*
X126082828Y-53085008D01*
X125629609Y-52782176D01*
X125095000Y-52675836D01*
X124560391Y-52782176D01*
X124107172Y-53085008D01*
X123825000Y-53507307D01*
X123542828Y-53085008D01*
X123089609Y-52782176D01*
X122555000Y-52675836D01*
X122020391Y-52782176D01*
X121567172Y-53085008D01*
X121285000Y-53507307D01*
X121002828Y-53085008D01*
X120549609Y-52782176D01*
X120015000Y-52675836D01*
X119480391Y-52782176D01*
X119027172Y-53085008D01*
X118745000Y-53507307D01*
X118462828Y-53085008D01*
X118009609Y-52782176D01*
X117475000Y-52675836D01*
X116940391Y-52782176D01*
X116487172Y-53085008D01*
X116205000Y-53507307D01*
X115922828Y-53085008D01*
X115469609Y-52782176D01*
X114935000Y-52675836D01*
X114400391Y-52782176D01*
X113947172Y-53085008D01*
X113665000Y-53507307D01*
X113382828Y-53085008D01*
X112929609Y-52782176D01*
X112395000Y-52675836D01*
X111860391Y-52782176D01*
X111407172Y-53085008D01*
X111125000Y-53507307D01*
X110842828Y-53085008D01*
X110389609Y-52782176D01*
X109855000Y-52675836D01*
X109320391Y-52782176D01*
X108867172Y-53085008D01*
X108585000Y-53507307D01*
X108302828Y-53085008D01*
X107849609Y-52782176D01*
X107315000Y-52675836D01*
X106780391Y-52782176D01*
X106327172Y-53085008D01*
X106045000Y-53507307D01*
X105762828Y-53085008D01*
X105309609Y-52782176D01*
X104775000Y-52675836D01*
X104240391Y-52782176D01*
X103787172Y-53085008D01*
X103505000Y-53507307D01*
X103222828Y-53085008D01*
X102769609Y-52782176D01*
X102235000Y-52675836D01*
X101700391Y-52782176D01*
X101247172Y-53085008D01*
X100965000Y-53507307D01*
X100682828Y-53085008D01*
X100229609Y-52782176D01*
X99695000Y-52675836D01*
X99160391Y-52782176D01*
X98707172Y-53085008D01*
X98425000Y-53507307D01*
X98142828Y-53085008D01*
X97689609Y-52782176D01*
X97155000Y-52675836D01*
X96620391Y-52782176D01*
X96167172Y-53085008D01*
X95885000Y-53507307D01*
X95602828Y-53085008D01*
X95149609Y-52782176D01*
X94615000Y-52675836D01*
X94080391Y-52782176D01*
X93627172Y-53085008D01*
X93345000Y-53507307D01*
X93062828Y-53085008D01*
X92609609Y-52782176D01*
X92075000Y-52675836D01*
X91540391Y-52782176D01*
X91087172Y-53085008D01*
X90805000Y-53507307D01*
X90522828Y-53085008D01*
X90069609Y-52782176D01*
X89535000Y-52675836D01*
X89000391Y-52782176D01*
X88547172Y-53085008D01*
X88265000Y-53507307D01*
X87982828Y-53085008D01*
X87529609Y-52782176D01*
X86995000Y-52675836D01*
X86460391Y-52782176D01*
X86007172Y-53085008D01*
X85725000Y-53507307D01*
X85442828Y-53085008D01*
X84989609Y-52782176D01*
X84455000Y-52675836D01*
X83920391Y-52782176D01*
X83467172Y-53085008D01*
X83185000Y-53507307D01*
X82902828Y-53085008D01*
X82449609Y-52782176D01*
X81915000Y-52675836D01*
X81380391Y-52782176D01*
X80927172Y-53085008D01*
X80645000Y-53507307D01*
X80362828Y-53085008D01*
X79909609Y-52782176D01*
X79375000Y-52675836D01*
X78840391Y-52782176D01*
X78387172Y-53085008D01*
X78084340Y-53538227D01*
X77978000Y-54072836D01*
X77978000Y-55147164D01*
X78084340Y-55681773D01*
X78387172Y-56134992D01*
X78840391Y-56437824D01*
X79375000Y-56544164D01*
X79909609Y-56437824D01*
X80362828Y-56134992D01*
X80645000Y-55712693D01*
X80927172Y-56134992D01*
X81380391Y-56437824D01*
X81915000Y-56544164D01*
X82449609Y-56437824D01*
X82902828Y-56134992D01*
X83185000Y-55712693D01*
X83467172Y-56134992D01*
X83920391Y-56437824D01*
X84455000Y-56544164D01*
X84989609Y-56437824D01*
X85442828Y-56134992D01*
X85725000Y-55712693D01*
X86007172Y-56134992D01*
X86460391Y-56437824D01*
X86995000Y-56544164D01*
X87529609Y-56437824D01*
X87982828Y-56134992D01*
X88265000Y-55712693D01*
X88547172Y-56134992D01*
X89000391Y-56437824D01*
X89535000Y-56544164D01*
X90069609Y-56437824D01*
X90522828Y-56134992D01*
X90805000Y-55712693D01*
X91087172Y-56134992D01*
X91540391Y-56437824D01*
X92075000Y-56544164D01*
X92609609Y-56437824D01*
X93062828Y-56134992D01*
X93345000Y-55712693D01*
X93627172Y-56134992D01*
X94080391Y-56437824D01*
X94615000Y-56544164D01*
X95149609Y-56437824D01*
X95602828Y-56134992D01*
X95885000Y-55712693D01*
X96167172Y-56134992D01*
X96620391Y-56437824D01*
X97155000Y-56544164D01*
X97689609Y-56437824D01*
X98142828Y-56134992D01*
X98425000Y-55712693D01*
X98707172Y-56134992D01*
X99160391Y-56437824D01*
X99695000Y-56544164D01*
X100229609Y-56437824D01*
X100682828Y-56134992D01*
X100965000Y-55712693D01*
X101247172Y-56134992D01*
X101700391Y-56437824D01*
X102235000Y-56544164D01*
X102769609Y-56437824D01*
X103222828Y-56134992D01*
X103505000Y-55712693D01*
X103787172Y-56134992D01*
X104240391Y-56437824D01*
X104775000Y-56544164D01*
X105309609Y-56437824D01*
X105762828Y-56134992D01*
X106045000Y-55712693D01*
X106327172Y-56134992D01*
X106780391Y-56437824D01*
X107315000Y-56544164D01*
X107849609Y-56437824D01*
X108302828Y-56134992D01*
X108585000Y-55712693D01*
X108867172Y-56134992D01*
X109320391Y-56437824D01*
X109855000Y-56544164D01*
X110389609Y-56437824D01*
X110842828Y-56134992D01*
X111125000Y-55712693D01*
X111407172Y-56134992D01*
X111860391Y-56437824D01*
X112395000Y-56544164D01*
X112929609Y-56437824D01*
X113382828Y-56134992D01*
X113665000Y-55712693D01*
X113947172Y-56134992D01*
X114400391Y-56437824D01*
X114935000Y-56544164D01*
X115469609Y-56437824D01*
X115922828Y-56134992D01*
X116205000Y-55712693D01*
X116487172Y-56134992D01*
X116940391Y-56437824D01*
X117475000Y-56544164D01*
X118009609Y-56437824D01*
X118462828Y-56134992D01*
X118745000Y-55712693D01*
X119027172Y-56134992D01*
X119480391Y-56437824D01*
X120015000Y-56544164D01*
X120549609Y-56437824D01*
X121002828Y-56134992D01*
X121285000Y-55712693D01*
X121567172Y-56134992D01*
X122020391Y-56437824D01*
X122555000Y-56544164D01*
X123089609Y-56437824D01*
X123542828Y-56134992D01*
X123825000Y-55712693D01*
X124107172Y-56134992D01*
X124560391Y-56437824D01*
X125095000Y-56544164D01*
X125629609Y-56437824D01*
X126082828Y-56134992D01*
X126365000Y-55712693D01*
X126647172Y-56134992D01*
X127100391Y-56437824D01*
X127635000Y-56544164D01*
X128000001Y-56471561D01*
X128000001Y-67988439D01*
X127635000Y-67915836D01*
X127100391Y-68022176D01*
X126647172Y-68325008D01*
X126365000Y-68747307D01*
X126082828Y-68325008D01*
X125629609Y-68022176D01*
X125095000Y-67915836D01*
X124560391Y-68022176D01*
X124107172Y-68325008D01*
X123825000Y-68747307D01*
X123542828Y-68325008D01*
X123089609Y-68022176D01*
X122555000Y-67915836D01*
X122020391Y-68022176D01*
X121567172Y-68325008D01*
X121285000Y-68747307D01*
X121002828Y-68325008D01*
X120549609Y-68022176D01*
X120015000Y-67915836D01*
X119480391Y-68022176D01*
X119027172Y-68325008D01*
X118745000Y-68747307D01*
X118462828Y-68325008D01*
X118009609Y-68022176D01*
X117475000Y-67915836D01*
X116940391Y-68022176D01*
X116487172Y-68325008D01*
X116205000Y-68747307D01*
X115922828Y-68325008D01*
X115469609Y-68022176D01*
X114935000Y-67915836D01*
X114400391Y-68022176D01*
X113947172Y-68325008D01*
X113665000Y-68747307D01*
X113382828Y-68325008D01*
X112929609Y-68022176D01*
X112395000Y-67915836D01*
X111860391Y-68022176D01*
X111407172Y-68325008D01*
X111125000Y-68747307D01*
X110842828Y-68325008D01*
X110389609Y-68022176D01*
X109855000Y-67915836D01*
X109320391Y-68022176D01*
X108867172Y-68325008D01*
X108585000Y-68747307D01*
X108302828Y-68325008D01*
X107849609Y-68022176D01*
X107315000Y-67915836D01*
X106780391Y-68022176D01*
X106327172Y-68325008D01*
X106045000Y-68747307D01*
X105762828Y-68325008D01*
X105309609Y-68022176D01*
X104775000Y-67915836D01*
X104240391Y-68022176D01*
X103787172Y-68325008D01*
X103505000Y-68747307D01*
X103222828Y-68325008D01*
X102769609Y-68022176D01*
X102235000Y-67915836D01*
X101700391Y-68022176D01*
X101247172Y-68325008D01*
X100965000Y-68747307D01*
X100682828Y-68325008D01*
X100229609Y-68022176D01*
X99695000Y-67915836D01*
X99160391Y-68022176D01*
X98707172Y-68325008D01*
X98425000Y-68747307D01*
X98142828Y-68325008D01*
X97689609Y-68022176D01*
X97155000Y-67915836D01*
X96620391Y-68022176D01*
X96167172Y-68325008D01*
X95885000Y-68747307D01*
X95602828Y-68325008D01*
X95149609Y-68022176D01*
X94615000Y-67915836D01*
X94080391Y-68022176D01*
X93627172Y-68325008D01*
X93345000Y-68747307D01*
X93062828Y-68325008D01*
X92609609Y-68022176D01*
X92075000Y-67915836D01*
X91540391Y-68022176D01*
X91087172Y-68325008D01*
X90805000Y-68747307D01*
X90522828Y-68325008D01*
X90069609Y-68022176D01*
X89535000Y-67915836D01*
X89000391Y-68022176D01*
X88547172Y-68325008D01*
X88265000Y-68747307D01*
X87982828Y-68325008D01*
X87529609Y-68022176D01*
X86995000Y-67915836D01*
X86460391Y-68022176D01*
X86007172Y-68325008D01*
X85725000Y-68747307D01*
X85442828Y-68325008D01*
X84989609Y-68022176D01*
X84455000Y-67915836D01*
X83920391Y-68022176D01*
X83467172Y-68325008D01*
X83185000Y-68747307D01*
X82902828Y-68325008D01*
X82449609Y-68022176D01*
X81915000Y-67915836D01*
X81380391Y-68022176D01*
X80927172Y-68325008D01*
X80645000Y-68747307D01*
X80362828Y-68325008D01*
X79909609Y-68022176D01*
X79375000Y-67915836D01*
X78840391Y-68022176D01*
X78387172Y-68325008D01*
X78084340Y-68778227D01*
X77978000Y-69312836D01*
X77978000Y-70387164D01*
X78084340Y-70921773D01*
X78387172Y-71374992D01*
X78840391Y-71677824D01*
X79375000Y-71784164D01*
X79909609Y-71677824D01*
X80362828Y-71374992D01*
X80645000Y-70952693D01*
X80927172Y-71374992D01*
X81380391Y-71677824D01*
X81915000Y-71784164D01*
X82449609Y-71677824D01*
X82902828Y-71374992D01*
X83185000Y-70952693D01*
X83467172Y-71374992D01*
X83920391Y-71677824D01*
X84455000Y-71784164D01*
X84989609Y-71677824D01*
X85442828Y-71374992D01*
X85725000Y-70952693D01*
X86007172Y-71374992D01*
X86460391Y-71677824D01*
X86995000Y-71784164D01*
X87529609Y-71677824D01*
X87982828Y-71374992D01*
X88265000Y-70952693D01*
X88547172Y-71374992D01*
X89000391Y-71677824D01*
X89535000Y-71784164D01*
X90069609Y-71677824D01*
X90522828Y-71374992D01*
X90805000Y-70952693D01*
X91087172Y-71374992D01*
X91540391Y-71677824D01*
X92075000Y-71784164D01*
X92609609Y-71677824D01*
X93062828Y-71374992D01*
X93345000Y-70952693D01*
X93627172Y-71374992D01*
X94080391Y-71677824D01*
X94615000Y-71784164D01*
X95149609Y-71677824D01*
X95602828Y-71374992D01*
X95885000Y-70952693D01*
X96167172Y-71374992D01*
X96620391Y-71677824D01*
X97155000Y-71784164D01*
X97689609Y-71677824D01*
X98142828Y-71374992D01*
X98425000Y-70952693D01*
X98707172Y-71374992D01*
X99160391Y-71677824D01*
X99695000Y-71784164D01*
X100229609Y-71677824D01*
X100682828Y-71374992D01*
X100965000Y-70952693D01*
X101247172Y-71374992D01*
X101700391Y-71677824D01*
X102235000Y-71784164D01*
X102769609Y-71677824D01*
X103222828Y-71374992D01*
X103505000Y-70952693D01*
X103787172Y-71374992D01*
X104240391Y-71677824D01*
X104775000Y-71784164D01*
X105309609Y-71677824D01*
X105762828Y-71374992D01*
X106045000Y-70952693D01*
X106327172Y-71374992D01*
X106780391Y-71677824D01*
X107315000Y-71784164D01*
X107849609Y-71677824D01*
X108302828Y-71374992D01*
X108585000Y-70952693D01*
X108867172Y-71374992D01*
X109320391Y-71677824D01*
X109855000Y-71784164D01*
X110389609Y-71677824D01*
X110842828Y-71374992D01*
X111125000Y-70952693D01*
X111407172Y-71374992D01*
X111860391Y-71677824D01*
X112395000Y-71784164D01*
X112929609Y-71677824D01*
X113382828Y-71374992D01*
X113665000Y-70952693D01*
X113947172Y-71374992D01*
X114400391Y-71677824D01*
X114935000Y-71784164D01*
X115469609Y-71677824D01*
X115922828Y-71374992D01*
X116205000Y-70952693D01*
X116487172Y-71374992D01*
X116940391Y-71677824D01*
X117475000Y-71784164D01*
X118009609Y-71677824D01*
X118462828Y-71374992D01*
X118745000Y-70952693D01*
X119027172Y-71374992D01*
X119480391Y-71677824D01*
X120015000Y-71784164D01*
X120549609Y-71677824D01*
X121002828Y-71374992D01*
X121285000Y-70952693D01*
X121567172Y-71374992D01*
X122020391Y-71677824D01*
X122555000Y-71784164D01*
X123089609Y-71677824D01*
X123542828Y-71374992D01*
X123825000Y-70952693D01*
X124107172Y-71374992D01*
X124560391Y-71677824D01*
X125095000Y-71784164D01*
X125629609Y-71677824D01*
X126082828Y-71374992D01*
X126365000Y-70952693D01*
X126647172Y-71374992D01*
X127100391Y-71677824D01*
X127635000Y-71784164D01*
X128000001Y-71711561D01*
X128000001Y-83179844D01*
X123921638Y-87258207D01*
X123880767Y-87052736D01*
X123569698Y-86587189D01*
X123104151Y-86276120D01*
X122555000Y-86166887D01*
X122005849Y-86276120D01*
X121540302Y-86587189D01*
X121285000Y-86969275D01*
X121029698Y-86587189D01*
X120564151Y-86276120D01*
X120015000Y-86166887D01*
X119465849Y-86276120D01*
X119000302Y-86587189D01*
X118745000Y-86969275D01*
X118489698Y-86587189D01*
X118024151Y-86276120D01*
X117475000Y-86166887D01*
X116925849Y-86276120D01*
X116460302Y-86587189D01*
X116192056Y-86988647D01*
X115993570Y-86661126D01*
X115542219Y-86329780D01*
X115425023Y-86281259D01*
X115208000Y-86383290D01*
X115208000Y-87357000D01*
X115228000Y-87357000D01*
X115228000Y-87903000D01*
X115208000Y-87903000D01*
X115208000Y-87923000D01*
X114662000Y-87923000D01*
X114662000Y-87903000D01*
X114642000Y-87903000D01*
X114642000Y-87357000D01*
X114662000Y-87357000D01*
X114662000Y-86383290D01*
X114444977Y-86281259D01*
X114327781Y-86329780D01*
X113876430Y-86661126D01*
X113677944Y-86988647D01*
X113409698Y-86587189D01*
X112944151Y-86276120D01*
X112395000Y-86166887D01*
X111845849Y-86276120D01*
X111380302Y-86587189D01*
X111125000Y-86969275D01*
X110869698Y-86587189D01*
X110404151Y-86276120D01*
X109855000Y-86166887D01*
X109305849Y-86276120D01*
X108840302Y-86587189D01*
X108585000Y-86969275D01*
X108329698Y-86587189D01*
X107864151Y-86276120D01*
X107315000Y-86166887D01*
X106765849Y-86276120D01*
X106300302Y-86587189D01*
X106045000Y-86969275D01*
X105789698Y-86587189D01*
X105324151Y-86276120D01*
X104775000Y-86166887D01*
X104225849Y-86276120D01*
X103760302Y-86587189D01*
X103449233Y-87052736D01*
X103340000Y-87601887D01*
X103340000Y-87658113D01*
X103389231Y-87905611D01*
X103299841Y-87995001D01*
X98522989Y-87995001D01*
X98590000Y-87658113D01*
X98590000Y-87601887D01*
X98480767Y-87052736D01*
X98169698Y-86587189D01*
X97704151Y-86276120D01*
X97155000Y-86166887D01*
X96605849Y-86276120D01*
X96140302Y-86587189D01*
X95885000Y-86969275D01*
X95629698Y-86587189D01*
X95164151Y-86276120D01*
X94615000Y-86166887D01*
X94065849Y-86276120D01*
X93600302Y-86587189D01*
X93345000Y-86969275D01*
X93089698Y-86587189D01*
X92624151Y-86276120D01*
X92075000Y-86166887D01*
X91525849Y-86276120D01*
X91060302Y-86587189D01*
X90792056Y-86988647D01*
X90593570Y-86661126D01*
X90142219Y-86329780D01*
X90025023Y-86281259D01*
X89808000Y-86383290D01*
X89808000Y-87357000D01*
X89828000Y-87357000D01*
X89828000Y-87903000D01*
X89808000Y-87903000D01*
X89808000Y-87923000D01*
X89262000Y-87923000D01*
X89262000Y-87903000D01*
X89242000Y-87903000D01*
X89242000Y-87357000D01*
X89262000Y-87357000D01*
X89262000Y-86383290D01*
X89044977Y-86281259D01*
X88927781Y-86329780D01*
X88476430Y-86661126D01*
X88277944Y-86988647D01*
X88009698Y-86587189D01*
X87544151Y-86276120D01*
X86995000Y-86166887D01*
X86445849Y-86276120D01*
X85980302Y-86587189D01*
X85725000Y-86969275D01*
X85469698Y-86587189D01*
X85004151Y-86276120D01*
X84455000Y-86166887D01*
X83905849Y-86276120D01*
X83440302Y-86587189D01*
X83185000Y-86969275D01*
X82929698Y-86587189D01*
X82464151Y-86276120D01*
X81915000Y-86166887D01*
X81365849Y-86276120D01*
X80900302Y-86587189D01*
X80645000Y-86969275D01*
X80389698Y-86587189D01*
X79924151Y-86276120D01*
X79375000Y-86166887D01*
X79303089Y-86181191D01*
X81122527Y-84361753D01*
X81292693Y-84107081D01*
X81352448Y-83806674D01*
X81352448Y-83619653D01*
X81359640Y-83612474D01*
X81502286Y-83268946D01*
X81502610Y-82896980D01*
X81360565Y-82553204D01*
X81097775Y-82289955D01*
X80754247Y-82147309D01*
X80382281Y-82146985D01*
X80140528Y-82246875D01*
X79949216Y-82167435D01*
X79577250Y-82167111D01*
X79233474Y-82309156D01*
X78970225Y-82571946D01*
X78827579Y-82915474D01*
X78827255Y-83287440D01*
X78845522Y-83331651D01*
X77051567Y-85125606D01*
X77041405Y-85125597D01*
X76697629Y-85267642D01*
X76434380Y-85530432D01*
X76291734Y-85873960D01*
X76291410Y-86245926D01*
X76433455Y-86589702D01*
X76696245Y-86852951D01*
X77039773Y-86995597D01*
X77411739Y-86995921D01*
X77755515Y-86853876D01*
X77810048Y-86799438D01*
X77823287Y-86812700D01*
X78125711Y-86938278D01*
X78049233Y-87052736D01*
X77940000Y-87601887D01*
X77940000Y-87658113D01*
X78049233Y-88207264D01*
X78360302Y-88672811D01*
X78825849Y-88983880D01*
X79375000Y-89093113D01*
X79924151Y-88983880D01*
X80389698Y-88672811D01*
X80645000Y-88290725D01*
X80900302Y-88672811D01*
X81365849Y-88983880D01*
X81915000Y-89093113D01*
X82464151Y-88983880D01*
X82929698Y-88672811D01*
X83185000Y-88290725D01*
X83440302Y-88672811D01*
X83905849Y-88983880D01*
X84455000Y-89093113D01*
X85004151Y-88983880D01*
X85469698Y-88672811D01*
X85725000Y-88290725D01*
X85980302Y-88672811D01*
X86445849Y-88983880D01*
X86995000Y-89093113D01*
X87289396Y-89034554D01*
X88089932Y-89835090D01*
X88344605Y-90005256D01*
X88645011Y-90065011D01*
X108204989Y-90065011D01*
X108505396Y-90005256D01*
X108760068Y-89835090D01*
X109560603Y-89034554D01*
X109855000Y-89093113D01*
X110404151Y-88983880D01*
X110869698Y-88672811D01*
X111125000Y-88290725D01*
X111380302Y-88672811D01*
X111845849Y-88983880D01*
X112395000Y-89093113D01*
X112689396Y-89034554D01*
X113489932Y-89835090D01*
X113744605Y-90005256D01*
X114045011Y-90065011D01*
X123717113Y-90065011D01*
X124017520Y-90005256D01*
X124272192Y-89835090D01*
X129840090Y-84267192D01*
X130010256Y-84012519D01*
X130048000Y-83822769D01*
X130048000Y-90730000D01*
X33782000Y-90730000D01*
X33782000Y-84226400D01*
X34683960Y-84226400D01*
X34683960Y-85953600D01*
X34728238Y-86188917D01*
X34867310Y-86405041D01*
X35079510Y-86550031D01*
X35123345Y-86558908D01*
X34810474Y-87027152D01*
X34696400Y-87600641D01*
X34696400Y-87659359D01*
X34810474Y-88232848D01*
X35135330Y-88719029D01*
X35621511Y-89043885D01*
X36195000Y-89157959D01*
X36768489Y-89043885D01*
X37254670Y-88719029D01*
X37465000Y-88404248D01*
X37675330Y-88719029D01*
X38161511Y-89043885D01*
X38735000Y-89157959D01*
X39308489Y-89043885D01*
X39794670Y-88719029D01*
X40005000Y-88404248D01*
X40215330Y-88719029D01*
X40701511Y-89043885D01*
X41275000Y-89157959D01*
X41848489Y-89043885D01*
X42334670Y-88719029D01*
X42545000Y-88404248D01*
X42755330Y-88719029D01*
X43241511Y-89043885D01*
X43815000Y-89157959D01*
X44388489Y-89043885D01*
X44874670Y-88719029D01*
X45095764Y-88388138D01*
X45241238Y-88632696D01*
X45709733Y-88982589D01*
X45854851Y-89042676D01*
X46082000Y-88941743D01*
X46082000Y-87903000D01*
X46062000Y-87903000D01*
X46062000Y-87357000D01*
X46082000Y-87357000D01*
X46082000Y-85363000D01*
X46062000Y-85363000D01*
X46062000Y-84817000D01*
X46082000Y-84817000D01*
X46082000Y-83778257D01*
X46628000Y-83778257D01*
X46628000Y-84817000D01*
X46648000Y-84817000D01*
X46648000Y-85363000D01*
X46628000Y-85363000D01*
X46628000Y-87357000D01*
X46648000Y-87357000D01*
X46648000Y-87903000D01*
X46628000Y-87903000D01*
X46628000Y-88941743D01*
X46855149Y-89042676D01*
X47000267Y-88982589D01*
X47468762Y-88632696D01*
X47614236Y-88388138D01*
X47835330Y-88719029D01*
X48321511Y-89043885D01*
X48895000Y-89157959D01*
X49468489Y-89043885D01*
X49726380Y-88871567D01*
X65819513Y-88871567D01*
X65929543Y-89120488D01*
X66556673Y-89292306D01*
X67201817Y-89211051D01*
X67420457Y-89120488D01*
X67530487Y-88871567D01*
X66675000Y-88016080D01*
X65819513Y-88871567D01*
X49726380Y-88871567D01*
X49954670Y-88719029D01*
X50279526Y-88232848D01*
X50393600Y-87659359D01*
X50393600Y-87600641D01*
X50375904Y-87511673D01*
X65012694Y-87511673D01*
X65093949Y-88156817D01*
X65184512Y-88375457D01*
X65433433Y-88485487D01*
X66288920Y-87630000D01*
X67061080Y-87630000D01*
X67916567Y-88485487D01*
X68165488Y-88375457D01*
X68281040Y-87953694D01*
X72660226Y-87953694D01*
X72908538Y-88554655D01*
X73367927Y-89014846D01*
X73968453Y-89264206D01*
X74618694Y-89264774D01*
X75219655Y-89016462D01*
X75679846Y-88557073D01*
X75929206Y-87956547D01*
X75929774Y-87306306D01*
X75681462Y-86705345D01*
X75222073Y-86245154D01*
X74621547Y-85995794D01*
X73971306Y-85995226D01*
X73370345Y-86243538D01*
X72910154Y-86702927D01*
X72660794Y-87303453D01*
X72660226Y-87953694D01*
X68281040Y-87953694D01*
X68337306Y-87748327D01*
X68256051Y-87103183D01*
X68165488Y-86884543D01*
X67916567Y-86774513D01*
X67061080Y-87630000D01*
X66288920Y-87630000D01*
X65433433Y-86774513D01*
X65184512Y-86884543D01*
X65012694Y-87511673D01*
X50375904Y-87511673D01*
X50279526Y-87027152D01*
X49954670Y-86540971D01*
X49726381Y-86388433D01*
X65819513Y-86388433D01*
X66675000Y-87243920D01*
X67530487Y-86388433D01*
X67420457Y-86139512D01*
X66793327Y-85967694D01*
X66148183Y-86048949D01*
X65929543Y-86139512D01*
X65819513Y-86388433D01*
X49726381Y-86388433D01*
X49683828Y-86360000D01*
X49954670Y-86179029D01*
X50279526Y-85692848D01*
X50393600Y-85119359D01*
X50393600Y-85060641D01*
X50279526Y-84487152D01*
X49954670Y-84000971D01*
X49468489Y-83676115D01*
X48895000Y-83562041D01*
X48321511Y-83676115D01*
X47835330Y-84000971D01*
X47614236Y-84331862D01*
X47468762Y-84087304D01*
X47000267Y-83737411D01*
X46855149Y-83677324D01*
X46628000Y-83778257D01*
X46082000Y-83778257D01*
X45854851Y-83677324D01*
X45709733Y-83737411D01*
X45241238Y-84087304D01*
X45095764Y-84331862D01*
X44874670Y-84000971D01*
X44388489Y-83676115D01*
X43815000Y-83562041D01*
X43241511Y-83676115D01*
X42755330Y-84000971D01*
X42545000Y-84315752D01*
X42334670Y-84000971D01*
X41848489Y-83676115D01*
X41275000Y-83562041D01*
X40701511Y-83676115D01*
X40215330Y-84000971D01*
X40005000Y-84315752D01*
X39794670Y-84000971D01*
X39308489Y-83676115D01*
X38735000Y-83562041D01*
X38161511Y-83676115D01*
X37675330Y-84000971D01*
X37666195Y-84014642D01*
X37661762Y-83991083D01*
X37522690Y-83774959D01*
X37310490Y-83629969D01*
X37058600Y-83578960D01*
X35331400Y-83578960D01*
X35096083Y-83623238D01*
X34879959Y-83762310D01*
X34734969Y-83974510D01*
X34683960Y-84226400D01*
X33782000Y-84226400D01*
X33782000Y-81603694D01*
X51070226Y-81603694D01*
X51318538Y-82204655D01*
X51777927Y-82664846D01*
X52378453Y-82914206D01*
X53028694Y-82914774D01*
X53629655Y-82666462D01*
X54089846Y-82207073D01*
X54339206Y-81606547D01*
X54339208Y-81603694D01*
X58690226Y-81603694D01*
X58938538Y-82204655D01*
X59397927Y-82664846D01*
X59998453Y-82914206D01*
X60648694Y-82914774D01*
X61249655Y-82666462D01*
X61394802Y-82521567D01*
X65819513Y-82521567D01*
X65929543Y-82770488D01*
X66556673Y-82942306D01*
X67201817Y-82861051D01*
X67420457Y-82770488D01*
X67530487Y-82521567D01*
X66675000Y-81666080D01*
X65819513Y-82521567D01*
X61394802Y-82521567D01*
X61709846Y-82207073D01*
X61959206Y-81606547D01*
X61959594Y-81161673D01*
X65012694Y-81161673D01*
X65093949Y-81806817D01*
X65184512Y-82025457D01*
X65433433Y-82135487D01*
X66288920Y-81280000D01*
X67061080Y-81280000D01*
X67916567Y-82135487D01*
X68165488Y-82025457D01*
X68281040Y-81603694D01*
X72660226Y-81603694D01*
X72908538Y-82204655D01*
X73367927Y-82664846D01*
X73968453Y-82914206D01*
X74618694Y-82914774D01*
X75219655Y-82666462D01*
X75679846Y-82207073D01*
X75929206Y-81606547D01*
X75929774Y-80956306D01*
X75741243Y-80500026D01*
X78026237Y-80500026D01*
X78316430Y-80978874D01*
X78767781Y-81310220D01*
X78884977Y-81358741D01*
X79102000Y-81256710D01*
X79102000Y-80283000D01*
X78124936Y-80283000D01*
X78026237Y-80500026D01*
X75741243Y-80500026D01*
X75681462Y-80355345D01*
X75222073Y-79895154D01*
X74621547Y-79645794D01*
X73971306Y-79645226D01*
X73370345Y-79893538D01*
X72910154Y-80352927D01*
X72660794Y-80953453D01*
X72660226Y-81603694D01*
X68281040Y-81603694D01*
X68337306Y-81398327D01*
X68256051Y-80753183D01*
X68165488Y-80534543D01*
X67916567Y-80424513D01*
X67061080Y-81280000D01*
X66288920Y-81280000D01*
X65433433Y-80424513D01*
X65184512Y-80534543D01*
X65012694Y-81161673D01*
X61959594Y-81161673D01*
X61959774Y-80956306D01*
X61711462Y-80355345D01*
X61395103Y-80038433D01*
X65819513Y-80038433D01*
X66675000Y-80893920D01*
X67530487Y-80038433D01*
X67420457Y-79789512D01*
X66793327Y-79617694D01*
X66148183Y-79698949D01*
X65929543Y-79789512D01*
X65819513Y-80038433D01*
X61395103Y-80038433D01*
X61252073Y-79895154D01*
X60651547Y-79645794D01*
X60001306Y-79645226D01*
X59400345Y-79893538D01*
X58940154Y-80352927D01*
X58690794Y-80953453D01*
X58690226Y-81603694D01*
X54339208Y-81603694D01*
X54339774Y-80956306D01*
X54091462Y-80355345D01*
X53632073Y-79895154D01*
X53031547Y-79645794D01*
X52381306Y-79645226D01*
X51780345Y-79893538D01*
X51320154Y-80352927D01*
X51070794Y-80953453D01*
X51070226Y-81603694D01*
X33782000Y-81603694D01*
X33782000Y-79519974D01*
X78026237Y-79519974D01*
X78124936Y-79737000D01*
X79102000Y-79737000D01*
X79102000Y-78763290D01*
X79648000Y-78763290D01*
X79648000Y-79737000D01*
X79668000Y-79737000D01*
X79668000Y-80283000D01*
X79648000Y-80283000D01*
X79648000Y-81256710D01*
X79865023Y-81358741D01*
X79982219Y-81310220D01*
X80433570Y-80978874D01*
X80632056Y-80651353D01*
X80900302Y-81052811D01*
X81365849Y-81363880D01*
X81915000Y-81473113D01*
X82464151Y-81363880D01*
X82929698Y-81052811D01*
X83185000Y-80670725D01*
X83440302Y-81052811D01*
X83905849Y-81363880D01*
X84455000Y-81473113D01*
X85004151Y-81363880D01*
X85469698Y-81052811D01*
X85725000Y-80670725D01*
X85980302Y-81052811D01*
X86445849Y-81363880D01*
X86995000Y-81473113D01*
X87544151Y-81363880D01*
X88009698Y-81052811D01*
X88265000Y-80670725D01*
X88520302Y-81052811D01*
X88985849Y-81363880D01*
X89535000Y-81473113D01*
X90084151Y-81363880D01*
X90549698Y-81052811D01*
X90805000Y-80670725D01*
X91060302Y-81052811D01*
X91525849Y-81363880D01*
X92075000Y-81473113D01*
X92624151Y-81363880D01*
X93089698Y-81052811D01*
X93345000Y-80670725D01*
X93600302Y-81052811D01*
X94065849Y-81363880D01*
X94615000Y-81473113D01*
X95164151Y-81363880D01*
X95629698Y-81052811D01*
X95885000Y-80670725D01*
X96140302Y-81052811D01*
X96605849Y-81363880D01*
X97155000Y-81473113D01*
X97704151Y-81363880D01*
X98169698Y-81052811D01*
X98480767Y-80587264D01*
X98498119Y-80500026D01*
X103426237Y-80500026D01*
X103716430Y-80978874D01*
X104167781Y-81310220D01*
X104284977Y-81358741D01*
X104502000Y-81256710D01*
X104502000Y-80283000D01*
X103524936Y-80283000D01*
X103426237Y-80500026D01*
X98498119Y-80500026D01*
X98590000Y-80038113D01*
X98590000Y-79981887D01*
X98498120Y-79519974D01*
X103426237Y-79519974D01*
X103524936Y-79737000D01*
X104502000Y-79737000D01*
X104502000Y-78763290D01*
X105048000Y-78763290D01*
X105048000Y-79737000D01*
X105068000Y-79737000D01*
X105068000Y-80283000D01*
X105048000Y-80283000D01*
X105048000Y-81256710D01*
X105265023Y-81358741D01*
X105382219Y-81310220D01*
X105833570Y-80978874D01*
X106032056Y-80651353D01*
X106300302Y-81052811D01*
X106765849Y-81363880D01*
X107315000Y-81473113D01*
X107864151Y-81363880D01*
X108329698Y-81052811D01*
X108585000Y-80670725D01*
X108840302Y-81052811D01*
X109305849Y-81363880D01*
X109855000Y-81473113D01*
X110404151Y-81363880D01*
X110869698Y-81052811D01*
X111125000Y-80670725D01*
X111380302Y-81052811D01*
X111845849Y-81363880D01*
X112395000Y-81473113D01*
X112944151Y-81363880D01*
X113409698Y-81052811D01*
X113665000Y-80670725D01*
X113920302Y-81052811D01*
X114385849Y-81363880D01*
X114935000Y-81473113D01*
X115484151Y-81363880D01*
X115949698Y-81052811D01*
X116205000Y-80670725D01*
X116460302Y-81052811D01*
X116925849Y-81363880D01*
X117475000Y-81473113D01*
X118024151Y-81363880D01*
X118489698Y-81052811D01*
X118745000Y-80670725D01*
X119000302Y-81052811D01*
X119465849Y-81363880D01*
X120015000Y-81473113D01*
X120564151Y-81363880D01*
X121029698Y-81052811D01*
X121285000Y-80670725D01*
X121540302Y-81052811D01*
X122005849Y-81363880D01*
X122555000Y-81473113D01*
X123104151Y-81363880D01*
X123569698Y-81052811D01*
X123880767Y-80587264D01*
X123990000Y-80038113D01*
X123990000Y-79981887D01*
X123880767Y-79432736D01*
X123569698Y-78967189D01*
X123104151Y-78656120D01*
X122555000Y-78546887D01*
X122005849Y-78656120D01*
X121540302Y-78967189D01*
X121285000Y-79349275D01*
X121029698Y-78967189D01*
X120564151Y-78656120D01*
X120015000Y-78546887D01*
X119465849Y-78656120D01*
X119000302Y-78967189D01*
X118745000Y-79349275D01*
X118489698Y-78967189D01*
X118024151Y-78656120D01*
X117475000Y-78546887D01*
X116925849Y-78656120D01*
X116460302Y-78967189D01*
X116205000Y-79349275D01*
X115949698Y-78967189D01*
X115484151Y-78656120D01*
X114935000Y-78546887D01*
X114385849Y-78656120D01*
X113920302Y-78967189D01*
X113665000Y-79349275D01*
X113409698Y-78967189D01*
X112944151Y-78656120D01*
X112395000Y-78546887D01*
X111845849Y-78656120D01*
X111380302Y-78967189D01*
X111125000Y-79349275D01*
X110869698Y-78967189D01*
X110404151Y-78656120D01*
X109855000Y-78546887D01*
X109305849Y-78656120D01*
X108840302Y-78967189D01*
X108585000Y-79349275D01*
X108329698Y-78967189D01*
X107864151Y-78656120D01*
X107315000Y-78546887D01*
X106765849Y-78656120D01*
X106300302Y-78967189D01*
X106032056Y-79368647D01*
X105833570Y-79041126D01*
X105382219Y-78709780D01*
X105265023Y-78661259D01*
X105048000Y-78763290D01*
X104502000Y-78763290D01*
X104284977Y-78661259D01*
X104167781Y-78709780D01*
X103716430Y-79041126D01*
X103426237Y-79519974D01*
X98498120Y-79519974D01*
X98480767Y-79432736D01*
X98169698Y-78967189D01*
X97704151Y-78656120D01*
X97155000Y-78546887D01*
X96605849Y-78656120D01*
X96140302Y-78967189D01*
X95885000Y-79349275D01*
X95629698Y-78967189D01*
X95164151Y-78656120D01*
X94615000Y-78546887D01*
X94065849Y-78656120D01*
X93600302Y-78967189D01*
X93345000Y-79349275D01*
X93089698Y-78967189D01*
X92624151Y-78656120D01*
X92075000Y-78546887D01*
X91525849Y-78656120D01*
X91060302Y-78967189D01*
X90805000Y-79349275D01*
X90549698Y-78967189D01*
X90084151Y-78656120D01*
X89535000Y-78546887D01*
X88985849Y-78656120D01*
X88520302Y-78967189D01*
X88265000Y-79349275D01*
X88009698Y-78967189D01*
X87544151Y-78656120D01*
X86995000Y-78546887D01*
X86445849Y-78656120D01*
X85980302Y-78967189D01*
X85725000Y-79349275D01*
X85469698Y-78967189D01*
X85004151Y-78656120D01*
X84455000Y-78546887D01*
X83905849Y-78656120D01*
X83440302Y-78967189D01*
X83185000Y-79349275D01*
X82929698Y-78967189D01*
X82464151Y-78656120D01*
X81915000Y-78546887D01*
X81365849Y-78656120D01*
X80900302Y-78967189D01*
X80632056Y-79368647D01*
X80433570Y-79041126D01*
X79982219Y-78709780D01*
X79865023Y-78661259D01*
X79648000Y-78763290D01*
X79102000Y-78763290D01*
X78884977Y-78661259D01*
X78767781Y-78709780D01*
X78316430Y-79041126D01*
X78026237Y-79519974D01*
X33782000Y-79519974D01*
X33782000Y-78711567D01*
X51849513Y-78711567D01*
X51959543Y-78960488D01*
X52586673Y-79132306D01*
X53231817Y-79051051D01*
X53450457Y-78960488D01*
X53560487Y-78711567D01*
X52705000Y-77856080D01*
X51849513Y-78711567D01*
X33782000Y-78711567D01*
X33782000Y-77351673D01*
X51042694Y-77351673D01*
X51123949Y-77996817D01*
X51214512Y-78215457D01*
X51463433Y-78325487D01*
X52318920Y-77470000D01*
X53091080Y-77470000D01*
X53946567Y-78325487D01*
X54195488Y-78215457D01*
X54311040Y-77793694D01*
X58690226Y-77793694D01*
X58938538Y-78394655D01*
X59397927Y-78854846D01*
X59998453Y-79104206D01*
X60648694Y-79104774D01*
X61249655Y-78856462D01*
X61709846Y-78397073D01*
X61959206Y-77796547D01*
X61959208Y-77793694D01*
X65040226Y-77793694D01*
X65288538Y-78394655D01*
X65747927Y-78854846D01*
X66348453Y-79104206D01*
X66998694Y-79104774D01*
X67599655Y-78856462D01*
X68059846Y-78397073D01*
X68309206Y-77796547D01*
X68309208Y-77793694D01*
X72660226Y-77793694D01*
X72908538Y-78394655D01*
X73367927Y-78854846D01*
X73968453Y-79104206D01*
X74618694Y-79104774D01*
X75219655Y-78856462D01*
X75679846Y-78397073D01*
X75929206Y-77796547D01*
X75929774Y-77146306D01*
X75681462Y-76545345D01*
X75222073Y-76085154D01*
X74621547Y-75835794D01*
X73971306Y-75835226D01*
X73370345Y-76083538D01*
X72910154Y-76542927D01*
X72660794Y-77143453D01*
X72660226Y-77793694D01*
X68309208Y-77793694D01*
X68309774Y-77146306D01*
X68061462Y-76545345D01*
X67602073Y-76085154D01*
X67001547Y-75835794D01*
X66351306Y-75835226D01*
X65750345Y-76083538D01*
X65290154Y-76542927D01*
X65040794Y-77143453D01*
X65040226Y-77793694D01*
X61959208Y-77793694D01*
X61959774Y-77146306D01*
X61711462Y-76545345D01*
X61252073Y-76085154D01*
X60651547Y-75835794D01*
X60001306Y-75835226D01*
X59400345Y-76083538D01*
X58940154Y-76542927D01*
X58690794Y-77143453D01*
X58690226Y-77793694D01*
X54311040Y-77793694D01*
X54367306Y-77588327D01*
X54286051Y-76943183D01*
X54195488Y-76724543D01*
X53946567Y-76614513D01*
X53091080Y-77470000D01*
X52318920Y-77470000D01*
X51463433Y-76614513D01*
X51214512Y-76724543D01*
X51042694Y-77351673D01*
X33782000Y-77351673D01*
X33782000Y-76228433D01*
X51849513Y-76228433D01*
X52705000Y-77083920D01*
X53560487Y-76228433D01*
X53450457Y-75979512D01*
X52823327Y-75807694D01*
X52178183Y-75888949D01*
X51959543Y-75979512D01*
X51849513Y-76228433D01*
X33782000Y-76228433D01*
X33782000Y-72880023D01*
X34846259Y-72880023D01*
X34894780Y-72997219D01*
X35226126Y-73448570D01*
X35704974Y-73738763D01*
X35922000Y-73640064D01*
X35922000Y-72663000D01*
X36468000Y-72663000D01*
X36468000Y-73640064D01*
X36685026Y-73738763D01*
X37163874Y-73448570D01*
X37495220Y-72997219D01*
X37543741Y-72880023D01*
X37441710Y-72663000D01*
X36468000Y-72663000D01*
X35922000Y-72663000D01*
X34948290Y-72663000D01*
X34846259Y-72880023D01*
X33782000Y-72880023D01*
X33782000Y-57150000D01*
X34731887Y-57150000D01*
X34841120Y-57699151D01*
X35152189Y-58164698D01*
X35534275Y-58420000D01*
X35152189Y-58675302D01*
X34841120Y-59140849D01*
X34731887Y-59690000D01*
X34841120Y-60239151D01*
X35152189Y-60704698D01*
X35534275Y-60960000D01*
X35152189Y-61215302D01*
X34841120Y-61680849D01*
X34731887Y-62230000D01*
X34841120Y-62779151D01*
X35152189Y-63244698D01*
X35534275Y-63500000D01*
X35152189Y-63755302D01*
X34841120Y-64220849D01*
X34731887Y-64770000D01*
X34841120Y-65319151D01*
X35152189Y-65784698D01*
X35534275Y-66040000D01*
X35152189Y-66295302D01*
X34841120Y-66760849D01*
X34731887Y-67310000D01*
X34841120Y-67859151D01*
X35152189Y-68324698D01*
X35534275Y-68580000D01*
X35152189Y-68835302D01*
X34841120Y-69300849D01*
X34731887Y-69850000D01*
X34841120Y-70399151D01*
X35152189Y-70864698D01*
X35553647Y-71132944D01*
X35226126Y-71331430D01*
X34894780Y-71782781D01*
X34846259Y-71899977D01*
X34948290Y-72117000D01*
X35922000Y-72117000D01*
X35922000Y-72097000D01*
X36468000Y-72097000D01*
X36468000Y-72117000D01*
X37441710Y-72117000D01*
X37543741Y-71899977D01*
X37495220Y-71782781D01*
X37163874Y-71331430D01*
X36836353Y-71132944D01*
X37237811Y-70864698D01*
X37548880Y-70399151D01*
X37658113Y-69850000D01*
X37548880Y-69300849D01*
X37237811Y-68835302D01*
X36855725Y-68580000D01*
X37237811Y-68324698D01*
X37548880Y-67859151D01*
X37658113Y-67310000D01*
X37548880Y-66760849D01*
X37530384Y-66733167D01*
X40720838Y-66733167D01*
X40862883Y-67076943D01*
X41125673Y-67340192D01*
X41469201Y-67482838D01*
X41841167Y-67483162D01*
X42184943Y-67341117D01*
X42385526Y-67140883D01*
X42351887Y-67310000D01*
X42461120Y-67859151D01*
X42772189Y-68324698D01*
X43154275Y-68580000D01*
X42772189Y-68835302D01*
X42461120Y-69300849D01*
X42351887Y-69850000D01*
X42461120Y-70399151D01*
X42772189Y-70864698D01*
X43154275Y-71120000D01*
X42772189Y-71375302D01*
X42461120Y-71840849D01*
X42351887Y-72390000D01*
X42461120Y-72939151D01*
X42772189Y-73404698D01*
X43237736Y-73715767D01*
X43786887Y-73825000D01*
X43843113Y-73825000D01*
X44392264Y-73715767D01*
X44857811Y-73404698D01*
X45168880Y-72939151D01*
X45180641Y-72880023D01*
X51356259Y-72880023D01*
X51404780Y-72997219D01*
X51736126Y-73448570D01*
X52214974Y-73738763D01*
X52432000Y-73640064D01*
X52432000Y-72663000D01*
X52978000Y-72663000D01*
X52978000Y-73640064D01*
X53195026Y-73738763D01*
X53673874Y-73448570D01*
X54005220Y-72997219D01*
X54053741Y-72880023D01*
X53951710Y-72663000D01*
X52978000Y-72663000D01*
X52432000Y-72663000D01*
X51458290Y-72663000D01*
X51356259Y-72880023D01*
X45180641Y-72880023D01*
X45278113Y-72390000D01*
X45168880Y-71840849D01*
X44857811Y-71375302D01*
X44475725Y-71120000D01*
X44857811Y-70864698D01*
X45168880Y-70399151D01*
X45278113Y-69850000D01*
X45168880Y-69300849D01*
X44857811Y-68835302D01*
X44475725Y-68580000D01*
X44857811Y-68324698D01*
X45168880Y-67859151D01*
X45278113Y-67310000D01*
X45168880Y-66760849D01*
X44857811Y-66295302D01*
X44475725Y-66040000D01*
X44857811Y-65784698D01*
X45168880Y-65319151D01*
X45278113Y-64770000D01*
X51241887Y-64770000D01*
X51351120Y-65319151D01*
X51662189Y-65784698D01*
X52044275Y-66040000D01*
X51662189Y-66295302D01*
X51351120Y-66760849D01*
X51241887Y-67310000D01*
X51351120Y-67859151D01*
X51662189Y-68324698D01*
X52044275Y-68580000D01*
X51662189Y-68835302D01*
X51351120Y-69300849D01*
X51241887Y-69850000D01*
X51351120Y-70399151D01*
X51662189Y-70864698D01*
X52063647Y-71132944D01*
X51736126Y-71331430D01*
X51404780Y-71782781D01*
X51356259Y-71899977D01*
X51458290Y-72117000D01*
X52432000Y-72117000D01*
X52432000Y-72097000D01*
X52978000Y-72097000D01*
X52978000Y-72117000D01*
X53951710Y-72117000D01*
X54053741Y-71899977D01*
X54005220Y-71782781D01*
X53673874Y-71331430D01*
X53346353Y-71132944D01*
X53747811Y-70864698D01*
X54058880Y-70399151D01*
X54168113Y-69850000D01*
X54058880Y-69300849D01*
X53747811Y-68835302D01*
X53365725Y-68580000D01*
X53747811Y-68324698D01*
X54058880Y-67859151D01*
X54168113Y-67310000D01*
X54058880Y-66760849D01*
X53747811Y-66295302D01*
X53365725Y-66040000D01*
X53473502Y-65967985D01*
X57129536Y-65967985D01*
X57271581Y-66311761D01*
X57534371Y-66575010D01*
X57877899Y-66717656D01*
X57889388Y-66717666D01*
X58177299Y-67005577D01*
X58177299Y-67990914D01*
X58170107Y-67998093D01*
X58027461Y-68341621D01*
X58027137Y-68713587D01*
X58169182Y-69057363D01*
X58431972Y-69320612D01*
X58775500Y-69463258D01*
X58938787Y-69463400D01*
X58861887Y-69850000D01*
X58971120Y-70399151D01*
X59282189Y-70864698D01*
X59664275Y-71120000D01*
X59282189Y-71375302D01*
X58971120Y-71840849D01*
X58861887Y-72390000D01*
X58971120Y-72939151D01*
X59282189Y-73404698D01*
X59747736Y-73715767D01*
X60296887Y-73825000D01*
X60353113Y-73825000D01*
X60902264Y-73715767D01*
X61367811Y-73404698D01*
X61678880Y-72939151D01*
X61690641Y-72880023D01*
X65326259Y-72880023D01*
X65374780Y-72997219D01*
X65706126Y-73448570D01*
X66184974Y-73738763D01*
X66402000Y-73640064D01*
X66402000Y-72663000D01*
X66948000Y-72663000D01*
X66948000Y-73640064D01*
X67165026Y-73738763D01*
X67643874Y-73448570D01*
X67975220Y-72997219D01*
X68023741Y-72880023D01*
X67921710Y-72663000D01*
X66948000Y-72663000D01*
X66402000Y-72663000D01*
X65428290Y-72663000D01*
X65326259Y-72880023D01*
X61690641Y-72880023D01*
X61788113Y-72390000D01*
X61678880Y-71840849D01*
X61367811Y-71375302D01*
X60985725Y-71120000D01*
X61367811Y-70864698D01*
X61678880Y-70399151D01*
X61788113Y-69850000D01*
X61678880Y-69300849D01*
X61367811Y-68835302D01*
X60985725Y-68580000D01*
X61367811Y-68324698D01*
X61678880Y-67859151D01*
X61788113Y-67310000D01*
X61678880Y-66760849D01*
X61367811Y-66295302D01*
X60985725Y-66040000D01*
X61367811Y-65784698D01*
X61678880Y-65319151D01*
X61788113Y-64770000D01*
X61690642Y-64279977D01*
X65326259Y-64279977D01*
X65428290Y-64497000D01*
X66402000Y-64497000D01*
X66402000Y-63519936D01*
X66184974Y-63421237D01*
X65706126Y-63711430D01*
X65374780Y-64162781D01*
X65326259Y-64279977D01*
X61690642Y-64279977D01*
X61678880Y-64220849D01*
X61367811Y-63755302D01*
X60902264Y-63444233D01*
X60353113Y-63335000D01*
X60296887Y-63335000D01*
X59747736Y-63444233D01*
X59282189Y-63755302D01*
X58971120Y-64220849D01*
X58861887Y-64770000D01*
X58971120Y-65319151D01*
X59282189Y-65784698D01*
X59664275Y-66040000D01*
X59523297Y-66134199D01*
X59517378Y-66125340D01*
X58999851Y-65607813D01*
X58999860Y-65597651D01*
X58857815Y-65253875D01*
X58595025Y-64990626D01*
X58251497Y-64847980D01*
X57879531Y-64847656D01*
X57535755Y-64989701D01*
X57272506Y-65252491D01*
X57129860Y-65596019D01*
X57129536Y-65967985D01*
X53473502Y-65967985D01*
X53747811Y-65784698D01*
X54058880Y-65319151D01*
X54168113Y-64770000D01*
X54058880Y-64220849D01*
X53747811Y-63755302D01*
X53282264Y-63444233D01*
X52733113Y-63335000D01*
X52676887Y-63335000D01*
X52127736Y-63444233D01*
X51662189Y-63755302D01*
X51351120Y-64220849D01*
X51241887Y-64770000D01*
X45278113Y-64770000D01*
X45168880Y-64220849D01*
X44857811Y-63755302D01*
X44475725Y-63500000D01*
X44857811Y-63244698D01*
X45168880Y-62779151D01*
X45278113Y-62230000D01*
X45168880Y-61680849D01*
X44857811Y-61215302D01*
X44475725Y-60960000D01*
X44857811Y-60704698D01*
X45168880Y-60239151D01*
X45278113Y-59690000D01*
X45168880Y-59140849D01*
X44903510Y-58743694D01*
X65040226Y-58743694D01*
X65288538Y-59344655D01*
X65747927Y-59804846D01*
X66348453Y-60054206D01*
X66998694Y-60054774D01*
X67040001Y-60037706D01*
X67040001Y-63478096D01*
X66948000Y-63519936D01*
X66948000Y-64497000D01*
X66968000Y-64497000D01*
X66968000Y-65043000D01*
X66948000Y-65043000D01*
X66948000Y-65063000D01*
X66402000Y-65063000D01*
X66402000Y-65043000D01*
X65428290Y-65043000D01*
X65326259Y-65260023D01*
X65374780Y-65377219D01*
X65706126Y-65828570D01*
X66033647Y-66027056D01*
X65632189Y-66295302D01*
X65321120Y-66760849D01*
X65211887Y-67310000D01*
X65321120Y-67859151D01*
X65632189Y-68324698D01*
X66014275Y-68580000D01*
X65632189Y-68835302D01*
X65321120Y-69300849D01*
X65211887Y-69850000D01*
X65321120Y-70399151D01*
X65632189Y-70864698D01*
X66033647Y-71132944D01*
X65706126Y-71331430D01*
X65374780Y-71782781D01*
X65326259Y-71899977D01*
X65428290Y-72117000D01*
X66402000Y-72117000D01*
X66402000Y-72097000D01*
X66948000Y-72097000D01*
X66948000Y-72117000D01*
X67921710Y-72117000D01*
X68023741Y-71899977D01*
X67975220Y-71782781D01*
X67643874Y-71331430D01*
X67316353Y-71132944D01*
X67717811Y-70864698D01*
X68028880Y-70399151D01*
X68138113Y-69850000D01*
X68028880Y-69300849D01*
X67717811Y-68835302D01*
X67335725Y-68580000D01*
X67717811Y-68324698D01*
X68028880Y-67859151D01*
X68138113Y-67310000D01*
X68079554Y-67015604D01*
X68380080Y-66715078D01*
X68550246Y-66460405D01*
X68610002Y-66159999D01*
X68610001Y-66159994D01*
X68610001Y-64770000D01*
X72831887Y-64770000D01*
X72941120Y-65319151D01*
X73252189Y-65784698D01*
X73634275Y-66040000D01*
X73252189Y-66295302D01*
X72941120Y-66760849D01*
X72831887Y-67310000D01*
X72941120Y-67859151D01*
X73252189Y-68324698D01*
X73634275Y-68580000D01*
X73252189Y-68835302D01*
X72941120Y-69300849D01*
X72831887Y-69850000D01*
X72941120Y-70399151D01*
X73252189Y-70864698D01*
X73634275Y-71120000D01*
X73252189Y-71375302D01*
X72941120Y-71840849D01*
X72831887Y-72390000D01*
X72941120Y-72939151D01*
X73252189Y-73404698D01*
X73717736Y-73715767D01*
X74266887Y-73825000D01*
X74323113Y-73825000D01*
X74872264Y-73715767D01*
X75337811Y-73404698D01*
X75648880Y-72939151D01*
X75758113Y-72390000D01*
X75648880Y-71840849D01*
X75337811Y-71375302D01*
X74955725Y-71120000D01*
X75337811Y-70864698D01*
X75648880Y-70399151D01*
X75758113Y-69850000D01*
X75648880Y-69300849D01*
X75337811Y-68835302D01*
X74955725Y-68580000D01*
X75337811Y-68324698D01*
X75648880Y-67859151D01*
X75758113Y-67310000D01*
X75648880Y-66760849D01*
X75337811Y-66295302D01*
X74955725Y-66040000D01*
X75337811Y-65784698D01*
X75648880Y-65319151D01*
X75758113Y-64770000D01*
X75648880Y-64220849D01*
X75337811Y-63755302D01*
X74872264Y-63444233D01*
X74323113Y-63335000D01*
X74266887Y-63335000D01*
X73717736Y-63444233D01*
X73252189Y-63755302D01*
X72941120Y-64220849D01*
X72831887Y-64770000D01*
X68610001Y-64770000D01*
X68610001Y-62161167D01*
X76788838Y-62161167D01*
X76930883Y-62504943D01*
X76939000Y-62513074D01*
X76939000Y-66010494D01*
X76931808Y-66017673D01*
X76789162Y-66361201D01*
X76788838Y-66733167D01*
X76930883Y-67076943D01*
X77193673Y-67340192D01*
X77537201Y-67482838D01*
X77909167Y-67483162D01*
X78252943Y-67341117D01*
X78516192Y-67078327D01*
X78658838Y-66734799D01*
X78659071Y-66466930D01*
X78925167Y-66467162D01*
X79268943Y-66325117D01*
X79532192Y-66062327D01*
X79674838Y-65718799D01*
X79675162Y-65346833D01*
X79533117Y-65003057D01*
X79525000Y-64994926D01*
X79525000Y-61497506D01*
X79532192Y-61490327D01*
X79674838Y-61146799D01*
X79675162Y-60774833D01*
X79533117Y-60431057D01*
X79270327Y-60167808D01*
X78926799Y-60025162D01*
X78554833Y-60024838D01*
X78211057Y-60166883D01*
X77947808Y-60429673D01*
X77805162Y-60773201D01*
X77804929Y-61041070D01*
X77538833Y-61040838D01*
X77195057Y-61182883D01*
X76931808Y-61445673D01*
X76789162Y-61789201D01*
X76788838Y-62161167D01*
X68610001Y-62161167D01*
X68610001Y-59570001D01*
X68550246Y-59269594D01*
X68380080Y-59014922D01*
X68251258Y-58886100D01*
X68309206Y-58746547D01*
X68309208Y-58743694D01*
X72660226Y-58743694D01*
X72908538Y-59344655D01*
X73367927Y-59804846D01*
X73968453Y-60054206D01*
X74618694Y-60054774D01*
X75219655Y-59806462D01*
X75679846Y-59347073D01*
X75929206Y-58746547D01*
X75929774Y-58096306D01*
X75681462Y-57495345D01*
X75222073Y-57035154D01*
X74621547Y-56785794D01*
X73971306Y-56785226D01*
X73370345Y-57033538D01*
X72910154Y-57492927D01*
X72660794Y-58093453D01*
X72660226Y-58743694D01*
X68309208Y-58743694D01*
X68309774Y-58096306D01*
X68061462Y-57495345D01*
X67602073Y-57035154D01*
X67001547Y-56785794D01*
X66351306Y-56785226D01*
X65750345Y-57033538D01*
X65290154Y-57492927D01*
X65040794Y-58093453D01*
X65040226Y-58743694D01*
X44903510Y-58743694D01*
X44857811Y-58675302D01*
X44475725Y-58420000D01*
X44857811Y-58164698D01*
X45168880Y-57699151D01*
X45278113Y-57150000D01*
X45168880Y-56600849D01*
X45068086Y-56450000D01*
X50468560Y-56450000D01*
X50468560Y-57850000D01*
X50512838Y-58085317D01*
X50651910Y-58301441D01*
X50864110Y-58446431D01*
X51116000Y-58497440D01*
X52516000Y-58497440D01*
X52751317Y-58453162D01*
X52967441Y-58314090D01*
X53112431Y-58101890D01*
X53163440Y-57850000D01*
X53163440Y-57414383D01*
X60480769Y-57414383D01*
X60683582Y-57905229D01*
X61058796Y-58281098D01*
X61549287Y-58484768D01*
X62080383Y-58485231D01*
X62571229Y-58282418D01*
X62947098Y-57907204D01*
X63150768Y-57416713D01*
X63151231Y-56885617D01*
X62948418Y-56394771D01*
X62573204Y-56018902D01*
X62082713Y-55815232D01*
X61551617Y-55814769D01*
X61060771Y-56017582D01*
X60684902Y-56392796D01*
X60481232Y-56883287D01*
X60480769Y-57414383D01*
X53163440Y-57414383D01*
X53163440Y-56450000D01*
X53119162Y-56214683D01*
X52980090Y-55998559D01*
X52767890Y-55853569D01*
X52516000Y-55802560D01*
X51116000Y-55802560D01*
X50880683Y-55846838D01*
X50664559Y-55985910D01*
X50519569Y-56198110D01*
X50468560Y-56450000D01*
X45068086Y-56450000D01*
X44857811Y-56135302D01*
X44392264Y-55824233D01*
X43843113Y-55715000D01*
X43786887Y-55715000D01*
X43237736Y-55824233D01*
X42772189Y-56135302D01*
X42461120Y-56600849D01*
X42351887Y-57150000D01*
X42418098Y-57482863D01*
X42193661Y-57258034D01*
X41850133Y-57115388D01*
X41478167Y-57115064D01*
X41134391Y-57257109D01*
X40871142Y-57519899D01*
X40728496Y-57863427D01*
X40728172Y-58235393D01*
X40870217Y-58579169D01*
X40871000Y-58579953D01*
X40871000Y-66010494D01*
X40863808Y-66017673D01*
X40721162Y-66361201D01*
X40720838Y-66733167D01*
X37530384Y-66733167D01*
X37237811Y-66295302D01*
X36855725Y-66040000D01*
X37237811Y-65784698D01*
X37548880Y-65319151D01*
X37658113Y-64770000D01*
X37548880Y-64220849D01*
X37237811Y-63755302D01*
X36855725Y-63500000D01*
X37237811Y-63244698D01*
X37548880Y-62779151D01*
X37658113Y-62230000D01*
X37548880Y-61680849D01*
X37237811Y-61215302D01*
X36855725Y-60960000D01*
X37237811Y-60704698D01*
X37548880Y-60239151D01*
X37658113Y-59690000D01*
X37548880Y-59140849D01*
X37237811Y-58675302D01*
X36855725Y-58420000D01*
X37237811Y-58164698D01*
X37548880Y-57699151D01*
X37658113Y-57150000D01*
X37548880Y-56600849D01*
X37237811Y-56135302D01*
X36772264Y-55824233D01*
X36223113Y-55715000D01*
X36166887Y-55715000D01*
X35617736Y-55824233D01*
X35152189Y-56135302D01*
X34841120Y-56600849D01*
X34731887Y-57150000D01*
X33782000Y-57150000D01*
X33782000Y-54933694D01*
X65040226Y-54933694D01*
X65288538Y-55534655D01*
X65747927Y-55994846D01*
X66348453Y-56244206D01*
X66998694Y-56244774D01*
X67599655Y-55996462D01*
X68059846Y-55537073D01*
X68309206Y-54936547D01*
X68309208Y-54933694D01*
X72660226Y-54933694D01*
X72908538Y-55534655D01*
X73367927Y-55994846D01*
X73968453Y-56244206D01*
X74618694Y-56244774D01*
X75219655Y-55996462D01*
X75679846Y-55537073D01*
X75929206Y-54936547D01*
X75929774Y-54286306D01*
X75681462Y-53685345D01*
X75222073Y-53225154D01*
X74621547Y-52975794D01*
X73971306Y-52975226D01*
X73370345Y-53223538D01*
X72910154Y-53682927D01*
X72660794Y-54283453D01*
X72660226Y-54933694D01*
X68309208Y-54933694D01*
X68309774Y-54286306D01*
X68061462Y-53685345D01*
X67602073Y-53225154D01*
X67001547Y-52975794D01*
X66351306Y-52975226D01*
X65750345Y-53223538D01*
X65290154Y-53682927D01*
X65040794Y-54283453D01*
X65040226Y-54933694D01*
X33782000Y-54933694D01*
X33782000Y-51123694D01*
X34560226Y-51123694D01*
X34808538Y-51724655D01*
X35267927Y-52184846D01*
X35868453Y-52434206D01*
X36518694Y-52434774D01*
X37119655Y-52186462D01*
X37579846Y-51727073D01*
X37829206Y-51126547D01*
X37829208Y-51123694D01*
X42180226Y-51123694D01*
X42428538Y-51724655D01*
X42887927Y-52184846D01*
X43488453Y-52434206D01*
X44138694Y-52434774D01*
X44739655Y-52186462D01*
X45199846Y-51727073D01*
X45449206Y-51126547D01*
X45449515Y-50771887D01*
X48730000Y-50771887D01*
X48730000Y-50828113D01*
X48839233Y-51377264D01*
X49150302Y-51842811D01*
X49615849Y-52153880D01*
X50165000Y-52263113D01*
X50714151Y-52153880D01*
X51179698Y-51842811D01*
X51435000Y-51460725D01*
X51690302Y-51842811D01*
X52155849Y-52153880D01*
X52705000Y-52263113D01*
X53254151Y-52153880D01*
X53719698Y-51842811D01*
X53975000Y-51460725D01*
X54230302Y-51842811D01*
X54695849Y-52153880D01*
X55245000Y-52263113D01*
X55794151Y-52153880D01*
X56259698Y-51842811D01*
X56515000Y-51460725D01*
X56770302Y-51842811D01*
X57235849Y-52153880D01*
X57785000Y-52263113D01*
X58334151Y-52153880D01*
X58799698Y-51842811D01*
X59055000Y-51460725D01*
X59310302Y-51842811D01*
X59775849Y-52153880D01*
X60325000Y-52263113D01*
X60874151Y-52153880D01*
X61339698Y-51842811D01*
X61595000Y-51460725D01*
X61850302Y-51842811D01*
X62315849Y-52153880D01*
X62865000Y-52263113D01*
X63414151Y-52153880D01*
X63879698Y-51842811D01*
X64135000Y-51460725D01*
X64390302Y-51842811D01*
X64855849Y-52153880D01*
X65405000Y-52263113D01*
X65954151Y-52153880D01*
X66419698Y-51842811D01*
X66730767Y-51377264D01*
X66840000Y-50828113D01*
X66840000Y-50771887D01*
X66730767Y-50222736D01*
X66419698Y-49757189D01*
X65954151Y-49446120D01*
X65405000Y-49336887D01*
X64855849Y-49446120D01*
X64390302Y-49757189D01*
X64135000Y-50139275D01*
X63879698Y-49757189D01*
X63414151Y-49446120D01*
X62865000Y-49336887D01*
X62315849Y-49446120D01*
X61850302Y-49757189D01*
X61595000Y-50139275D01*
X61339698Y-49757189D01*
X60874151Y-49446120D01*
X60325000Y-49336887D01*
X59775849Y-49446120D01*
X59310302Y-49757189D01*
X59055000Y-50139275D01*
X58799698Y-49757189D01*
X58334151Y-49446120D01*
X57785000Y-49336887D01*
X57235849Y-49446120D01*
X56770302Y-49757189D01*
X56515000Y-50139275D01*
X56259698Y-49757189D01*
X55794151Y-49446120D01*
X55245000Y-49336887D01*
X54695849Y-49446120D01*
X54230302Y-49757189D01*
X53975000Y-50139275D01*
X53719698Y-49757189D01*
X53254151Y-49446120D01*
X52705000Y-49336887D01*
X52155849Y-49446120D01*
X51690302Y-49757189D01*
X51435000Y-50139275D01*
X51179698Y-49757189D01*
X50714151Y-49446120D01*
X50165000Y-49336887D01*
X49615849Y-49446120D01*
X49150302Y-49757189D01*
X48839233Y-50222736D01*
X48730000Y-50771887D01*
X45449515Y-50771887D01*
X45449774Y-50476306D01*
X45201462Y-49875345D01*
X44742073Y-49415154D01*
X44141547Y-49165794D01*
X43491306Y-49165226D01*
X42890345Y-49413538D01*
X42430154Y-49872927D01*
X42180794Y-50473453D01*
X42180226Y-51123694D01*
X37829208Y-51123694D01*
X37829774Y-50476306D01*
X37581462Y-49875345D01*
X37122073Y-49415154D01*
X36521547Y-49165794D01*
X35871306Y-49165226D01*
X35270345Y-49413538D01*
X34810154Y-49872927D01*
X34560794Y-50473453D01*
X34560226Y-51123694D01*
X33782000Y-51123694D01*
X33782000Y-43503694D01*
X34560226Y-43503694D01*
X34808538Y-44104655D01*
X35267927Y-44564846D01*
X35868453Y-44814206D01*
X36518694Y-44814774D01*
X37119655Y-44566462D01*
X37264802Y-44421567D01*
X42959513Y-44421567D01*
X43069543Y-44670488D01*
X43696673Y-44842306D01*
X44341817Y-44761051D01*
X44560457Y-44670488D01*
X44670487Y-44421567D01*
X43815000Y-43566080D01*
X42959513Y-44421567D01*
X37264802Y-44421567D01*
X37579846Y-44107073D01*
X37829206Y-43506547D01*
X37829594Y-43061673D01*
X42152694Y-43061673D01*
X42233949Y-43706817D01*
X42324512Y-43925457D01*
X42573433Y-44035487D01*
X43428920Y-43180000D01*
X44201080Y-43180000D01*
X45056567Y-44035487D01*
X45305488Y-43925457D01*
X45477306Y-43298327D01*
X45458863Y-43151887D01*
X48730000Y-43151887D01*
X48730000Y-43208113D01*
X48839233Y-43757264D01*
X49150302Y-44222811D01*
X49615849Y-44533880D01*
X50165000Y-44643113D01*
X50714151Y-44533880D01*
X51179698Y-44222811D01*
X51435000Y-43840725D01*
X51690302Y-44222811D01*
X52155849Y-44533880D01*
X52705000Y-44643113D01*
X53254151Y-44533880D01*
X53719698Y-44222811D01*
X53975000Y-43840725D01*
X54230302Y-44222811D01*
X54695849Y-44533880D01*
X55245000Y-44643113D01*
X55794151Y-44533880D01*
X56259698Y-44222811D01*
X56515000Y-43840725D01*
X56770302Y-44222811D01*
X57235849Y-44533880D01*
X57785000Y-44643113D01*
X58334151Y-44533880D01*
X58799698Y-44222811D01*
X59055000Y-43840725D01*
X59310302Y-44222811D01*
X59775849Y-44533880D01*
X60325000Y-44643113D01*
X60874151Y-44533880D01*
X61339698Y-44222811D01*
X61595000Y-43840725D01*
X61850302Y-44222811D01*
X62315849Y-44533880D01*
X62865000Y-44643113D01*
X63414151Y-44533880D01*
X63879698Y-44222811D01*
X64135000Y-43840725D01*
X64390302Y-44222811D01*
X64855849Y-44533880D01*
X65405000Y-44643113D01*
X65954151Y-44533880D01*
X66121760Y-44421887D01*
X83020000Y-44421887D01*
X83020000Y-44478113D01*
X83129233Y-45027264D01*
X83440302Y-45492811D01*
X83905849Y-45803880D01*
X84455000Y-45913113D01*
X85004151Y-45803880D01*
X85469698Y-45492811D01*
X85725000Y-45110725D01*
X85980302Y-45492811D01*
X86445849Y-45803880D01*
X86995000Y-45913113D01*
X87544151Y-45803880D01*
X88009698Y-45492811D01*
X88265000Y-45110725D01*
X88520302Y-45492811D01*
X88985849Y-45803880D01*
X89535000Y-45913113D01*
X90084151Y-45803880D01*
X90549698Y-45492811D01*
X90805000Y-45110725D01*
X91060302Y-45492811D01*
X91525849Y-45803880D01*
X92075000Y-45913113D01*
X92624151Y-45803880D01*
X93089698Y-45492811D01*
X93345000Y-45110725D01*
X93600302Y-45492811D01*
X94065849Y-45803880D01*
X94615000Y-45913113D01*
X95164151Y-45803880D01*
X95629698Y-45492811D01*
X95885000Y-45110725D01*
X96140302Y-45492811D01*
X96605849Y-45803880D01*
X97155000Y-45913113D01*
X97704151Y-45803880D01*
X98169698Y-45492811D01*
X98425000Y-45110725D01*
X98680302Y-45492811D01*
X99145849Y-45803880D01*
X99695000Y-45913113D01*
X100244151Y-45803880D01*
X100709698Y-45492811D01*
X100977944Y-45091353D01*
X101176430Y-45418874D01*
X101627781Y-45750220D01*
X101744977Y-45798741D01*
X101962000Y-45696710D01*
X101962000Y-44723000D01*
X102508000Y-44723000D01*
X102508000Y-45696710D01*
X102725023Y-45798741D01*
X102842219Y-45750220D01*
X103293570Y-45418874D01*
X103583763Y-44940026D01*
X103485064Y-44723000D01*
X102508000Y-44723000D01*
X101962000Y-44723000D01*
X101942000Y-44723000D01*
X101942000Y-44421887D01*
X108420000Y-44421887D01*
X108420000Y-44478113D01*
X108529233Y-45027264D01*
X108840302Y-45492811D01*
X109305849Y-45803880D01*
X109855000Y-45913113D01*
X110404151Y-45803880D01*
X110869698Y-45492811D01*
X111125000Y-45110725D01*
X111380302Y-45492811D01*
X111845849Y-45803880D01*
X112395000Y-45913113D01*
X112944151Y-45803880D01*
X113409698Y-45492811D01*
X113665000Y-45110725D01*
X113920302Y-45492811D01*
X114385849Y-45803880D01*
X114935000Y-45913113D01*
X115484151Y-45803880D01*
X115949698Y-45492811D01*
X116205000Y-45110725D01*
X116460302Y-45492811D01*
X116925849Y-45803880D01*
X117475000Y-45913113D01*
X118024151Y-45803880D01*
X118489698Y-45492811D01*
X118745000Y-45110725D01*
X119000302Y-45492811D01*
X119465849Y-45803880D01*
X120015000Y-45913113D01*
X120564151Y-45803880D01*
X121029698Y-45492811D01*
X121285000Y-45110725D01*
X121540302Y-45492811D01*
X122005849Y-45803880D01*
X122555000Y-45913113D01*
X123104151Y-45803880D01*
X123569698Y-45492811D01*
X123825000Y-45110725D01*
X124080302Y-45492811D01*
X124545849Y-45803880D01*
X125095000Y-45913113D01*
X125644151Y-45803880D01*
X126109698Y-45492811D01*
X126377944Y-45091353D01*
X126576430Y-45418874D01*
X127027781Y-45750220D01*
X127144977Y-45798741D01*
X127362000Y-45696710D01*
X127362000Y-44723000D01*
X127342000Y-44723000D01*
X127342000Y-44177000D01*
X127362000Y-44177000D01*
X127362000Y-43203290D01*
X127144977Y-43101259D01*
X127027781Y-43149780D01*
X126576430Y-43481126D01*
X126377944Y-43808647D01*
X126109698Y-43407189D01*
X125644151Y-43096120D01*
X125095000Y-42986887D01*
X124545849Y-43096120D01*
X124080302Y-43407189D01*
X123825000Y-43789275D01*
X123569698Y-43407189D01*
X123104151Y-43096120D01*
X122555000Y-42986887D01*
X122005849Y-43096120D01*
X121540302Y-43407189D01*
X121285000Y-43789275D01*
X121029698Y-43407189D01*
X120564151Y-43096120D01*
X120015000Y-42986887D01*
X119465849Y-43096120D01*
X119000302Y-43407189D01*
X118745000Y-43789275D01*
X118489698Y-43407189D01*
X118024151Y-43096120D01*
X117475000Y-42986887D01*
X116925849Y-43096120D01*
X116460302Y-43407189D01*
X116205000Y-43789275D01*
X115949698Y-43407189D01*
X115484151Y-43096120D01*
X114935000Y-42986887D01*
X114385849Y-43096120D01*
X113920302Y-43407189D01*
X113665000Y-43789275D01*
X113409698Y-43407189D01*
X112944151Y-43096120D01*
X112395000Y-42986887D01*
X111845849Y-43096120D01*
X111380302Y-43407189D01*
X111125000Y-43789275D01*
X110869698Y-43407189D01*
X110404151Y-43096120D01*
X109855000Y-42986887D01*
X109305849Y-43096120D01*
X108840302Y-43407189D01*
X108529233Y-43872736D01*
X108420000Y-44421887D01*
X101942000Y-44421887D01*
X101942000Y-44177000D01*
X101962000Y-44177000D01*
X101962000Y-43203290D01*
X102508000Y-43203290D01*
X102508000Y-44177000D01*
X103485064Y-44177000D01*
X103583763Y-43959974D01*
X103293570Y-43481126D01*
X102842219Y-43149780D01*
X102725023Y-43101259D01*
X102508000Y-43203290D01*
X101962000Y-43203290D01*
X101744977Y-43101259D01*
X101627781Y-43149780D01*
X101176430Y-43481126D01*
X100977944Y-43808647D01*
X100709698Y-43407189D01*
X100244151Y-43096120D01*
X99695000Y-42986887D01*
X99145849Y-43096120D01*
X98680302Y-43407189D01*
X98425000Y-43789275D01*
X98169698Y-43407189D01*
X97704151Y-43096120D01*
X97155000Y-42986887D01*
X96605849Y-43096120D01*
X96140302Y-43407189D01*
X95885000Y-43789275D01*
X95629698Y-43407189D01*
X95164151Y-43096120D01*
X94615000Y-42986887D01*
X94065849Y-43096120D01*
X93600302Y-43407189D01*
X93345000Y-43789275D01*
X93089698Y-43407189D01*
X92624151Y-43096120D01*
X92075000Y-42986887D01*
X91525849Y-43096120D01*
X91060302Y-43407189D01*
X90805000Y-43789275D01*
X90549698Y-43407189D01*
X90084151Y-43096120D01*
X89535000Y-42986887D01*
X88985849Y-43096120D01*
X88520302Y-43407189D01*
X88265000Y-43789275D01*
X88009698Y-43407189D01*
X87544151Y-43096120D01*
X86995000Y-42986887D01*
X86445849Y-43096120D01*
X85980302Y-43407189D01*
X85725000Y-43789275D01*
X85469698Y-43407189D01*
X85004151Y-43096120D01*
X84455000Y-42986887D01*
X83905849Y-43096120D01*
X83440302Y-43407189D01*
X83129233Y-43872736D01*
X83020000Y-44421887D01*
X66121760Y-44421887D01*
X66419698Y-44222811D01*
X66730767Y-43757264D01*
X66840000Y-43208113D01*
X66840000Y-43151887D01*
X66730767Y-42602736D01*
X66419698Y-42137189D01*
X65954151Y-41826120D01*
X65405000Y-41716887D01*
X64855849Y-41826120D01*
X64390302Y-42137189D01*
X64135000Y-42519275D01*
X63879698Y-42137189D01*
X63414151Y-41826120D01*
X62865000Y-41716887D01*
X62315849Y-41826120D01*
X61850302Y-42137189D01*
X61595000Y-42519275D01*
X61339698Y-42137189D01*
X60874151Y-41826120D01*
X60325000Y-41716887D01*
X59775849Y-41826120D01*
X59310302Y-42137189D01*
X59055000Y-42519275D01*
X58799698Y-42137189D01*
X58334151Y-41826120D01*
X57785000Y-41716887D01*
X57235849Y-41826120D01*
X56770302Y-42137189D01*
X56515000Y-42519275D01*
X56259698Y-42137189D01*
X55794151Y-41826120D01*
X55245000Y-41716887D01*
X54695849Y-41826120D01*
X54230302Y-42137189D01*
X53975000Y-42519275D01*
X53719698Y-42137189D01*
X53254151Y-41826120D01*
X52705000Y-41716887D01*
X52155849Y-41826120D01*
X51690302Y-42137189D01*
X51435000Y-42519275D01*
X51179698Y-42137189D01*
X50714151Y-41826120D01*
X50165000Y-41716887D01*
X49615849Y-41826120D01*
X49150302Y-42137189D01*
X48839233Y-42602736D01*
X48730000Y-43151887D01*
X45458863Y-43151887D01*
X45396051Y-42653183D01*
X45305488Y-42434543D01*
X45056567Y-42324513D01*
X44201080Y-43180000D01*
X43428920Y-43180000D01*
X42573433Y-42324513D01*
X42324512Y-42434543D01*
X42152694Y-43061673D01*
X37829594Y-43061673D01*
X37829774Y-42856306D01*
X37581462Y-42255345D01*
X37265103Y-41938433D01*
X42959513Y-41938433D01*
X43815000Y-42793920D01*
X44670487Y-41938433D01*
X44560457Y-41689512D01*
X43933327Y-41517694D01*
X43288183Y-41598949D01*
X43069543Y-41689512D01*
X42959513Y-41938433D01*
X37265103Y-41938433D01*
X37122073Y-41795154D01*
X36521547Y-41545794D01*
X35871306Y-41545226D01*
X35270345Y-41793538D01*
X34810154Y-42252927D01*
X34560794Y-42853453D01*
X34560226Y-43503694D01*
X33782000Y-43503694D01*
X33782000Y-37969225D01*
X53794597Y-37969225D01*
X54039640Y-38497489D01*
X54468188Y-38891768D01*
X54744851Y-39030076D01*
X54972000Y-38929143D01*
X54972000Y-37738000D01*
X53916166Y-37738000D01*
X53794597Y-37969225D01*
X33782000Y-37969225D01*
X33782000Y-36960775D01*
X53794597Y-36960775D01*
X53916166Y-37192000D01*
X54972000Y-37192000D01*
X54972000Y-36000857D01*
X55518000Y-36000857D01*
X55518000Y-37192000D01*
X55538000Y-37192000D01*
X55538000Y-37738000D01*
X55518000Y-37738000D01*
X55518000Y-38929143D01*
X55745149Y-39030076D01*
X56021812Y-38891768D01*
X56450360Y-38497489D01*
X56505008Y-38379680D01*
X56725330Y-38709415D01*
X57211511Y-39034271D01*
X57785000Y-39148345D01*
X58358489Y-39034271D01*
X58844670Y-38709415D01*
X59055000Y-38394634D01*
X59265330Y-38709415D01*
X59751511Y-39034271D01*
X60325000Y-39148345D01*
X60898489Y-39034271D01*
X61384670Y-38709415D01*
X61595000Y-38394634D01*
X61805330Y-38709415D01*
X62291511Y-39034271D01*
X62865000Y-39148345D01*
X63438489Y-39034271D01*
X63924670Y-38709415D01*
X63934243Y-38695087D01*
X63938238Y-38716317D01*
X64077310Y-38932441D01*
X64289510Y-39077431D01*
X64541400Y-39128440D01*
X66268600Y-39128440D01*
X66503917Y-39084162D01*
X66720041Y-38945090D01*
X66865031Y-38732890D01*
X66916040Y-38481000D01*
X66916040Y-36801887D01*
X83020000Y-36801887D01*
X83020000Y-36858113D01*
X83129233Y-37407264D01*
X83440302Y-37872811D01*
X83905849Y-38183880D01*
X84455000Y-38293113D01*
X85004151Y-38183880D01*
X85469698Y-37872811D01*
X85725000Y-37490725D01*
X85980302Y-37872811D01*
X86445849Y-38183880D01*
X86995000Y-38293113D01*
X87544151Y-38183880D01*
X88009698Y-37872811D01*
X88265000Y-37490725D01*
X88520302Y-37872811D01*
X88985849Y-38183880D01*
X89535000Y-38293113D01*
X90084151Y-38183880D01*
X90549698Y-37872811D01*
X90817944Y-37471353D01*
X91016430Y-37798874D01*
X91467781Y-38130220D01*
X91584977Y-38178741D01*
X91802000Y-38076710D01*
X91802000Y-37103000D01*
X91782000Y-37103000D01*
X91782000Y-36557000D01*
X91802000Y-36557000D01*
X91802000Y-35583290D01*
X91584977Y-35481259D01*
X91467781Y-35529780D01*
X91016430Y-35861126D01*
X90817944Y-36188647D01*
X90549698Y-35787189D01*
X90084151Y-35476120D01*
X89535000Y-35366887D01*
X88985849Y-35476120D01*
X88520302Y-35787189D01*
X88265000Y-36169275D01*
X88009698Y-35787189D01*
X87544151Y-35476120D01*
X86995000Y-35366887D01*
X86445849Y-35476120D01*
X85980302Y-35787189D01*
X85725000Y-36169275D01*
X85469698Y-35787189D01*
X85004151Y-35476120D01*
X84455000Y-35366887D01*
X83905849Y-35476120D01*
X83440302Y-35787189D01*
X83129233Y-36252736D01*
X83020000Y-36801887D01*
X66916040Y-36801887D01*
X66916040Y-36449000D01*
X66871762Y-36213683D01*
X66732690Y-35997559D01*
X66520490Y-35852569D01*
X66268600Y-35801560D01*
X64541400Y-35801560D01*
X64306083Y-35845838D01*
X64089959Y-35984910D01*
X63944969Y-36197110D01*
X63936600Y-36238439D01*
X63924670Y-36220585D01*
X63438489Y-35895729D01*
X62865000Y-35781655D01*
X62291511Y-35895729D01*
X61805330Y-36220585D01*
X61595000Y-36535366D01*
X61384670Y-36220585D01*
X60898489Y-35895729D01*
X60325000Y-35781655D01*
X59751511Y-35895729D01*
X59265330Y-36220585D01*
X59055000Y-36535366D01*
X58844670Y-36220585D01*
X58358489Y-35895729D01*
X57785000Y-35781655D01*
X57211511Y-35895729D01*
X56725330Y-36220585D01*
X56505008Y-36550320D01*
X56450360Y-36432511D01*
X56021812Y-36038232D01*
X55745149Y-35899924D01*
X55518000Y-36000857D01*
X54972000Y-36000857D01*
X54744851Y-35899924D01*
X54468188Y-36038232D01*
X54039640Y-36432511D01*
X53794597Y-36960775D01*
X33782000Y-36960775D01*
X33782000Y-33782000D01*
X130048000Y-33782000D01*
X130048000Y-36667350D01*
X130048000Y-36667350D01*
G37*
X130048000Y-36667350D02*
X130010256Y-36477603D01*
X129840090Y-36222930D01*
X128742080Y-35124920D01*
X128487408Y-34954754D01*
X128187001Y-34894999D01*
X123705006Y-34894999D01*
X123705001Y-34894998D01*
X123404595Y-34954754D01*
X123149922Y-35124920D01*
X122849396Y-35425446D01*
X122555000Y-35366887D01*
X122005849Y-35476120D01*
X121540302Y-35787189D01*
X121285000Y-36169275D01*
X121029698Y-35787189D01*
X120564151Y-35476120D01*
X120015000Y-35366887D01*
X119720604Y-35425446D01*
X118920068Y-34624910D01*
X118665396Y-34454744D01*
X118364989Y-34394989D01*
X98805011Y-34394989D01*
X98504605Y-34454744D01*
X98249932Y-34624910D01*
X98249930Y-34624913D01*
X97449396Y-35425446D01*
X97155000Y-35366887D01*
X96605849Y-35476120D01*
X96140302Y-35787189D01*
X95885000Y-36169275D01*
X95629698Y-35787189D01*
X95164151Y-35476120D01*
X94615000Y-35366887D01*
X94065849Y-35476120D01*
X93600302Y-35787189D01*
X93332056Y-36188647D01*
X93133570Y-35861126D01*
X92682219Y-35529780D01*
X92565023Y-35481259D01*
X92348000Y-35583290D01*
X92348000Y-36557000D01*
X92368000Y-36557000D01*
X92368000Y-37103000D01*
X92348000Y-37103000D01*
X92348000Y-38076710D01*
X92565023Y-38178741D01*
X92682219Y-38130220D01*
X93133570Y-37798874D01*
X93332056Y-37471353D01*
X93600302Y-37872811D01*
X94065849Y-38183880D01*
X94615000Y-38293113D01*
X95164151Y-38183880D01*
X95629698Y-37872811D01*
X95885000Y-37490725D01*
X96140302Y-37872811D01*
X96605849Y-38183880D01*
X97155000Y-38293113D01*
X97704151Y-38183880D01*
X98169698Y-37872811D01*
X98425000Y-37490725D01*
X98680302Y-37872811D01*
X99145849Y-38183880D01*
X99695000Y-38293113D01*
X100244151Y-38183880D01*
X100709698Y-37872811D01*
X100965000Y-37490725D01*
X101220302Y-37872811D01*
X101685849Y-38183880D01*
X102235000Y-38293113D01*
X102784151Y-38183880D01*
X103249698Y-37872811D01*
X103560767Y-37407264D01*
X103670000Y-36858113D01*
X103670000Y-36801887D01*
X103620769Y-36554389D01*
X103710159Y-36464999D01*
X108487011Y-36464999D01*
X108420000Y-36801887D01*
X108420000Y-36858113D01*
X108529233Y-37407264D01*
X108840302Y-37872811D01*
X109305849Y-38183880D01*
X109855000Y-38293113D01*
X110404151Y-38183880D01*
X110869698Y-37872811D01*
X111125000Y-37490725D01*
X111380302Y-37872811D01*
X111845849Y-38183880D01*
X112395000Y-38293113D01*
X112944151Y-38183880D01*
X113409698Y-37872811D01*
X113665000Y-37490725D01*
X113920302Y-37872811D01*
X114385849Y-38183880D01*
X114935000Y-38293113D01*
X115484151Y-38183880D01*
X115949698Y-37872811D01*
X116217944Y-37471353D01*
X116416430Y-37798874D01*
X116867781Y-38130220D01*
X116984977Y-38178741D01*
X117202000Y-38076710D01*
X117202000Y-37103000D01*
X117182000Y-37103000D01*
X117182000Y-36557000D01*
X117202000Y-36557000D01*
X117202000Y-36537000D01*
X117748000Y-36537000D01*
X117748000Y-36557000D01*
X117768000Y-36557000D01*
X117768000Y-37103000D01*
X117748000Y-37103000D01*
X117748000Y-38076710D01*
X117965023Y-38178741D01*
X118082219Y-38130220D01*
X118533570Y-37798874D01*
X118732056Y-37471353D01*
X119000302Y-37872811D01*
X119465849Y-38183880D01*
X120015000Y-38293113D01*
X120564151Y-38183880D01*
X121029698Y-37872811D01*
X121285000Y-37490725D01*
X121540302Y-37872811D01*
X122005849Y-38183880D01*
X122555000Y-38293113D01*
X123104151Y-38183880D01*
X123569698Y-37872811D01*
X123825000Y-37490725D01*
X124080302Y-37872811D01*
X124545849Y-38183880D01*
X125095000Y-38293113D01*
X125644151Y-38183880D01*
X126109698Y-37872811D01*
X126365000Y-37490725D01*
X126620302Y-37872811D01*
X127085849Y-38183880D01*
X127635000Y-38293113D01*
X127929396Y-38234554D01*
X128000001Y-38305159D01*
X128000001Y-43160037D01*
X127908000Y-43203290D01*
X127908000Y-44177000D01*
X127928000Y-44177000D01*
X127928000Y-44723000D01*
X127908000Y-44723000D01*
X127908000Y-45696710D01*
X128000001Y-45739963D01*
X128000001Y-52748439D01*
X127635000Y-52675836D01*
X127100391Y-52782176D01*
X126647172Y-53085008D01*
X126365000Y-53507307D01*
X126082828Y-53085008D01*
X125629609Y-52782176D01*
X125095000Y-52675836D01*
X124560391Y-52782176D01*
X124107172Y-53085008D01*
X123825000Y-53507307D01*
X123542828Y-53085008D01*
X123089609Y-52782176D01*
X122555000Y-52675836D01*
X122020391Y-52782176D01*
X121567172Y-53085008D01*
X121285000Y-53507307D01*
X121002828Y-53085008D01*
X120549609Y-52782176D01*
X120015000Y-52675836D01*
X119480391Y-52782176D01*
X119027172Y-53085008D01*
X118745000Y-53507307D01*
X118462828Y-53085008D01*
X118009609Y-52782176D01*
X117475000Y-52675836D01*
X116940391Y-52782176D01*
X116487172Y-53085008D01*
X116205000Y-53507307D01*
X115922828Y-53085008D01*
X115469609Y-52782176D01*
X114935000Y-52675836D01*
X114400391Y-52782176D01*
X113947172Y-53085008D01*
X113665000Y-53507307D01*
X113382828Y-53085008D01*
X112929609Y-52782176D01*
X112395000Y-52675836D01*
X111860391Y-52782176D01*
X111407172Y-53085008D01*
X111125000Y-53507307D01*
X110842828Y-53085008D01*
X110389609Y-52782176D01*
X109855000Y-52675836D01*
X109320391Y-52782176D01*
X108867172Y-53085008D01*
X108585000Y-53507307D01*
X108302828Y-53085008D01*
X107849609Y-52782176D01*
X107315000Y-52675836D01*
X106780391Y-52782176D01*
X106327172Y-53085008D01*
X106045000Y-53507307D01*
X105762828Y-53085008D01*
X105309609Y-52782176D01*
X104775000Y-52675836D01*
X104240391Y-52782176D01*
X103787172Y-53085008D01*
X103505000Y-53507307D01*
X103222828Y-53085008D01*
X102769609Y-52782176D01*
X102235000Y-52675836D01*
X101700391Y-52782176D01*
X101247172Y-53085008D01*
X100965000Y-53507307D01*
X100682828Y-53085008D01*
X100229609Y-52782176D01*
X99695000Y-52675836D01*
X99160391Y-52782176D01*
X98707172Y-53085008D01*
X98425000Y-53507307D01*
X98142828Y-53085008D01*
X97689609Y-52782176D01*
X97155000Y-52675836D01*
X96620391Y-52782176D01*
X96167172Y-53085008D01*
X95885000Y-53507307D01*
X95602828Y-53085008D01*
X95149609Y-52782176D01*
X94615000Y-52675836D01*
X94080391Y-52782176D01*
X93627172Y-53085008D01*
X93345000Y-53507307D01*
X93062828Y-53085008D01*
X92609609Y-52782176D01*
X92075000Y-52675836D01*
X91540391Y-52782176D01*
X91087172Y-53085008D01*
X90805000Y-53507307D01*
X90522828Y-53085008D01*
X90069609Y-52782176D01*
X89535000Y-52675836D01*
X89000391Y-52782176D01*
X88547172Y-53085008D01*
X88265000Y-53507307D01*
X87982828Y-53085008D01*
X87529609Y-52782176D01*
X86995000Y-52675836D01*
X86460391Y-52782176D01*
X86007172Y-53085008D01*
X85725000Y-53507307D01*
X85442828Y-53085008D01*
X84989609Y-52782176D01*
X84455000Y-52675836D01*
X83920391Y-52782176D01*
X83467172Y-53085008D01*
X83185000Y-53507307D01*
X82902828Y-53085008D01*
X82449609Y-52782176D01*
X81915000Y-52675836D01*
X81380391Y-52782176D01*
X80927172Y-53085008D01*
X80645000Y-53507307D01*
X80362828Y-53085008D01*
X79909609Y-52782176D01*
X79375000Y-52675836D01*
X78840391Y-52782176D01*
X78387172Y-53085008D01*
X78084340Y-53538227D01*
X77978000Y-54072836D01*
X77978000Y-55147164D01*
X78084340Y-55681773D01*
X78387172Y-56134992D01*
X78840391Y-56437824D01*
X79375000Y-56544164D01*
X79909609Y-56437824D01*
X80362828Y-56134992D01*
X80645000Y-55712693D01*
X80927172Y-56134992D01*
X81380391Y-56437824D01*
X81915000Y-56544164D01*
X82449609Y-56437824D01*
X82902828Y-56134992D01*
X83185000Y-55712693D01*
X83467172Y-56134992D01*
X83920391Y-56437824D01*
X84455000Y-56544164D01*
X84989609Y-56437824D01*
X85442828Y-56134992D01*
X85725000Y-55712693D01*
X86007172Y-56134992D01*
X86460391Y-56437824D01*
X86995000Y-56544164D01*
X87529609Y-56437824D01*
X87982828Y-56134992D01*
X88265000Y-55712693D01*
X88547172Y-56134992D01*
X89000391Y-56437824D01*
X89535000Y-56544164D01*
X90069609Y-56437824D01*
X90522828Y-56134992D01*
X90805000Y-55712693D01*
X91087172Y-56134992D01*
X91540391Y-56437824D01*
X92075000Y-56544164D01*
X92609609Y-56437824D01*
X93062828Y-56134992D01*
X93345000Y-55712693D01*
X93627172Y-56134992D01*
X94080391Y-56437824D01*
X94615000Y-56544164D01*
X95149609Y-56437824D01*
X95602828Y-56134992D01*
X95885000Y-55712693D01*
X96167172Y-56134992D01*
X96620391Y-56437824D01*
X97155000Y-56544164D01*
X97689609Y-56437824D01*
X98142828Y-56134992D01*
X98425000Y-55712693D01*
X98707172Y-56134992D01*
X99160391Y-56437824D01*
X99695000Y-56544164D01*
X100229609Y-56437824D01*
X100682828Y-56134992D01*
X100965000Y-55712693D01*
X101247172Y-56134992D01*
X101700391Y-56437824D01*
X102235000Y-56544164D01*
X102769609Y-56437824D01*
X103222828Y-56134992D01*
X103505000Y-55712693D01*
X103787172Y-56134992D01*
X104240391Y-56437824D01*
X104775000Y-56544164D01*
X105309609Y-56437824D01*
X105762828Y-56134992D01*
X106045000Y-55712693D01*
X106327172Y-56134992D01*
X106780391Y-56437824D01*
X107315000Y-56544164D01*
X107849609Y-56437824D01*
X108302828Y-56134992D01*
X108585000Y-55712693D01*
X108867172Y-56134992D01*
X109320391Y-56437824D01*
X109855000Y-56544164D01*
X110389609Y-56437824D01*
X110842828Y-56134992D01*
X111125000Y-55712693D01*
X111407172Y-56134992D01*
X111860391Y-56437824D01*
X112395000Y-56544164D01*
X112929609Y-56437824D01*
X113382828Y-56134992D01*
X113665000Y-55712693D01*
X113947172Y-56134992D01*
X114400391Y-56437824D01*
X114935000Y-56544164D01*
X115469609Y-56437824D01*
X115922828Y-56134992D01*
X116205000Y-55712693D01*
X116487172Y-56134992D01*
X116940391Y-56437824D01*
X117475000Y-56544164D01*
X118009609Y-56437824D01*
X118462828Y-56134992D01*
X118745000Y-55712693D01*
X119027172Y-56134992D01*
X119480391Y-56437824D01*
X120015000Y-56544164D01*
X120549609Y-56437824D01*
X121002828Y-56134992D01*
X121285000Y-55712693D01*
X121567172Y-56134992D01*
X122020391Y-56437824D01*
X122555000Y-56544164D01*
X123089609Y-56437824D01*
X123542828Y-56134992D01*
X123825000Y-55712693D01*
X124107172Y-56134992D01*
X124560391Y-56437824D01*
X125095000Y-56544164D01*
X125629609Y-56437824D01*
X126082828Y-56134992D01*
X126365000Y-55712693D01*
X126647172Y-56134992D01*
X127100391Y-56437824D01*
X127635000Y-56544164D01*
X128000001Y-56471561D01*
X128000001Y-67988439D01*
X127635000Y-67915836D01*
X127100391Y-68022176D01*
X126647172Y-68325008D01*
X126365000Y-68747307D01*
X126082828Y-68325008D01*
X125629609Y-68022176D01*
X125095000Y-67915836D01*
X124560391Y-68022176D01*
X124107172Y-68325008D01*
X123825000Y-68747307D01*
X123542828Y-68325008D01*
X123089609Y-68022176D01*
X122555000Y-67915836D01*
X122020391Y-68022176D01*
X121567172Y-68325008D01*
X121285000Y-68747307D01*
X121002828Y-68325008D01*
X120549609Y-68022176D01*
X120015000Y-67915836D01*
X119480391Y-68022176D01*
X119027172Y-68325008D01*
X118745000Y-68747307D01*
X118462828Y-68325008D01*
X118009609Y-68022176D01*
X117475000Y-67915836D01*
X116940391Y-68022176D01*
X116487172Y-68325008D01*
X116205000Y-68747307D01*
X115922828Y-68325008D01*
X115469609Y-68022176D01*
X114935000Y-67915836D01*
X114400391Y-68022176D01*
X113947172Y-68325008D01*
X113665000Y-68747307D01*
X113382828Y-68325008D01*
X112929609Y-68022176D01*
X112395000Y-67915836D01*
X111860391Y-68022176D01*
X111407172Y-68325008D01*
X111125000Y-68747307D01*
X110842828Y-68325008D01*
X110389609Y-68022176D01*
X109855000Y-67915836D01*
X109320391Y-68022176D01*
X108867172Y-68325008D01*
X108585000Y-68747307D01*
X108302828Y-68325008D01*
X107849609Y-68022176D01*
X107315000Y-67915836D01*
X106780391Y-68022176D01*
X106327172Y-68325008D01*
X106045000Y-68747307D01*
X105762828Y-68325008D01*
X105309609Y-68022176D01*
X104775000Y-67915836D01*
X104240391Y-68022176D01*
X103787172Y-68325008D01*
X103505000Y-68747307D01*
X103222828Y-68325008D01*
X102769609Y-68022176D01*
X102235000Y-67915836D01*
X101700391Y-68022176D01*
X101247172Y-68325008D01*
X100965000Y-68747307D01*
X100682828Y-68325008D01*
X100229609Y-68022176D01*
X99695000Y-67915836D01*
X99160391Y-68022176D01*
X98707172Y-68325008D01*
X98425000Y-68747307D01*
X98142828Y-68325008D01*
X97689609Y-68022176D01*
X97155000Y-67915836D01*
X96620391Y-68022176D01*
X96167172Y-68325008D01*
X95885000Y-68747307D01*
X95602828Y-68325008D01*
X95149609Y-68022176D01*
X94615000Y-67915836D01*
X94080391Y-68022176D01*
X93627172Y-68325008D01*
X93345000Y-68747307D01*
X93062828Y-68325008D01*
X92609609Y-68022176D01*
X92075000Y-67915836D01*
X91540391Y-68022176D01*
X91087172Y-68325008D01*
X90805000Y-68747307D01*
X90522828Y-68325008D01*
X90069609Y-68022176D01*
X89535000Y-67915836D01*
X89000391Y-68022176D01*
X88547172Y-68325008D01*
X88265000Y-68747307D01*
X87982828Y-68325008D01*
X87529609Y-68022176D01*
X86995000Y-67915836D01*
X86460391Y-68022176D01*
X86007172Y-68325008D01*
X85725000Y-68747307D01*
X85442828Y-68325008D01*
X84989609Y-68022176D01*
X84455000Y-67915836D01*
X83920391Y-68022176D01*
X83467172Y-68325008D01*
X83185000Y-68747307D01*
X82902828Y-68325008D01*
X82449609Y-68022176D01*
X81915000Y-67915836D01*
X81380391Y-68022176D01*
X80927172Y-68325008D01*
X80645000Y-68747307D01*
X80362828Y-68325008D01*
X79909609Y-68022176D01*
X79375000Y-67915836D01*
X78840391Y-68022176D01*
X78387172Y-68325008D01*
X78084340Y-68778227D01*
X77978000Y-69312836D01*
X77978000Y-70387164D01*
X78084340Y-70921773D01*
X78387172Y-71374992D01*
X78840391Y-71677824D01*
X79375000Y-71784164D01*
X79909609Y-71677824D01*
X80362828Y-71374992D01*
X80645000Y-70952693D01*
X80927172Y-71374992D01*
X81380391Y-71677824D01*
X81915000Y-71784164D01*
X82449609Y-71677824D01*
X82902828Y-71374992D01*
X83185000Y-70952693D01*
X83467172Y-71374992D01*
X83920391Y-71677824D01*
X84455000Y-71784164D01*
X84989609Y-71677824D01*
X85442828Y-71374992D01*
X85725000Y-70952693D01*
X86007172Y-71374992D01*
X86460391Y-71677824D01*
X86995000Y-71784164D01*
X87529609Y-71677824D01*
X87982828Y-71374992D01*
X88265000Y-70952693D01*
X88547172Y-71374992D01*
X89000391Y-71677824D01*
X89535000Y-71784164D01*
X90069609Y-71677824D01*
X90522828Y-71374992D01*
X90805000Y-70952693D01*
X91087172Y-71374992D01*
X91540391Y-71677824D01*
X92075000Y-71784164D01*
X92609609Y-71677824D01*
X93062828Y-71374992D01*
X93345000Y-70952693D01*
X93627172Y-71374992D01*
X94080391Y-71677824D01*
X94615000Y-71784164D01*
X95149609Y-71677824D01*
X95602828Y-71374992D01*
X95885000Y-70952693D01*
X96167172Y-71374992D01*
X96620391Y-71677824D01*
X97155000Y-71784164D01*
X97689609Y-71677824D01*
X98142828Y-71374992D01*
X98425000Y-70952693D01*
X98707172Y-71374992D01*
X99160391Y-71677824D01*
X99695000Y-71784164D01*
X100229609Y-71677824D01*
X100682828Y-71374992D01*
X100965000Y-70952693D01*
X101247172Y-71374992D01*
X101700391Y-71677824D01*
X102235000Y-71784164D01*
X102769609Y-71677824D01*
X103222828Y-71374992D01*
X103505000Y-70952693D01*
X103787172Y-71374992D01*
X104240391Y-71677824D01*
X104775000Y-71784164D01*
X105309609Y-71677824D01*
X105762828Y-71374992D01*
X106045000Y-70952693D01*
X106327172Y-71374992D01*
X106780391Y-71677824D01*
X107315000Y-71784164D01*
X107849609Y-71677824D01*
X108302828Y-71374992D01*
X108585000Y-70952693D01*
X108867172Y-71374992D01*
X109320391Y-71677824D01*
X109855000Y-71784164D01*
X110389609Y-71677824D01*
X110842828Y-71374992D01*
X111125000Y-70952693D01*
X111407172Y-71374992D01*
X111860391Y-71677824D01*
X112395000Y-71784164D01*
X112929609Y-71677824D01*
X113382828Y-71374992D01*
X113665000Y-70952693D01*
X113947172Y-71374992D01*
X114400391Y-71677824D01*
X114935000Y-71784164D01*
X115469609Y-71677824D01*
X115922828Y-71374992D01*
X116205000Y-70952693D01*
X116487172Y-71374992D01*
X116940391Y-71677824D01*
X117475000Y-71784164D01*
X118009609Y-71677824D01*
X118462828Y-71374992D01*
X118745000Y-70952693D01*
X119027172Y-71374992D01*
X119480391Y-71677824D01*
X120015000Y-71784164D01*
X120549609Y-71677824D01*
X121002828Y-71374992D01*
X121285000Y-70952693D01*
X121567172Y-71374992D01*
X122020391Y-71677824D01*
X122555000Y-71784164D01*
X123089609Y-71677824D01*
X123542828Y-71374992D01*
X123825000Y-70952693D01*
X124107172Y-71374992D01*
X124560391Y-71677824D01*
X125095000Y-71784164D01*
X125629609Y-71677824D01*
X126082828Y-71374992D01*
X126365000Y-70952693D01*
X126647172Y-71374992D01*
X127100391Y-71677824D01*
X127635000Y-71784164D01*
X128000001Y-71711561D01*
X128000001Y-83179844D01*
X123921638Y-87258207D01*
X123880767Y-87052736D01*
X123569698Y-86587189D01*
X123104151Y-86276120D01*
X122555000Y-86166887D01*
X122005849Y-86276120D01*
X121540302Y-86587189D01*
X121285000Y-86969275D01*
X121029698Y-86587189D01*
X120564151Y-86276120D01*
X120015000Y-86166887D01*
X119465849Y-86276120D01*
X119000302Y-86587189D01*
X118745000Y-86969275D01*
X118489698Y-86587189D01*
X118024151Y-86276120D01*
X117475000Y-86166887D01*
X116925849Y-86276120D01*
X116460302Y-86587189D01*
X116192056Y-86988647D01*
X115993570Y-86661126D01*
X115542219Y-86329780D01*
X115425023Y-86281259D01*
X115208000Y-86383290D01*
X115208000Y-87357000D01*
X115228000Y-87357000D01*
X115228000Y-87903000D01*
X115208000Y-87903000D01*
X115208000Y-87923000D01*
X114662000Y-87923000D01*
X114662000Y-87903000D01*
X114642000Y-87903000D01*
X114642000Y-87357000D01*
X114662000Y-87357000D01*
X114662000Y-86383290D01*
X114444977Y-86281259D01*
X114327781Y-86329780D01*
X113876430Y-86661126D01*
X113677944Y-86988647D01*
X113409698Y-86587189D01*
X112944151Y-86276120D01*
X112395000Y-86166887D01*
X111845849Y-86276120D01*
X111380302Y-86587189D01*
X111125000Y-86969275D01*
X110869698Y-86587189D01*
X110404151Y-86276120D01*
X109855000Y-86166887D01*
X109305849Y-86276120D01*
X108840302Y-86587189D01*
X108585000Y-86969275D01*
X108329698Y-86587189D01*
X107864151Y-86276120D01*
X107315000Y-86166887D01*
X106765849Y-86276120D01*
X106300302Y-86587189D01*
X106045000Y-86969275D01*
X105789698Y-86587189D01*
X105324151Y-86276120D01*
X104775000Y-86166887D01*
X104225849Y-86276120D01*
X103760302Y-86587189D01*
X103449233Y-87052736D01*
X103340000Y-87601887D01*
X103340000Y-87658113D01*
X103389231Y-87905611D01*
X103299841Y-87995001D01*
X98522989Y-87995001D01*
X98590000Y-87658113D01*
X98590000Y-87601887D01*
X98480767Y-87052736D01*
X98169698Y-86587189D01*
X97704151Y-86276120D01*
X97155000Y-86166887D01*
X96605849Y-86276120D01*
X96140302Y-86587189D01*
X95885000Y-86969275D01*
X95629698Y-86587189D01*
X95164151Y-86276120D01*
X94615000Y-86166887D01*
X94065849Y-86276120D01*
X93600302Y-86587189D01*
X93345000Y-86969275D01*
X93089698Y-86587189D01*
X92624151Y-86276120D01*
X92075000Y-86166887D01*
X91525849Y-86276120D01*
X91060302Y-86587189D01*
X90792056Y-86988647D01*
X90593570Y-86661126D01*
X90142219Y-86329780D01*
X90025023Y-86281259D01*
X89808000Y-86383290D01*
X89808000Y-87357000D01*
X89828000Y-87357000D01*
X89828000Y-87903000D01*
X89808000Y-87903000D01*
X89808000Y-87923000D01*
X89262000Y-87923000D01*
X89262000Y-87903000D01*
X89242000Y-87903000D01*
X89242000Y-87357000D01*
X89262000Y-87357000D01*
X89262000Y-86383290D01*
X89044977Y-86281259D01*
X88927781Y-86329780D01*
X88476430Y-86661126D01*
X88277944Y-86988647D01*
X88009698Y-86587189D01*
X87544151Y-86276120D01*
X86995000Y-86166887D01*
X86445849Y-86276120D01*
X85980302Y-86587189D01*
X85725000Y-86969275D01*
X85469698Y-86587189D01*
X85004151Y-86276120D01*
X84455000Y-86166887D01*
X83905849Y-86276120D01*
X83440302Y-86587189D01*
X83185000Y-86969275D01*
X82929698Y-86587189D01*
X82464151Y-86276120D01*
X81915000Y-86166887D01*
X81365849Y-86276120D01*
X80900302Y-86587189D01*
X80645000Y-86969275D01*
X80389698Y-86587189D01*
X79924151Y-86276120D01*
X79375000Y-86166887D01*
X79303089Y-86181191D01*
X81122527Y-84361753D01*
X81292693Y-84107081D01*
X81352448Y-83806674D01*
X81352448Y-83619653D01*
X81359640Y-83612474D01*
X81502286Y-83268946D01*
X81502610Y-82896980D01*
X81360565Y-82553204D01*
X81097775Y-82289955D01*
X80754247Y-82147309D01*
X80382281Y-82146985D01*
X80140528Y-82246875D01*
X79949216Y-82167435D01*
X79577250Y-82167111D01*
X79233474Y-82309156D01*
X78970225Y-82571946D01*
X78827579Y-82915474D01*
X78827255Y-83287440D01*
X78845522Y-83331651D01*
X77051567Y-85125606D01*
X77041405Y-85125597D01*
X76697629Y-85267642D01*
X76434380Y-85530432D01*
X76291734Y-85873960D01*
X76291410Y-86245926D01*
X76433455Y-86589702D01*
X76696245Y-86852951D01*
X77039773Y-86995597D01*
X77411739Y-86995921D01*
X77755515Y-86853876D01*
X77810048Y-86799438D01*
X77823287Y-86812700D01*
X78125711Y-86938278D01*
X78049233Y-87052736D01*
X77940000Y-87601887D01*
X77940000Y-87658113D01*
X78049233Y-88207264D01*
X78360302Y-88672811D01*
X78825849Y-88983880D01*
X79375000Y-89093113D01*
X79924151Y-88983880D01*
X80389698Y-88672811D01*
X80645000Y-88290725D01*
X80900302Y-88672811D01*
X81365849Y-88983880D01*
X81915000Y-89093113D01*
X82464151Y-88983880D01*
X82929698Y-88672811D01*
X83185000Y-88290725D01*
X83440302Y-88672811D01*
X83905849Y-88983880D01*
X84455000Y-89093113D01*
X85004151Y-88983880D01*
X85469698Y-88672811D01*
X85725000Y-88290725D01*
X85980302Y-88672811D01*
X86445849Y-88983880D01*
X86995000Y-89093113D01*
X87289396Y-89034554D01*
X88089932Y-89835090D01*
X88344605Y-90005256D01*
X88645011Y-90065011D01*
X108204989Y-90065011D01*
X108505396Y-90005256D01*
X108760068Y-89835090D01*
X109560603Y-89034554D01*
X109855000Y-89093113D01*
X110404151Y-88983880D01*
X110869698Y-88672811D01*
X111125000Y-88290725D01*
X111380302Y-88672811D01*
X111845849Y-88983880D01*
X112395000Y-89093113D01*
X112689396Y-89034554D01*
X113489932Y-89835090D01*
X113744605Y-90005256D01*
X114045011Y-90065011D01*
X123717113Y-90065011D01*
X124017520Y-90005256D01*
X124272192Y-89835090D01*
X129840090Y-84267192D01*
X130010256Y-84012519D01*
X130048000Y-83822769D01*
X130048000Y-90730000D01*
X33782000Y-90730000D01*
X33782000Y-84226400D01*
X34683960Y-84226400D01*
X34683960Y-85953600D01*
X34728238Y-86188917D01*
X34867310Y-86405041D01*
X35079510Y-86550031D01*
X35123345Y-86558908D01*
X34810474Y-87027152D01*
X34696400Y-87600641D01*
X34696400Y-87659359D01*
X34810474Y-88232848D01*
X35135330Y-88719029D01*
X35621511Y-89043885D01*
X36195000Y-89157959D01*
X36768489Y-89043885D01*
X37254670Y-88719029D01*
X37465000Y-88404248D01*
X37675330Y-88719029D01*
X38161511Y-89043885D01*
X38735000Y-89157959D01*
X39308489Y-89043885D01*
X39794670Y-88719029D01*
X40005000Y-88404248D01*
X40215330Y-88719029D01*
X40701511Y-89043885D01*
X41275000Y-89157959D01*
X41848489Y-89043885D01*
X42334670Y-88719029D01*
X42545000Y-88404248D01*
X42755330Y-88719029D01*
X43241511Y-89043885D01*
X43815000Y-89157959D01*
X44388489Y-89043885D01*
X44874670Y-88719029D01*
X45095764Y-88388138D01*
X45241238Y-88632696D01*
X45709733Y-88982589D01*
X45854851Y-89042676D01*
X46082000Y-88941743D01*
X46082000Y-87903000D01*
X46062000Y-87903000D01*
X46062000Y-87357000D01*
X46082000Y-87357000D01*
X46082000Y-85363000D01*
X46062000Y-85363000D01*
X46062000Y-84817000D01*
X46082000Y-84817000D01*
X46082000Y-83778257D01*
X46628000Y-83778257D01*
X46628000Y-84817000D01*
X46648000Y-84817000D01*
X46648000Y-85363000D01*
X46628000Y-85363000D01*
X46628000Y-87357000D01*
X46648000Y-87357000D01*
X46648000Y-87903000D01*
X46628000Y-87903000D01*
X46628000Y-88941743D01*
X46855149Y-89042676D01*
X47000267Y-88982589D01*
X47468762Y-88632696D01*
X47614236Y-88388138D01*
X47835330Y-88719029D01*
X48321511Y-89043885D01*
X48895000Y-89157959D01*
X49468489Y-89043885D01*
X49726380Y-88871567D01*
X65819513Y-88871567D01*
X65929543Y-89120488D01*
X66556673Y-89292306D01*
X67201817Y-89211051D01*
X67420457Y-89120488D01*
X67530487Y-88871567D01*
X66675000Y-88016080D01*
X65819513Y-88871567D01*
X49726380Y-88871567D01*
X49954670Y-88719029D01*
X50279526Y-88232848D01*
X50393600Y-87659359D01*
X50393600Y-87600641D01*
X50375904Y-87511673D01*
X65012694Y-87511673D01*
X65093949Y-88156817D01*
X65184512Y-88375457D01*
X65433433Y-88485487D01*
X66288920Y-87630000D01*
X67061080Y-87630000D01*
X67916567Y-88485487D01*
X68165488Y-88375457D01*
X68281040Y-87953694D01*
X72660226Y-87953694D01*
X72908538Y-88554655D01*
X73367927Y-89014846D01*
X73968453Y-89264206D01*
X74618694Y-89264774D01*
X75219655Y-89016462D01*
X75679846Y-88557073D01*
X75929206Y-87956547D01*
X75929774Y-87306306D01*
X75681462Y-86705345D01*
X75222073Y-86245154D01*
X74621547Y-85995794D01*
X73971306Y-85995226D01*
X73370345Y-86243538D01*
X72910154Y-86702927D01*
X72660794Y-87303453D01*
X72660226Y-87953694D01*
X68281040Y-87953694D01*
X68337306Y-87748327D01*
X68256051Y-87103183D01*
X68165488Y-86884543D01*
X67916567Y-86774513D01*
X67061080Y-87630000D01*
X66288920Y-87630000D01*
X65433433Y-86774513D01*
X65184512Y-86884543D01*
X65012694Y-87511673D01*
X50375904Y-87511673D01*
X50279526Y-87027152D01*
X49954670Y-86540971D01*
X49726381Y-86388433D01*
X65819513Y-86388433D01*
X66675000Y-87243920D01*
X67530487Y-86388433D01*
X67420457Y-86139512D01*
X66793327Y-85967694D01*
X66148183Y-86048949D01*
X65929543Y-86139512D01*
X65819513Y-86388433D01*
X49726381Y-86388433D01*
X49683828Y-86360000D01*
X49954670Y-86179029D01*
X50279526Y-85692848D01*
X50393600Y-85119359D01*
X50393600Y-85060641D01*
X50279526Y-84487152D01*
X49954670Y-84000971D01*
X49468489Y-83676115D01*
X48895000Y-83562041D01*
X48321511Y-83676115D01*
X47835330Y-84000971D01*
X47614236Y-84331862D01*
X47468762Y-84087304D01*
X47000267Y-83737411D01*
X46855149Y-83677324D01*
X46628000Y-83778257D01*
X46082000Y-83778257D01*
X45854851Y-83677324D01*
X45709733Y-83737411D01*
X45241238Y-84087304D01*
X45095764Y-84331862D01*
X44874670Y-84000971D01*
X44388489Y-83676115D01*
X43815000Y-83562041D01*
X43241511Y-83676115D01*
X42755330Y-84000971D01*
X42545000Y-84315752D01*
X42334670Y-84000971D01*
X41848489Y-83676115D01*
X41275000Y-83562041D01*
X40701511Y-83676115D01*
X40215330Y-84000971D01*
X40005000Y-84315752D01*
X39794670Y-84000971D01*
X39308489Y-83676115D01*
X38735000Y-83562041D01*
X38161511Y-83676115D01*
X37675330Y-84000971D01*
X37666195Y-84014642D01*
X37661762Y-83991083D01*
X37522690Y-83774959D01*
X37310490Y-83629969D01*
X37058600Y-83578960D01*
X35331400Y-83578960D01*
X35096083Y-83623238D01*
X34879959Y-83762310D01*
X34734969Y-83974510D01*
X34683960Y-84226400D01*
X33782000Y-84226400D01*
X33782000Y-81603694D01*
X51070226Y-81603694D01*
X51318538Y-82204655D01*
X51777927Y-82664846D01*
X52378453Y-82914206D01*
X53028694Y-82914774D01*
X53629655Y-82666462D01*
X54089846Y-82207073D01*
X54339206Y-81606547D01*
X54339208Y-81603694D01*
X58690226Y-81603694D01*
X58938538Y-82204655D01*
X59397927Y-82664846D01*
X59998453Y-82914206D01*
X60648694Y-82914774D01*
X61249655Y-82666462D01*
X61394802Y-82521567D01*
X65819513Y-82521567D01*
X65929543Y-82770488D01*
X66556673Y-82942306D01*
X67201817Y-82861051D01*
X67420457Y-82770488D01*
X67530487Y-82521567D01*
X66675000Y-81666080D01*
X65819513Y-82521567D01*
X61394802Y-82521567D01*
X61709846Y-82207073D01*
X61959206Y-81606547D01*
X61959594Y-81161673D01*
X65012694Y-81161673D01*
X65093949Y-81806817D01*
X65184512Y-82025457D01*
X65433433Y-82135487D01*
X66288920Y-81280000D01*
X67061080Y-81280000D01*
X67916567Y-82135487D01*
X68165488Y-82025457D01*
X68281040Y-81603694D01*
X72660226Y-81603694D01*
X72908538Y-82204655D01*
X73367927Y-82664846D01*
X73968453Y-82914206D01*
X74618694Y-82914774D01*
X75219655Y-82666462D01*
X75679846Y-82207073D01*
X75929206Y-81606547D01*
X75929774Y-80956306D01*
X75741243Y-80500026D01*
X78026237Y-80500026D01*
X78316430Y-80978874D01*
X78767781Y-81310220D01*
X78884977Y-81358741D01*
X79102000Y-81256710D01*
X79102000Y-80283000D01*
X78124936Y-80283000D01*
X78026237Y-80500026D01*
X75741243Y-80500026D01*
X75681462Y-80355345D01*
X75222073Y-79895154D01*
X74621547Y-79645794D01*
X73971306Y-79645226D01*
X73370345Y-79893538D01*
X72910154Y-80352927D01*
X72660794Y-80953453D01*
X72660226Y-81603694D01*
X68281040Y-81603694D01*
X68337306Y-81398327D01*
X68256051Y-80753183D01*
X68165488Y-80534543D01*
X67916567Y-80424513D01*
X67061080Y-81280000D01*
X66288920Y-81280000D01*
X65433433Y-80424513D01*
X65184512Y-80534543D01*
X65012694Y-81161673D01*
X61959594Y-81161673D01*
X61959774Y-80956306D01*
X61711462Y-80355345D01*
X61395103Y-80038433D01*
X65819513Y-80038433D01*
X66675000Y-80893920D01*
X67530487Y-80038433D01*
X67420457Y-79789512D01*
X66793327Y-79617694D01*
X66148183Y-79698949D01*
X65929543Y-79789512D01*
X65819513Y-80038433D01*
X61395103Y-80038433D01*
X61252073Y-79895154D01*
X60651547Y-79645794D01*
X60001306Y-79645226D01*
X59400345Y-79893538D01*
X58940154Y-80352927D01*
X58690794Y-80953453D01*
X58690226Y-81603694D01*
X54339208Y-81603694D01*
X54339774Y-80956306D01*
X54091462Y-80355345D01*
X53632073Y-79895154D01*
X53031547Y-79645794D01*
X52381306Y-79645226D01*
X51780345Y-79893538D01*
X51320154Y-80352927D01*
X51070794Y-80953453D01*
X51070226Y-81603694D01*
X33782000Y-81603694D01*
X33782000Y-79519974D01*
X78026237Y-79519974D01*
X78124936Y-79737000D01*
X79102000Y-79737000D01*
X79102000Y-78763290D01*
X79648000Y-78763290D01*
X79648000Y-79737000D01*
X79668000Y-79737000D01*
X79668000Y-80283000D01*
X79648000Y-80283000D01*
X79648000Y-81256710D01*
X79865023Y-81358741D01*
X79982219Y-81310220D01*
X80433570Y-80978874D01*
X80632056Y-80651353D01*
X80900302Y-81052811D01*
X81365849Y-81363880D01*
X81915000Y-81473113D01*
X82464151Y-81363880D01*
X82929698Y-81052811D01*
X83185000Y-80670725D01*
X83440302Y-81052811D01*
X83905849Y-81363880D01*
X84455000Y-81473113D01*
X85004151Y-81363880D01*
X85469698Y-81052811D01*
X85725000Y-80670725D01*
X85980302Y-81052811D01*
X86445849Y-81363880D01*
X86995000Y-81473113D01*
X87544151Y-81363880D01*
X88009698Y-81052811D01*
X88265000Y-80670725D01*
X88520302Y-81052811D01*
X88985849Y-81363880D01*
X89535000Y-81473113D01*
X90084151Y-81363880D01*
X90549698Y-81052811D01*
X90805000Y-80670725D01*
X91060302Y-81052811D01*
X91525849Y-81363880D01*
X92075000Y-81473113D01*
X92624151Y-81363880D01*
X93089698Y-81052811D01*
X93345000Y-80670725D01*
X93600302Y-81052811D01*
X94065849Y-81363880D01*
X94615000Y-81473113D01*
X95164151Y-81363880D01*
X95629698Y-81052811D01*
X95885000Y-80670725D01*
X96140302Y-81052811D01*
X96605849Y-81363880D01*
X97155000Y-81473113D01*
X97704151Y-81363880D01*
X98169698Y-81052811D01*
X98480767Y-80587264D01*
X98498119Y-80500026D01*
X103426237Y-80500026D01*
X103716430Y-80978874D01*
X104167781Y-81310220D01*
X104284977Y-81358741D01*
X104502000Y-81256710D01*
X104502000Y-80283000D01*
X103524936Y-80283000D01*
X103426237Y-80500026D01*
X98498119Y-80500026D01*
X98590000Y-80038113D01*
X98590000Y-79981887D01*
X98498120Y-79519974D01*
X103426237Y-79519974D01*
X103524936Y-79737000D01*
X104502000Y-79737000D01*
X104502000Y-78763290D01*
X105048000Y-78763290D01*
X105048000Y-79737000D01*
X105068000Y-79737000D01*
X105068000Y-80283000D01*
X105048000Y-80283000D01*
X105048000Y-81256710D01*
X105265023Y-81358741D01*
X105382219Y-81310220D01*
X105833570Y-80978874D01*
X106032056Y-80651353D01*
X106300302Y-81052811D01*
X106765849Y-81363880D01*
X107315000Y-81473113D01*
X107864151Y-81363880D01*
X108329698Y-81052811D01*
X108585000Y-80670725D01*
X108840302Y-81052811D01*
X109305849Y-81363880D01*
X109855000Y-81473113D01*
X110404151Y-81363880D01*
X110869698Y-81052811D01*
X111125000Y-80670725D01*
X111380302Y-81052811D01*
X111845849Y-81363880D01*
X112395000Y-81473113D01*
X112944151Y-81363880D01*
X113409698Y-81052811D01*
X113665000Y-80670725D01*
X113920302Y-81052811D01*
X114385849Y-81363880D01*
X114935000Y-81473113D01*
X115484151Y-81363880D01*
X115949698Y-81052811D01*
X116205000Y-80670725D01*
X116460302Y-81052811D01*
X116925849Y-81363880D01*
X117475000Y-81473113D01*
X118024151Y-81363880D01*
X118489698Y-81052811D01*
X118745000Y-80670725D01*
X119000302Y-81052811D01*
X119465849Y-81363880D01*
X120015000Y-81473113D01*
X120564151Y-81363880D01*
X121029698Y-81052811D01*
X121285000Y-80670725D01*
X121540302Y-81052811D01*
X122005849Y-81363880D01*
X122555000Y-81473113D01*
X123104151Y-81363880D01*
X123569698Y-81052811D01*
X123880767Y-80587264D01*
X123990000Y-80038113D01*
X123990000Y-79981887D01*
X123880767Y-79432736D01*
X123569698Y-78967189D01*
X123104151Y-78656120D01*
X122555000Y-78546887D01*
X122005849Y-78656120D01*
X121540302Y-78967189D01*
X121285000Y-79349275D01*
X121029698Y-78967189D01*
X120564151Y-78656120D01*
X120015000Y-78546887D01*
X119465849Y-78656120D01*
X119000302Y-78967189D01*
X118745000Y-79349275D01*
X118489698Y-78967189D01*
X118024151Y-78656120D01*
X117475000Y-78546887D01*
X116925849Y-78656120D01*
X116460302Y-78967189D01*
X116205000Y-79349275D01*
X115949698Y-78967189D01*
X115484151Y-78656120D01*
X114935000Y-78546887D01*
X114385849Y-78656120D01*
X113920302Y-78967189D01*
X113665000Y-79349275D01*
X113409698Y-78967189D01*
X112944151Y-78656120D01*
X112395000Y-78546887D01*
X111845849Y-78656120D01*
X111380302Y-78967189D01*
X111125000Y-79349275D01*
X110869698Y-78967189D01*
X110404151Y-78656120D01*
X109855000Y-78546887D01*
X109305849Y-78656120D01*
X108840302Y-78967189D01*
X108585000Y-79349275D01*
X108329698Y-78967189D01*
X107864151Y-78656120D01*
X107315000Y-78546887D01*
X106765849Y-78656120D01*
X106300302Y-78967189D01*
X106032056Y-79368647D01*
X105833570Y-79041126D01*
X105382219Y-78709780D01*
X105265023Y-78661259D01*
X105048000Y-78763290D01*
X104502000Y-78763290D01*
X104284977Y-78661259D01*
X104167781Y-78709780D01*
X103716430Y-79041126D01*
X103426237Y-79519974D01*
X98498120Y-79519974D01*
X98480767Y-79432736D01*
X98169698Y-78967189D01*
X97704151Y-78656120D01*
X97155000Y-78546887D01*
X96605849Y-78656120D01*
X96140302Y-78967189D01*
X95885000Y-79349275D01*
X95629698Y-78967189D01*
X95164151Y-78656120D01*
X94615000Y-78546887D01*
X94065849Y-78656120D01*
X93600302Y-78967189D01*
X93345000Y-79349275D01*
X93089698Y-78967189D01*
X92624151Y-78656120D01*
X92075000Y-78546887D01*
X91525849Y-78656120D01*
X91060302Y-78967189D01*
X90805000Y-79349275D01*
X90549698Y-78967189D01*
X90084151Y-78656120D01*
X89535000Y-78546887D01*
X88985849Y-78656120D01*
X88520302Y-78967189D01*
X88265000Y-79349275D01*
X88009698Y-78967189D01*
X87544151Y-78656120D01*
X86995000Y-78546887D01*
X86445849Y-78656120D01*
X85980302Y-78967189D01*
X85725000Y-79349275D01*
X85469698Y-78967189D01*
X85004151Y-78656120D01*
X84455000Y-78546887D01*
X83905849Y-78656120D01*
X83440302Y-78967189D01*
X83185000Y-79349275D01*
X82929698Y-78967189D01*
X82464151Y-78656120D01*
X81915000Y-78546887D01*
X81365849Y-78656120D01*
X80900302Y-78967189D01*
X80632056Y-79368647D01*
X80433570Y-79041126D01*
X79982219Y-78709780D01*
X79865023Y-78661259D01*
X79648000Y-78763290D01*
X79102000Y-78763290D01*
X78884977Y-78661259D01*
X78767781Y-78709780D01*
X78316430Y-79041126D01*
X78026237Y-79519974D01*
X33782000Y-79519974D01*
X33782000Y-78711567D01*
X51849513Y-78711567D01*
X51959543Y-78960488D01*
X52586673Y-79132306D01*
X53231817Y-79051051D01*
X53450457Y-78960488D01*
X53560487Y-78711567D01*
X52705000Y-77856080D01*
X51849513Y-78711567D01*
X33782000Y-78711567D01*
X33782000Y-77351673D01*
X51042694Y-77351673D01*
X51123949Y-77996817D01*
X51214512Y-78215457D01*
X51463433Y-78325487D01*
X52318920Y-77470000D01*
X53091080Y-77470000D01*
X53946567Y-78325487D01*
X54195488Y-78215457D01*
X54311040Y-77793694D01*
X58690226Y-77793694D01*
X58938538Y-78394655D01*
X59397927Y-78854846D01*
X59998453Y-79104206D01*
X60648694Y-79104774D01*
X61249655Y-78856462D01*
X61709846Y-78397073D01*
X61959206Y-77796547D01*
X61959208Y-77793694D01*
X65040226Y-77793694D01*
X65288538Y-78394655D01*
X65747927Y-78854846D01*
X66348453Y-79104206D01*
X66998694Y-79104774D01*
X67599655Y-78856462D01*
X68059846Y-78397073D01*
X68309206Y-77796547D01*
X68309208Y-77793694D01*
X72660226Y-77793694D01*
X72908538Y-78394655D01*
X73367927Y-78854846D01*
X73968453Y-79104206D01*
X74618694Y-79104774D01*
X75219655Y-78856462D01*
X75679846Y-78397073D01*
X75929206Y-77796547D01*
X75929774Y-77146306D01*
X75681462Y-76545345D01*
X75222073Y-76085154D01*
X74621547Y-75835794D01*
X73971306Y-75835226D01*
X73370345Y-76083538D01*
X72910154Y-76542927D01*
X72660794Y-77143453D01*
X72660226Y-77793694D01*
X68309208Y-77793694D01*
X68309774Y-77146306D01*
X68061462Y-76545345D01*
X67602073Y-76085154D01*
X67001547Y-75835794D01*
X66351306Y-75835226D01*
X65750345Y-76083538D01*
X65290154Y-76542927D01*
X65040794Y-77143453D01*
X65040226Y-77793694D01*
X61959208Y-77793694D01*
X61959774Y-77146306D01*
X61711462Y-76545345D01*
X61252073Y-76085154D01*
X60651547Y-75835794D01*
X60001306Y-75835226D01*
X59400345Y-76083538D01*
X58940154Y-76542927D01*
X58690794Y-77143453D01*
X58690226Y-77793694D01*
X54311040Y-77793694D01*
X54367306Y-77588327D01*
X54286051Y-76943183D01*
X54195488Y-76724543D01*
X53946567Y-76614513D01*
X53091080Y-77470000D01*
X52318920Y-77470000D01*
X51463433Y-76614513D01*
X51214512Y-76724543D01*
X51042694Y-77351673D01*
X33782000Y-77351673D01*
X33782000Y-76228433D01*
X51849513Y-76228433D01*
X52705000Y-77083920D01*
X53560487Y-76228433D01*
X53450457Y-75979512D01*
X52823327Y-75807694D01*
X52178183Y-75888949D01*
X51959543Y-75979512D01*
X51849513Y-76228433D01*
X33782000Y-76228433D01*
X33782000Y-72880023D01*
X34846259Y-72880023D01*
X34894780Y-72997219D01*
X35226126Y-73448570D01*
X35704974Y-73738763D01*
X35922000Y-73640064D01*
X35922000Y-72663000D01*
X36468000Y-72663000D01*
X36468000Y-73640064D01*
X36685026Y-73738763D01*
X37163874Y-73448570D01*
X37495220Y-72997219D01*
X37543741Y-72880023D01*
X37441710Y-72663000D01*
X36468000Y-72663000D01*
X35922000Y-72663000D01*
X34948290Y-72663000D01*
X34846259Y-72880023D01*
X33782000Y-72880023D01*
X33782000Y-57150000D01*
X34731887Y-57150000D01*
X34841120Y-57699151D01*
X35152189Y-58164698D01*
X35534275Y-58420000D01*
X35152189Y-58675302D01*
X34841120Y-59140849D01*
X34731887Y-59690000D01*
X34841120Y-60239151D01*
X35152189Y-60704698D01*
X35534275Y-60960000D01*
X35152189Y-61215302D01*
X34841120Y-61680849D01*
X34731887Y-62230000D01*
X34841120Y-62779151D01*
X35152189Y-63244698D01*
X35534275Y-63500000D01*
X35152189Y-63755302D01*
X34841120Y-64220849D01*
X34731887Y-64770000D01*
X34841120Y-65319151D01*
X35152189Y-65784698D01*
X35534275Y-66040000D01*
X35152189Y-66295302D01*
X34841120Y-66760849D01*
X34731887Y-67310000D01*
X34841120Y-67859151D01*
X35152189Y-68324698D01*
X35534275Y-68580000D01*
X35152189Y-68835302D01*
X34841120Y-69300849D01*
X34731887Y-69850000D01*
X34841120Y-70399151D01*
X35152189Y-70864698D01*
X35553647Y-71132944D01*
X35226126Y-71331430D01*
X34894780Y-71782781D01*
X34846259Y-71899977D01*
X34948290Y-72117000D01*
X35922000Y-72117000D01*
X35922000Y-72097000D01*
X36468000Y-72097000D01*
X36468000Y-72117000D01*
X37441710Y-72117000D01*
X37543741Y-71899977D01*
X37495220Y-71782781D01*
X37163874Y-71331430D01*
X36836353Y-71132944D01*
X37237811Y-70864698D01*
X37548880Y-70399151D01*
X37658113Y-69850000D01*
X37548880Y-69300849D01*
X37237811Y-68835302D01*
X36855725Y-68580000D01*
X37237811Y-68324698D01*
X37548880Y-67859151D01*
X37658113Y-67310000D01*
X37548880Y-66760849D01*
X37530384Y-66733167D01*
X40720838Y-66733167D01*
X40862883Y-67076943D01*
X41125673Y-67340192D01*
X41469201Y-67482838D01*
X41841167Y-67483162D01*
X42184943Y-67341117D01*
X42385526Y-67140883D01*
X42351887Y-67310000D01*
X42461120Y-67859151D01*
X42772189Y-68324698D01*
X43154275Y-68580000D01*
X42772189Y-68835302D01*
X42461120Y-69300849D01*
X42351887Y-69850000D01*
X42461120Y-70399151D01*
X42772189Y-70864698D01*
X43154275Y-71120000D01*
X42772189Y-71375302D01*
X42461120Y-71840849D01*
X42351887Y-72390000D01*
X42461120Y-72939151D01*
X42772189Y-73404698D01*
X43237736Y-73715767D01*
X43786887Y-73825000D01*
X43843113Y-73825000D01*
X44392264Y-73715767D01*
X44857811Y-73404698D01*
X45168880Y-72939151D01*
X45180641Y-72880023D01*
X51356259Y-72880023D01*
X51404780Y-72997219D01*
X51736126Y-73448570D01*
X52214974Y-73738763D01*
X52432000Y-73640064D01*
X52432000Y-72663000D01*
X52978000Y-72663000D01*
X52978000Y-73640064D01*
X53195026Y-73738763D01*
X53673874Y-73448570D01*
X54005220Y-72997219D01*
X54053741Y-72880023D01*
X53951710Y-72663000D01*
X52978000Y-72663000D01*
X52432000Y-72663000D01*
X51458290Y-72663000D01*
X51356259Y-72880023D01*
X45180641Y-72880023D01*
X45278113Y-72390000D01*
X45168880Y-71840849D01*
X44857811Y-71375302D01*
X44475725Y-71120000D01*
X44857811Y-70864698D01*
X45168880Y-70399151D01*
X45278113Y-69850000D01*
X45168880Y-69300849D01*
X44857811Y-68835302D01*
X44475725Y-68580000D01*
X44857811Y-68324698D01*
X45168880Y-67859151D01*
X45278113Y-67310000D01*
X45168880Y-66760849D01*
X44857811Y-66295302D01*
X44475725Y-66040000D01*
X44857811Y-65784698D01*
X45168880Y-65319151D01*
X45278113Y-64770000D01*
X51241887Y-64770000D01*
X51351120Y-65319151D01*
X51662189Y-65784698D01*
X52044275Y-66040000D01*
X51662189Y-66295302D01*
X51351120Y-66760849D01*
X51241887Y-67310000D01*
X51351120Y-67859151D01*
X51662189Y-68324698D01*
X52044275Y-68580000D01*
X51662189Y-68835302D01*
X51351120Y-69300849D01*
X51241887Y-69850000D01*
X51351120Y-70399151D01*
X51662189Y-70864698D01*
X52063647Y-71132944D01*
X51736126Y-71331430D01*
X51404780Y-71782781D01*
X51356259Y-71899977D01*
X51458290Y-72117000D01*
X52432000Y-72117000D01*
X52432000Y-72097000D01*
X52978000Y-72097000D01*
X52978000Y-72117000D01*
X53951710Y-72117000D01*
X54053741Y-71899977D01*
X54005220Y-71782781D01*
X53673874Y-71331430D01*
X53346353Y-71132944D01*
X53747811Y-70864698D01*
X54058880Y-70399151D01*
X54168113Y-69850000D01*
X54058880Y-69300849D01*
X53747811Y-68835302D01*
X53365725Y-68580000D01*
X53747811Y-68324698D01*
X54058880Y-67859151D01*
X54168113Y-67310000D01*
X54058880Y-66760849D01*
X53747811Y-66295302D01*
X53365725Y-66040000D01*
X53473502Y-65967985D01*
X57129536Y-65967985D01*
X57271581Y-66311761D01*
X57534371Y-66575010D01*
X57877899Y-66717656D01*
X57889388Y-66717666D01*
X58177299Y-67005577D01*
X58177299Y-67990914D01*
X58170107Y-67998093D01*
X58027461Y-68341621D01*
X58027137Y-68713587D01*
X58169182Y-69057363D01*
X58431972Y-69320612D01*
X58775500Y-69463258D01*
X58938787Y-69463400D01*
X58861887Y-69850000D01*
X58971120Y-70399151D01*
X59282189Y-70864698D01*
X59664275Y-71120000D01*
X59282189Y-71375302D01*
X58971120Y-71840849D01*
X58861887Y-72390000D01*
X58971120Y-72939151D01*
X59282189Y-73404698D01*
X59747736Y-73715767D01*
X60296887Y-73825000D01*
X60353113Y-73825000D01*
X60902264Y-73715767D01*
X61367811Y-73404698D01*
X61678880Y-72939151D01*
X61690641Y-72880023D01*
X65326259Y-72880023D01*
X65374780Y-72997219D01*
X65706126Y-73448570D01*
X66184974Y-73738763D01*
X66402000Y-73640064D01*
X66402000Y-72663000D01*
X66948000Y-72663000D01*
X66948000Y-73640064D01*
X67165026Y-73738763D01*
X67643874Y-73448570D01*
X67975220Y-72997219D01*
X68023741Y-72880023D01*
X67921710Y-72663000D01*
X66948000Y-72663000D01*
X66402000Y-72663000D01*
X65428290Y-72663000D01*
X65326259Y-72880023D01*
X61690641Y-72880023D01*
X61788113Y-72390000D01*
X61678880Y-71840849D01*
X61367811Y-71375302D01*
X60985725Y-71120000D01*
X61367811Y-70864698D01*
X61678880Y-70399151D01*
X61788113Y-69850000D01*
X61678880Y-69300849D01*
X61367811Y-68835302D01*
X60985725Y-68580000D01*
X61367811Y-68324698D01*
X61678880Y-67859151D01*
X61788113Y-67310000D01*
X61678880Y-66760849D01*
X61367811Y-66295302D01*
X60985725Y-66040000D01*
X61367811Y-65784698D01*
X61678880Y-65319151D01*
X61788113Y-64770000D01*
X61690642Y-64279977D01*
X65326259Y-64279977D01*
X65428290Y-64497000D01*
X66402000Y-64497000D01*
X66402000Y-63519936D01*
X66184974Y-63421237D01*
X65706126Y-63711430D01*
X65374780Y-64162781D01*
X65326259Y-64279977D01*
X61690642Y-64279977D01*
X61678880Y-64220849D01*
X61367811Y-63755302D01*
X60902264Y-63444233D01*
X60353113Y-63335000D01*
X60296887Y-63335000D01*
X59747736Y-63444233D01*
X59282189Y-63755302D01*
X58971120Y-64220849D01*
X58861887Y-64770000D01*
X58971120Y-65319151D01*
X59282189Y-65784698D01*
X59664275Y-66040000D01*
X59523297Y-66134199D01*
X59517378Y-66125340D01*
X58999851Y-65607813D01*
X58999860Y-65597651D01*
X58857815Y-65253875D01*
X58595025Y-64990626D01*
X58251497Y-64847980D01*
X57879531Y-64847656D01*
X57535755Y-64989701D01*
X57272506Y-65252491D01*
X57129860Y-65596019D01*
X57129536Y-65967985D01*
X53473502Y-65967985D01*
X53747811Y-65784698D01*
X54058880Y-65319151D01*
X54168113Y-64770000D01*
X54058880Y-64220849D01*
X53747811Y-63755302D01*
X53282264Y-63444233D01*
X52733113Y-63335000D01*
X52676887Y-63335000D01*
X52127736Y-63444233D01*
X51662189Y-63755302D01*
X51351120Y-64220849D01*
X51241887Y-64770000D01*
X45278113Y-64770000D01*
X45168880Y-64220849D01*
X44857811Y-63755302D01*
X44475725Y-63500000D01*
X44857811Y-63244698D01*
X45168880Y-62779151D01*
X45278113Y-62230000D01*
X45168880Y-61680849D01*
X44857811Y-61215302D01*
X44475725Y-60960000D01*
X44857811Y-60704698D01*
X45168880Y-60239151D01*
X45278113Y-59690000D01*
X45168880Y-59140849D01*
X44903510Y-58743694D01*
X65040226Y-58743694D01*
X65288538Y-59344655D01*
X65747927Y-59804846D01*
X66348453Y-60054206D01*
X66998694Y-60054774D01*
X67040001Y-60037706D01*
X67040001Y-63478096D01*
X66948000Y-63519936D01*
X66948000Y-64497000D01*
X66968000Y-64497000D01*
X66968000Y-65043000D01*
X66948000Y-65043000D01*
X66948000Y-65063000D01*
X66402000Y-65063000D01*
X66402000Y-65043000D01*
X65428290Y-65043000D01*
X65326259Y-65260023D01*
X65374780Y-65377219D01*
X65706126Y-65828570D01*
X66033647Y-66027056D01*
X65632189Y-66295302D01*
X65321120Y-66760849D01*
X65211887Y-67310000D01*
X65321120Y-67859151D01*
X65632189Y-68324698D01*
X66014275Y-68580000D01*
X65632189Y-68835302D01*
X65321120Y-69300849D01*
X65211887Y-69850000D01*
X65321120Y-70399151D01*
X65632189Y-70864698D01*
X66033647Y-71132944D01*
X65706126Y-71331430D01*
X65374780Y-71782781D01*
X65326259Y-71899977D01*
X65428290Y-72117000D01*
X66402000Y-72117000D01*
X66402000Y-72097000D01*
X66948000Y-72097000D01*
X66948000Y-72117000D01*
X67921710Y-72117000D01*
X68023741Y-71899977D01*
X67975220Y-71782781D01*
X67643874Y-71331430D01*
X67316353Y-71132944D01*
X67717811Y-70864698D01*
X68028880Y-70399151D01*
X68138113Y-69850000D01*
X68028880Y-69300849D01*
X67717811Y-68835302D01*
X67335725Y-68580000D01*
X67717811Y-68324698D01*
X68028880Y-67859151D01*
X68138113Y-67310000D01*
X68079554Y-67015604D01*
X68380080Y-66715078D01*
X68550246Y-66460405D01*
X68610002Y-66159999D01*
X68610001Y-66159994D01*
X68610001Y-64770000D01*
X72831887Y-64770000D01*
X72941120Y-65319151D01*
X73252189Y-65784698D01*
X73634275Y-66040000D01*
X73252189Y-66295302D01*
X72941120Y-66760849D01*
X72831887Y-67310000D01*
X72941120Y-67859151D01*
X73252189Y-68324698D01*
X73634275Y-68580000D01*
X73252189Y-68835302D01*
X72941120Y-69300849D01*
X72831887Y-69850000D01*
X72941120Y-70399151D01*
X73252189Y-70864698D01*
X73634275Y-71120000D01*
X73252189Y-71375302D01*
X72941120Y-71840849D01*
X72831887Y-72390000D01*
X72941120Y-72939151D01*
X73252189Y-73404698D01*
X73717736Y-73715767D01*
X74266887Y-73825000D01*
X74323113Y-73825000D01*
X74872264Y-73715767D01*
X75337811Y-73404698D01*
X75648880Y-72939151D01*
X75758113Y-72390000D01*
X75648880Y-71840849D01*
X75337811Y-71375302D01*
X74955725Y-71120000D01*
X75337811Y-70864698D01*
X75648880Y-70399151D01*
X75758113Y-69850000D01*
X75648880Y-69300849D01*
X75337811Y-68835302D01*
X74955725Y-68580000D01*
X75337811Y-68324698D01*
X75648880Y-67859151D01*
X75758113Y-67310000D01*
X75648880Y-66760849D01*
X75337811Y-66295302D01*
X74955725Y-66040000D01*
X75337811Y-65784698D01*
X75648880Y-65319151D01*
X75758113Y-64770000D01*
X75648880Y-64220849D01*
X75337811Y-63755302D01*
X74872264Y-63444233D01*
X74323113Y-63335000D01*
X74266887Y-63335000D01*
X73717736Y-63444233D01*
X73252189Y-63755302D01*
X72941120Y-64220849D01*
X72831887Y-64770000D01*
X68610001Y-64770000D01*
X68610001Y-62161167D01*
X76788838Y-62161167D01*
X76930883Y-62504943D01*
X76939000Y-62513074D01*
X76939000Y-66010494D01*
X76931808Y-66017673D01*
X76789162Y-66361201D01*
X76788838Y-66733167D01*
X76930883Y-67076943D01*
X77193673Y-67340192D01*
X77537201Y-67482838D01*
X77909167Y-67483162D01*
X78252943Y-67341117D01*
X78516192Y-67078327D01*
X78658838Y-66734799D01*
X78659071Y-66466930D01*
X78925167Y-66467162D01*
X79268943Y-66325117D01*
X79532192Y-66062327D01*
X79674838Y-65718799D01*
X79675162Y-65346833D01*
X79533117Y-65003057D01*
X79525000Y-64994926D01*
X79525000Y-61497506D01*
X79532192Y-61490327D01*
X79674838Y-61146799D01*
X79675162Y-60774833D01*
X79533117Y-60431057D01*
X79270327Y-60167808D01*
X78926799Y-60025162D01*
X78554833Y-60024838D01*
X78211057Y-60166883D01*
X77947808Y-60429673D01*
X77805162Y-60773201D01*
X77804929Y-61041070D01*
X77538833Y-61040838D01*
X77195057Y-61182883D01*
X76931808Y-61445673D01*
X76789162Y-61789201D01*
X76788838Y-62161167D01*
X68610001Y-62161167D01*
X68610001Y-59570001D01*
X68550246Y-59269594D01*
X68380080Y-59014922D01*
X68251258Y-58886100D01*
X68309206Y-58746547D01*
X68309208Y-58743694D01*
X72660226Y-58743694D01*
X72908538Y-59344655D01*
X73367927Y-59804846D01*
X73968453Y-60054206D01*
X74618694Y-60054774D01*
X75219655Y-59806462D01*
X75679846Y-59347073D01*
X75929206Y-58746547D01*
X75929774Y-58096306D01*
X75681462Y-57495345D01*
X75222073Y-57035154D01*
X74621547Y-56785794D01*
X73971306Y-56785226D01*
X73370345Y-57033538D01*
X72910154Y-57492927D01*
X72660794Y-58093453D01*
X72660226Y-58743694D01*
X68309208Y-58743694D01*
X68309774Y-58096306D01*
X68061462Y-57495345D01*
X67602073Y-57035154D01*
X67001547Y-56785794D01*
X66351306Y-56785226D01*
X65750345Y-57033538D01*
X65290154Y-57492927D01*
X65040794Y-58093453D01*
X65040226Y-58743694D01*
X44903510Y-58743694D01*
X44857811Y-58675302D01*
X44475725Y-58420000D01*
X44857811Y-58164698D01*
X45168880Y-57699151D01*
X45278113Y-57150000D01*
X45168880Y-56600849D01*
X45068086Y-56450000D01*
X50468560Y-56450000D01*
X50468560Y-57850000D01*
X50512838Y-58085317D01*
X50651910Y-58301441D01*
X50864110Y-58446431D01*
X51116000Y-58497440D01*
X52516000Y-58497440D01*
X52751317Y-58453162D01*
X52967441Y-58314090D01*
X53112431Y-58101890D01*
X53163440Y-57850000D01*
X53163440Y-57414383D01*
X60480769Y-57414383D01*
X60683582Y-57905229D01*
X61058796Y-58281098D01*
X61549287Y-58484768D01*
X62080383Y-58485231D01*
X62571229Y-58282418D01*
X62947098Y-57907204D01*
X63150768Y-57416713D01*
X63151231Y-56885617D01*
X62948418Y-56394771D01*
X62573204Y-56018902D01*
X62082713Y-55815232D01*
X61551617Y-55814769D01*
X61060771Y-56017582D01*
X60684902Y-56392796D01*
X60481232Y-56883287D01*
X60480769Y-57414383D01*
X53163440Y-57414383D01*
X53163440Y-56450000D01*
X53119162Y-56214683D01*
X52980090Y-55998559D01*
X52767890Y-55853569D01*
X52516000Y-55802560D01*
X51116000Y-55802560D01*
X50880683Y-55846838D01*
X50664559Y-55985910D01*
X50519569Y-56198110D01*
X50468560Y-56450000D01*
X45068086Y-56450000D01*
X44857811Y-56135302D01*
X44392264Y-55824233D01*
X43843113Y-55715000D01*
X43786887Y-55715000D01*
X43237736Y-55824233D01*
X42772189Y-56135302D01*
X42461120Y-56600849D01*
X42351887Y-57150000D01*
X42418098Y-57482863D01*
X42193661Y-57258034D01*
X41850133Y-57115388D01*
X41478167Y-57115064D01*
X41134391Y-57257109D01*
X40871142Y-57519899D01*
X40728496Y-57863427D01*
X40728172Y-58235393D01*
X40870217Y-58579169D01*
X40871000Y-58579953D01*
X40871000Y-66010494D01*
X40863808Y-66017673D01*
X40721162Y-66361201D01*
X40720838Y-66733167D01*
X37530384Y-66733167D01*
X37237811Y-66295302D01*
X36855725Y-66040000D01*
X37237811Y-65784698D01*
X37548880Y-65319151D01*
X37658113Y-64770000D01*
X37548880Y-64220849D01*
X37237811Y-63755302D01*
X36855725Y-63500000D01*
X37237811Y-63244698D01*
X37548880Y-62779151D01*
X37658113Y-62230000D01*
X37548880Y-61680849D01*
X37237811Y-61215302D01*
X36855725Y-60960000D01*
X37237811Y-60704698D01*
X37548880Y-60239151D01*
X37658113Y-59690000D01*
X37548880Y-59140849D01*
X37237811Y-58675302D01*
X36855725Y-58420000D01*
X37237811Y-58164698D01*
X37548880Y-57699151D01*
X37658113Y-57150000D01*
X37548880Y-56600849D01*
X37237811Y-56135302D01*
X36772264Y-55824233D01*
X36223113Y-55715000D01*
X36166887Y-55715000D01*
X35617736Y-55824233D01*
X35152189Y-56135302D01*
X34841120Y-56600849D01*
X34731887Y-57150000D01*
X33782000Y-57150000D01*
X33782000Y-54933694D01*
X65040226Y-54933694D01*
X65288538Y-55534655D01*
X65747927Y-55994846D01*
X66348453Y-56244206D01*
X66998694Y-56244774D01*
X67599655Y-55996462D01*
X68059846Y-55537073D01*
X68309206Y-54936547D01*
X68309208Y-54933694D01*
X72660226Y-54933694D01*
X72908538Y-55534655D01*
X73367927Y-55994846D01*
X73968453Y-56244206D01*
X74618694Y-56244774D01*
X75219655Y-55996462D01*
X75679846Y-55537073D01*
X75929206Y-54936547D01*
X75929774Y-54286306D01*
X75681462Y-53685345D01*
X75222073Y-53225154D01*
X74621547Y-52975794D01*
X73971306Y-52975226D01*
X73370345Y-53223538D01*
X72910154Y-53682927D01*
X72660794Y-54283453D01*
X72660226Y-54933694D01*
X68309208Y-54933694D01*
X68309774Y-54286306D01*
X68061462Y-53685345D01*
X67602073Y-53225154D01*
X67001547Y-52975794D01*
X66351306Y-52975226D01*
X65750345Y-53223538D01*
X65290154Y-53682927D01*
X65040794Y-54283453D01*
X65040226Y-54933694D01*
X33782000Y-54933694D01*
X33782000Y-51123694D01*
X34560226Y-51123694D01*
X34808538Y-51724655D01*
X35267927Y-52184846D01*
X35868453Y-52434206D01*
X36518694Y-52434774D01*
X37119655Y-52186462D01*
X37579846Y-51727073D01*
X37829206Y-51126547D01*
X37829208Y-51123694D01*
X42180226Y-51123694D01*
X42428538Y-51724655D01*
X42887927Y-52184846D01*
X43488453Y-52434206D01*
X44138694Y-52434774D01*
X44739655Y-52186462D01*
X45199846Y-51727073D01*
X45449206Y-51126547D01*
X45449515Y-50771887D01*
X48730000Y-50771887D01*
X48730000Y-50828113D01*
X48839233Y-51377264D01*
X49150302Y-51842811D01*
X49615849Y-52153880D01*
X50165000Y-52263113D01*
X50714151Y-52153880D01*
X51179698Y-51842811D01*
X51435000Y-51460725D01*
X51690302Y-51842811D01*
X52155849Y-52153880D01*
X52705000Y-52263113D01*
X53254151Y-52153880D01*
X53719698Y-51842811D01*
X53975000Y-51460725D01*
X54230302Y-51842811D01*
X54695849Y-52153880D01*
X55245000Y-52263113D01*
X55794151Y-52153880D01*
X56259698Y-51842811D01*
X56515000Y-51460725D01*
X56770302Y-51842811D01*
X57235849Y-52153880D01*
X57785000Y-52263113D01*
X58334151Y-52153880D01*
X58799698Y-51842811D01*
X59055000Y-51460725D01*
X59310302Y-51842811D01*
X59775849Y-52153880D01*
X60325000Y-52263113D01*
X60874151Y-52153880D01*
X61339698Y-51842811D01*
X61595000Y-51460725D01*
X61850302Y-51842811D01*
X62315849Y-52153880D01*
X62865000Y-52263113D01*
X63414151Y-52153880D01*
X63879698Y-51842811D01*
X64135000Y-51460725D01*
X64390302Y-51842811D01*
X64855849Y-52153880D01*
X65405000Y-52263113D01*
X65954151Y-52153880D01*
X66419698Y-51842811D01*
X66730767Y-51377264D01*
X66840000Y-50828113D01*
X66840000Y-50771887D01*
X66730767Y-50222736D01*
X66419698Y-49757189D01*
X65954151Y-49446120D01*
X65405000Y-49336887D01*
X64855849Y-49446120D01*
X64390302Y-49757189D01*
X64135000Y-50139275D01*
X63879698Y-49757189D01*
X63414151Y-49446120D01*
X62865000Y-49336887D01*
X62315849Y-49446120D01*
X61850302Y-49757189D01*
X61595000Y-50139275D01*
X61339698Y-49757189D01*
X60874151Y-49446120D01*
X60325000Y-49336887D01*
X59775849Y-49446120D01*
X59310302Y-49757189D01*
X59055000Y-50139275D01*
X58799698Y-49757189D01*
X58334151Y-49446120D01*
X57785000Y-49336887D01*
X57235849Y-49446120D01*
X56770302Y-49757189D01*
X56515000Y-50139275D01*
X56259698Y-49757189D01*
X55794151Y-49446120D01*
X55245000Y-49336887D01*
X54695849Y-49446120D01*
X54230302Y-49757189D01*
X53975000Y-50139275D01*
X53719698Y-49757189D01*
X53254151Y-49446120D01*
X52705000Y-49336887D01*
X52155849Y-49446120D01*
X51690302Y-49757189D01*
X51435000Y-50139275D01*
X51179698Y-49757189D01*
X50714151Y-49446120D01*
X50165000Y-49336887D01*
X49615849Y-49446120D01*
X49150302Y-49757189D01*
X48839233Y-50222736D01*
X48730000Y-50771887D01*
X45449515Y-50771887D01*
X45449774Y-50476306D01*
X45201462Y-49875345D01*
X44742073Y-49415154D01*
X44141547Y-49165794D01*
X43491306Y-49165226D01*
X42890345Y-49413538D01*
X42430154Y-49872927D01*
X42180794Y-50473453D01*
X42180226Y-51123694D01*
X37829208Y-51123694D01*
X37829774Y-50476306D01*
X37581462Y-49875345D01*
X37122073Y-49415154D01*
X36521547Y-49165794D01*
X35871306Y-49165226D01*
X35270345Y-49413538D01*
X34810154Y-49872927D01*
X34560794Y-50473453D01*
X34560226Y-51123694D01*
X33782000Y-51123694D01*
X33782000Y-43503694D01*
X34560226Y-43503694D01*
X34808538Y-44104655D01*
X35267927Y-44564846D01*
X35868453Y-44814206D01*
X36518694Y-44814774D01*
X37119655Y-44566462D01*
X37264802Y-44421567D01*
X42959513Y-44421567D01*
X43069543Y-44670488D01*
X43696673Y-44842306D01*
X44341817Y-44761051D01*
X44560457Y-44670488D01*
X44670487Y-44421567D01*
X43815000Y-43566080D01*
X42959513Y-44421567D01*
X37264802Y-44421567D01*
X37579846Y-44107073D01*
X37829206Y-43506547D01*
X37829594Y-43061673D01*
X42152694Y-43061673D01*
X42233949Y-43706817D01*
X42324512Y-43925457D01*
X42573433Y-44035487D01*
X43428920Y-43180000D01*
X44201080Y-43180000D01*
X45056567Y-44035487D01*
X45305488Y-43925457D01*
X45477306Y-43298327D01*
X45458863Y-43151887D01*
X48730000Y-43151887D01*
X48730000Y-43208113D01*
X48839233Y-43757264D01*
X49150302Y-44222811D01*
X49615849Y-44533880D01*
X50165000Y-44643113D01*
X50714151Y-44533880D01*
X51179698Y-44222811D01*
X51435000Y-43840725D01*
X51690302Y-44222811D01*
X52155849Y-44533880D01*
X52705000Y-44643113D01*
X53254151Y-44533880D01*
X53719698Y-44222811D01*
X53975000Y-43840725D01*
X54230302Y-44222811D01*
X54695849Y-44533880D01*
X55245000Y-44643113D01*
X55794151Y-44533880D01*
X56259698Y-44222811D01*
X56515000Y-43840725D01*
X56770302Y-44222811D01*
X57235849Y-44533880D01*
X57785000Y-44643113D01*
X58334151Y-44533880D01*
X58799698Y-44222811D01*
X59055000Y-43840725D01*
X59310302Y-44222811D01*
X59775849Y-44533880D01*
X60325000Y-44643113D01*
X60874151Y-44533880D01*
X61339698Y-44222811D01*
X61595000Y-43840725D01*
X61850302Y-44222811D01*
X62315849Y-44533880D01*
X62865000Y-44643113D01*
X63414151Y-44533880D01*
X63879698Y-44222811D01*
X64135000Y-43840725D01*
X64390302Y-44222811D01*
X64855849Y-44533880D01*
X65405000Y-44643113D01*
X65954151Y-44533880D01*
X66121760Y-44421887D01*
X83020000Y-44421887D01*
X83020000Y-44478113D01*
X83129233Y-45027264D01*
X83440302Y-45492811D01*
X83905849Y-45803880D01*
X84455000Y-45913113D01*
X85004151Y-45803880D01*
X85469698Y-45492811D01*
X85725000Y-45110725D01*
X85980302Y-45492811D01*
X86445849Y-45803880D01*
X86995000Y-45913113D01*
X87544151Y-45803880D01*
X88009698Y-45492811D01*
X88265000Y-45110725D01*
X88520302Y-45492811D01*
X88985849Y-45803880D01*
X89535000Y-45913113D01*
X90084151Y-45803880D01*
X90549698Y-45492811D01*
X90805000Y-45110725D01*
X91060302Y-45492811D01*
X91525849Y-45803880D01*
X92075000Y-45913113D01*
X92624151Y-45803880D01*
X93089698Y-45492811D01*
X93345000Y-45110725D01*
X93600302Y-45492811D01*
X94065849Y-45803880D01*
X94615000Y-45913113D01*
X95164151Y-45803880D01*
X95629698Y-45492811D01*
X95885000Y-45110725D01*
X96140302Y-45492811D01*
X96605849Y-45803880D01*
X97155000Y-45913113D01*
X97704151Y-45803880D01*
X98169698Y-45492811D01*
X98425000Y-45110725D01*
X98680302Y-45492811D01*
X99145849Y-45803880D01*
X99695000Y-45913113D01*
X100244151Y-45803880D01*
X100709698Y-45492811D01*
X100977944Y-45091353D01*
X101176430Y-45418874D01*
X101627781Y-45750220D01*
X101744977Y-45798741D01*
X101962000Y-45696710D01*
X101962000Y-44723000D01*
X102508000Y-44723000D01*
X102508000Y-45696710D01*
X102725023Y-45798741D01*
X102842219Y-45750220D01*
X103293570Y-45418874D01*
X103583763Y-44940026D01*
X103485064Y-44723000D01*
X102508000Y-44723000D01*
X101962000Y-44723000D01*
X101942000Y-44723000D01*
X101942000Y-44421887D01*
X108420000Y-44421887D01*
X108420000Y-44478113D01*
X108529233Y-45027264D01*
X108840302Y-45492811D01*
X109305849Y-45803880D01*
X109855000Y-45913113D01*
X110404151Y-45803880D01*
X110869698Y-45492811D01*
X111125000Y-45110725D01*
X111380302Y-45492811D01*
X111845849Y-45803880D01*
X112395000Y-45913113D01*
X112944151Y-45803880D01*
X113409698Y-45492811D01*
X113665000Y-45110725D01*
X113920302Y-45492811D01*
X114385849Y-45803880D01*
X114935000Y-45913113D01*
X115484151Y-45803880D01*
X115949698Y-45492811D01*
X116205000Y-45110725D01*
X116460302Y-45492811D01*
X116925849Y-45803880D01*
X117475000Y-45913113D01*
X118024151Y-45803880D01*
X118489698Y-45492811D01*
X118745000Y-45110725D01*
X119000302Y-45492811D01*
X119465849Y-45803880D01*
X120015000Y-45913113D01*
X120564151Y-45803880D01*
X121029698Y-45492811D01*
X121285000Y-45110725D01*
X121540302Y-45492811D01*
X122005849Y-45803880D01*
X122555000Y-45913113D01*
X123104151Y-45803880D01*
X123569698Y-45492811D01*
X123825000Y-45110725D01*
X124080302Y-45492811D01*
X124545849Y-45803880D01*
X125095000Y-45913113D01*
X125644151Y-45803880D01*
X126109698Y-45492811D01*
X126377944Y-45091353D01*
X126576430Y-45418874D01*
X127027781Y-45750220D01*
X127144977Y-45798741D01*
X127362000Y-45696710D01*
X127362000Y-44723000D01*
X127342000Y-44723000D01*
X127342000Y-44177000D01*
X127362000Y-44177000D01*
X127362000Y-43203290D01*
X127144977Y-43101259D01*
X127027781Y-43149780D01*
X126576430Y-43481126D01*
X126377944Y-43808647D01*
X126109698Y-43407189D01*
X125644151Y-43096120D01*
X125095000Y-42986887D01*
X124545849Y-43096120D01*
X124080302Y-43407189D01*
X123825000Y-43789275D01*
X123569698Y-43407189D01*
X123104151Y-43096120D01*
X122555000Y-42986887D01*
X122005849Y-43096120D01*
X121540302Y-43407189D01*
X121285000Y-43789275D01*
X121029698Y-43407189D01*
X120564151Y-43096120D01*
X120015000Y-42986887D01*
X119465849Y-43096120D01*
X119000302Y-43407189D01*
X118745000Y-43789275D01*
X118489698Y-43407189D01*
X118024151Y-43096120D01*
X117475000Y-42986887D01*
X116925849Y-43096120D01*
X116460302Y-43407189D01*
X116205000Y-43789275D01*
X115949698Y-43407189D01*
X115484151Y-43096120D01*
X114935000Y-42986887D01*
X114385849Y-43096120D01*
X113920302Y-43407189D01*
X113665000Y-43789275D01*
X113409698Y-43407189D01*
X112944151Y-43096120D01*
X112395000Y-42986887D01*
X111845849Y-43096120D01*
X111380302Y-43407189D01*
X111125000Y-43789275D01*
X110869698Y-43407189D01*
X110404151Y-43096120D01*
X109855000Y-42986887D01*
X109305849Y-43096120D01*
X108840302Y-43407189D01*
X108529233Y-43872736D01*
X108420000Y-44421887D01*
X101942000Y-44421887D01*
X101942000Y-44177000D01*
X101962000Y-44177000D01*
X101962000Y-43203290D01*
X102508000Y-43203290D01*
X102508000Y-44177000D01*
X103485064Y-44177000D01*
X103583763Y-43959974D01*
X103293570Y-43481126D01*
X102842219Y-43149780D01*
X102725023Y-43101259D01*
X102508000Y-43203290D01*
X101962000Y-43203290D01*
X101744977Y-43101259D01*
X101627781Y-43149780D01*
X101176430Y-43481126D01*
X100977944Y-43808647D01*
X100709698Y-43407189D01*
X100244151Y-43096120D01*
X99695000Y-42986887D01*
X99145849Y-43096120D01*
X98680302Y-43407189D01*
X98425000Y-43789275D01*
X98169698Y-43407189D01*
X97704151Y-43096120D01*
X97155000Y-42986887D01*
X96605849Y-43096120D01*
X96140302Y-43407189D01*
X95885000Y-43789275D01*
X95629698Y-43407189D01*
X95164151Y-43096120D01*
X94615000Y-42986887D01*
X94065849Y-43096120D01*
X93600302Y-43407189D01*
X93345000Y-43789275D01*
X93089698Y-43407189D01*
X92624151Y-43096120D01*
X92075000Y-42986887D01*
X91525849Y-43096120D01*
X91060302Y-43407189D01*
X90805000Y-43789275D01*
X90549698Y-43407189D01*
X90084151Y-43096120D01*
X89535000Y-42986887D01*
X88985849Y-43096120D01*
X88520302Y-43407189D01*
X88265000Y-43789275D01*
X88009698Y-43407189D01*
X87544151Y-43096120D01*
X86995000Y-42986887D01*
X86445849Y-43096120D01*
X85980302Y-43407189D01*
X85725000Y-43789275D01*
X85469698Y-43407189D01*
X85004151Y-43096120D01*
X84455000Y-42986887D01*
X83905849Y-43096120D01*
X83440302Y-43407189D01*
X83129233Y-43872736D01*
X83020000Y-44421887D01*
X66121760Y-44421887D01*
X66419698Y-44222811D01*
X66730767Y-43757264D01*
X66840000Y-43208113D01*
X66840000Y-43151887D01*
X66730767Y-42602736D01*
X66419698Y-42137189D01*
X65954151Y-41826120D01*
X65405000Y-41716887D01*
X64855849Y-41826120D01*
X64390302Y-42137189D01*
X64135000Y-42519275D01*
X63879698Y-42137189D01*
X63414151Y-41826120D01*
X62865000Y-41716887D01*
X62315849Y-41826120D01*
X61850302Y-42137189D01*
X61595000Y-42519275D01*
X61339698Y-42137189D01*
X60874151Y-41826120D01*
X60325000Y-41716887D01*
X59775849Y-41826120D01*
X59310302Y-42137189D01*
X59055000Y-42519275D01*
X58799698Y-42137189D01*
X58334151Y-41826120D01*
X57785000Y-41716887D01*
X57235849Y-41826120D01*
X56770302Y-42137189D01*
X56515000Y-42519275D01*
X56259698Y-42137189D01*
X55794151Y-41826120D01*
X55245000Y-41716887D01*
X54695849Y-41826120D01*
X54230302Y-42137189D01*
X53975000Y-42519275D01*
X53719698Y-42137189D01*
X53254151Y-41826120D01*
X52705000Y-41716887D01*
X52155849Y-41826120D01*
X51690302Y-42137189D01*
X51435000Y-42519275D01*
X51179698Y-42137189D01*
X50714151Y-41826120D01*
X50165000Y-41716887D01*
X49615849Y-41826120D01*
X49150302Y-42137189D01*
X48839233Y-42602736D01*
X48730000Y-43151887D01*
X45458863Y-43151887D01*
X45396051Y-42653183D01*
X45305488Y-42434543D01*
X45056567Y-42324513D01*
X44201080Y-43180000D01*
X43428920Y-43180000D01*
X42573433Y-42324513D01*
X42324512Y-42434543D01*
X42152694Y-43061673D01*
X37829594Y-43061673D01*
X37829774Y-42856306D01*
X37581462Y-42255345D01*
X37265103Y-41938433D01*
X42959513Y-41938433D01*
X43815000Y-42793920D01*
X44670487Y-41938433D01*
X44560457Y-41689512D01*
X43933327Y-41517694D01*
X43288183Y-41598949D01*
X43069543Y-41689512D01*
X42959513Y-41938433D01*
X37265103Y-41938433D01*
X37122073Y-41795154D01*
X36521547Y-41545794D01*
X35871306Y-41545226D01*
X35270345Y-41793538D01*
X34810154Y-42252927D01*
X34560794Y-42853453D01*
X34560226Y-43503694D01*
X33782000Y-43503694D01*
X33782000Y-37969225D01*
X53794597Y-37969225D01*
X54039640Y-38497489D01*
X54468188Y-38891768D01*
X54744851Y-39030076D01*
X54972000Y-38929143D01*
X54972000Y-37738000D01*
X53916166Y-37738000D01*
X53794597Y-37969225D01*
X33782000Y-37969225D01*
X33782000Y-36960775D01*
X53794597Y-36960775D01*
X53916166Y-37192000D01*
X54972000Y-37192000D01*
X54972000Y-36000857D01*
X55518000Y-36000857D01*
X55518000Y-37192000D01*
X55538000Y-37192000D01*
X55538000Y-37738000D01*
X55518000Y-37738000D01*
X55518000Y-38929143D01*
X55745149Y-39030076D01*
X56021812Y-38891768D01*
X56450360Y-38497489D01*
X56505008Y-38379680D01*
X56725330Y-38709415D01*
X57211511Y-39034271D01*
X57785000Y-39148345D01*
X58358489Y-39034271D01*
X58844670Y-38709415D01*
X59055000Y-38394634D01*
X59265330Y-38709415D01*
X59751511Y-39034271D01*
X60325000Y-39148345D01*
X60898489Y-39034271D01*
X61384670Y-38709415D01*
X61595000Y-38394634D01*
X61805330Y-38709415D01*
X62291511Y-39034271D01*
X62865000Y-39148345D01*
X63438489Y-39034271D01*
X63924670Y-38709415D01*
X63934243Y-38695087D01*
X63938238Y-38716317D01*
X64077310Y-38932441D01*
X64289510Y-39077431D01*
X64541400Y-39128440D01*
X66268600Y-39128440D01*
X66503917Y-39084162D01*
X66720041Y-38945090D01*
X66865031Y-38732890D01*
X66916040Y-38481000D01*
X66916040Y-36801887D01*
X83020000Y-36801887D01*
X83020000Y-36858113D01*
X83129233Y-37407264D01*
X83440302Y-37872811D01*
X83905849Y-38183880D01*
X84455000Y-38293113D01*
X85004151Y-38183880D01*
X85469698Y-37872811D01*
X85725000Y-37490725D01*
X85980302Y-37872811D01*
X86445849Y-38183880D01*
X86995000Y-38293113D01*
X87544151Y-38183880D01*
X88009698Y-37872811D01*
X88265000Y-37490725D01*
X88520302Y-37872811D01*
X88985849Y-38183880D01*
X89535000Y-38293113D01*
X90084151Y-38183880D01*
X90549698Y-37872811D01*
X90817944Y-37471353D01*
X91016430Y-37798874D01*
X91467781Y-38130220D01*
X91584977Y-38178741D01*
X91802000Y-38076710D01*
X91802000Y-37103000D01*
X91782000Y-37103000D01*
X91782000Y-36557000D01*
X91802000Y-36557000D01*
X91802000Y-35583290D01*
X91584977Y-35481259D01*
X91467781Y-35529780D01*
X91016430Y-35861126D01*
X90817944Y-36188647D01*
X90549698Y-35787189D01*
X90084151Y-35476120D01*
X89535000Y-35366887D01*
X88985849Y-35476120D01*
X88520302Y-35787189D01*
X88265000Y-36169275D01*
X88009698Y-35787189D01*
X87544151Y-35476120D01*
X86995000Y-35366887D01*
X86445849Y-35476120D01*
X85980302Y-35787189D01*
X85725000Y-36169275D01*
X85469698Y-35787189D01*
X85004151Y-35476120D01*
X84455000Y-35366887D01*
X83905849Y-35476120D01*
X83440302Y-35787189D01*
X83129233Y-36252736D01*
X83020000Y-36801887D01*
X66916040Y-36801887D01*
X66916040Y-36449000D01*
X66871762Y-36213683D01*
X66732690Y-35997559D01*
X66520490Y-35852569D01*
X66268600Y-35801560D01*
X64541400Y-35801560D01*
X64306083Y-35845838D01*
X64089959Y-35984910D01*
X63944969Y-36197110D01*
X63936600Y-36238439D01*
X63924670Y-36220585D01*
X63438489Y-35895729D01*
X62865000Y-35781655D01*
X62291511Y-35895729D01*
X61805330Y-36220585D01*
X61595000Y-36535366D01*
X61384670Y-36220585D01*
X60898489Y-35895729D01*
X60325000Y-35781655D01*
X59751511Y-35895729D01*
X59265330Y-36220585D01*
X59055000Y-36535366D01*
X58844670Y-36220585D01*
X58358489Y-35895729D01*
X57785000Y-35781655D01*
X57211511Y-35895729D01*
X56725330Y-36220585D01*
X56505008Y-36550320D01*
X56450360Y-36432511D01*
X56021812Y-36038232D01*
X55745149Y-35899924D01*
X55518000Y-36000857D01*
X54972000Y-36000857D01*
X54744851Y-35899924D01*
X54468188Y-36038232D01*
X54039640Y-36432511D01*
X53794597Y-36960775D01*
X33782000Y-36960775D01*
X33782000Y-33782000D01*
X130048000Y-33782000D01*
X130048000Y-36667350D01*
M02*
