M48
;DRILL file {KiCad 4.0.4-stable} date Friday, December 09, 2016 'AMt' 01:33:53 AM
;FORMAT={-:-/ absolute / inch / decimal}
FMAT,2
INCH,TZ
T1C0.016
T2C0.031
T3C0.039
T4C0.040
%
G90
G05
M72
T1
X1.64Y-2.62
X1.6403Y-2.2854
X1.74Y-2.12
X2.286Y-2.5899
X2.3214Y-2.698
X2.42Y-2.36
X2.94Y-2.46
X3.0404Y-3.3882
X3.06Y-2.44
X3.06Y-2.62
X3.0848Y-3.3866
X3.1Y-2.4
X3.1Y-2.58
X3.1403Y-3.2717
X3.1719Y-3.271
X3.2Y-1.56
X3.96Y-3.36
X4.2Y-1.56
X4.96Y-3.36
T2
X1.425Y-2.25
X1.425Y-2.35
X1.425Y-2.45
X1.425Y-2.55
X1.425Y-2.65
X1.425Y-2.75
X1.425Y-2.85
X1.725Y-2.25
X1.725Y-2.35
X1.725Y-2.45
X1.725Y-2.55
X1.725Y-2.65
X1.725Y-2.75
X1.725Y-2.85
X1.975Y-1.7
X1.975Y-2.
X2.04Y-2.25
X2.075Y-1.7
X2.075Y-2.
X2.075Y-2.55
X2.075Y-2.65
X2.075Y-2.75
X2.075Y-2.85
X2.175Y-1.7
X2.175Y-2.
X2.275Y-1.7
X2.275Y-2.
X2.375Y-1.7
X2.375Y-2.
X2.375Y-2.55
X2.375Y-2.65
X2.375Y-2.75
X2.375Y-2.85
X2.4337Y-2.25
X2.475Y-1.7
X2.475Y-2.
X2.575Y-1.7
X2.575Y-2.
X2.625Y-2.55
X2.625Y-2.65
X2.625Y-2.75
X2.625Y-2.85
X2.925Y-2.55
X2.925Y-2.65
X2.925Y-2.75
X2.925Y-2.85
X3.125Y-2.15
X3.125Y-2.75
X3.125Y-3.15
X3.125Y-3.45
X3.225Y-2.15
X3.225Y-2.75
X3.225Y-3.15
X3.225Y-3.45
X3.325Y-1.45
X3.325Y-1.75
X3.325Y-2.15
X3.325Y-2.75
X3.325Y-3.15
X3.325Y-3.45
X3.425Y-1.45
X3.425Y-1.75
X3.425Y-2.15
X3.425Y-2.75
X3.425Y-3.15
X3.425Y-3.45
X3.525Y-1.45
X3.525Y-1.75
X3.525Y-2.15
X3.525Y-2.75
X3.525Y-3.15
X3.525Y-3.45
X3.625Y-1.45
X3.625Y-1.75
X3.625Y-2.15
X3.625Y-2.75
X3.625Y-3.15
X3.625Y-3.45
X3.725Y-1.45
X3.725Y-1.75
X3.725Y-2.15
X3.725Y-2.75
X3.725Y-3.15
X3.725Y-3.45
X3.825Y-1.45
X3.825Y-1.75
X3.825Y-2.15
X3.825Y-2.75
X3.825Y-3.15
X3.825Y-3.45
X3.925Y-1.45
X3.925Y-1.75
X3.925Y-2.15
X3.925Y-2.75
X4.025Y-1.45
X4.025Y-1.75
X4.025Y-2.15
X4.025Y-2.75
X4.125Y-2.15
X4.125Y-2.75
X4.125Y-3.15
X4.125Y-3.45
X4.225Y-2.15
X4.225Y-2.75
X4.225Y-3.15
X4.225Y-3.45
X4.325Y-1.45
X4.325Y-1.75
X4.325Y-2.15
X4.325Y-2.75
X4.325Y-3.15
X4.325Y-3.45
X4.425Y-1.45
X4.425Y-1.75
X4.425Y-2.15
X4.425Y-2.75
X4.425Y-3.15
X4.425Y-3.45
X4.525Y-1.45
X4.525Y-1.75
X4.525Y-2.15
X4.525Y-2.75
X4.525Y-3.15
X4.525Y-3.45
X4.625Y-1.45
X4.625Y-1.75
X4.625Y-2.15
X4.625Y-2.75
X4.625Y-3.15
X4.625Y-3.45
X4.725Y-1.45
X4.725Y-1.75
X4.725Y-2.15
X4.725Y-2.75
X4.725Y-3.15
X4.725Y-3.45
X4.825Y-1.45
X4.825Y-1.75
X4.825Y-2.15
X4.825Y-2.75
X4.825Y-3.15
X4.825Y-3.45
X4.925Y-1.45
X4.925Y-1.75
X4.925Y-2.15
X4.925Y-2.75
X5.025Y-1.45
X5.025Y-1.75
X5.025Y-2.15
X5.025Y-2.75
T3
X1.425Y-1.7
X1.425Y-2.
X1.725Y-1.7
X1.725Y-2.
X2.075Y-3.05
X2.075Y-3.2
X2.375Y-3.05
X2.375Y-3.2
X2.625Y-2.15
X2.625Y-2.3
X2.625Y-3.05
X2.625Y-3.2
X2.625Y-3.45
X2.925Y-2.15
X2.925Y-2.3
X2.925Y-3.05
X2.925Y-3.2
X2.925Y-3.45
T4
X1.425Y-3.35
X1.425Y-3.45
X1.525Y-3.35
X1.525Y-3.45
X1.625Y-3.35
X1.625Y-3.45
X1.725Y-3.35
X1.725Y-3.45
X1.825Y-3.35
X1.825Y-3.45
X1.925Y-3.35
X1.925Y-3.45
X2.175Y-1.475
X2.275Y-1.475
X2.375Y-1.475
X2.475Y-1.475
X2.575Y-1.475
T0
M30
