G04 #@! TF.FileFunction,Legend,Top*
%FSLAX46Y46*%
G04 Gerber Fmt 4.6, Leading zero omitted, Abs format (unit mm)*
G04 Created by KiCad (PCBNEW 4.0.4-stable) date Friday, December 09, 2016 'AMt' 01:33:50 AM*
%MOMM*%
%LPD*%
G01*
G04 APERTURE LIST*
%ADD10C,0.100000*%
%ADD11C,0.300000*%
%ADD12C,0.150000*%
G04 APERTURE END LIST*
D10*
D11*
X34655000Y-34098571D02*
X34369286Y-34098571D01*
X34226429Y-34170000D01*
X34155000Y-34241429D01*
X34012143Y-34455714D01*
X33940714Y-34741429D01*
X33940714Y-35312857D01*
X34012143Y-35455714D01*
X34083571Y-35527143D01*
X34226429Y-35598571D01*
X34512143Y-35598571D01*
X34655000Y-35527143D01*
X34726429Y-35455714D01*
X34797857Y-35312857D01*
X34797857Y-34955714D01*
X34726429Y-34812857D01*
X34655000Y-34741429D01*
X34512143Y-34670000D01*
X34226429Y-34670000D01*
X34083571Y-34741429D01*
X34012143Y-34812857D01*
X33940714Y-34955714D01*
X35440714Y-35455714D02*
X35512142Y-35527143D01*
X35440714Y-35598571D01*
X35369285Y-35527143D01*
X35440714Y-35455714D01*
X35440714Y-35598571D01*
X36012143Y-34098571D02*
X36940714Y-34098571D01*
X36440714Y-34670000D01*
X36655000Y-34670000D01*
X36797857Y-34741429D01*
X36869286Y-34812857D01*
X36940714Y-34955714D01*
X36940714Y-35312857D01*
X36869286Y-35455714D01*
X36797857Y-35527143D01*
X36655000Y-35598571D01*
X36226428Y-35598571D01*
X36083571Y-35527143D01*
X36012143Y-35455714D01*
X37869285Y-34098571D02*
X38012142Y-34098571D01*
X38154999Y-34170000D01*
X38226428Y-34241429D01*
X38297857Y-34384286D01*
X38369285Y-34670000D01*
X38369285Y-35027143D01*
X38297857Y-35312857D01*
X38226428Y-35455714D01*
X38154999Y-35527143D01*
X38012142Y-35598571D01*
X37869285Y-35598571D01*
X37726428Y-35527143D01*
X37654999Y-35455714D01*
X37583571Y-35312857D01*
X37512142Y-35027143D01*
X37512142Y-34670000D01*
X37583571Y-34384286D01*
X37654999Y-34241429D01*
X37726428Y-34170000D01*
X37869285Y-34098571D01*
X39797856Y-35598571D02*
X38940713Y-35598571D01*
X39369285Y-35598571D02*
X39369285Y-34098571D01*
X39226428Y-34312857D01*
X39083570Y-34455714D01*
X38940713Y-34527143D01*
X41369284Y-34098571D02*
X42226427Y-34098571D01*
X41797856Y-35598571D02*
X41797856Y-34098571D01*
X43297855Y-35527143D02*
X43154998Y-35598571D01*
X42869284Y-35598571D01*
X42726427Y-35527143D01*
X42654998Y-35384286D01*
X42654998Y-34812857D01*
X42726427Y-34670000D01*
X42869284Y-34598571D01*
X43154998Y-34598571D01*
X43297855Y-34670000D01*
X43369284Y-34812857D01*
X43369284Y-34955714D01*
X42654998Y-35098571D01*
X44012141Y-35598571D02*
X44012141Y-34598571D01*
X44012141Y-34741429D02*
X44083569Y-34670000D01*
X44226427Y-34598571D01*
X44440712Y-34598571D01*
X44583569Y-34670000D01*
X44654998Y-34812857D01*
X44654998Y-35598571D01*
X44654998Y-34812857D02*
X44726427Y-34670000D01*
X44869284Y-34598571D01*
X45083569Y-34598571D01*
X45226427Y-34670000D01*
X45297855Y-34812857D01*
X45297855Y-35598571D01*
X46012141Y-34598571D02*
X46012141Y-36098571D01*
X46012141Y-34670000D02*
X46154998Y-34598571D01*
X46440712Y-34598571D01*
X46583569Y-34670000D01*
X46654998Y-34741429D01*
X46726427Y-34884286D01*
X46726427Y-35312857D01*
X46654998Y-35455714D01*
X46583569Y-35527143D01*
X46440712Y-35598571D01*
X46154998Y-35598571D01*
X46012141Y-35527143D01*
X48440712Y-35527143D02*
X48654998Y-35598571D01*
X49012141Y-35598571D01*
X49154998Y-35527143D01*
X49226427Y-35455714D01*
X49297855Y-35312857D01*
X49297855Y-35170000D01*
X49226427Y-35027143D01*
X49154998Y-34955714D01*
X49012141Y-34884286D01*
X48726427Y-34812857D01*
X48583569Y-34741429D01*
X48512141Y-34670000D01*
X48440712Y-34527143D01*
X48440712Y-34384286D01*
X48512141Y-34241429D01*
X48583569Y-34170000D01*
X48726427Y-34098571D01*
X49083569Y-34098571D01*
X49297855Y-34170000D01*
X50512140Y-35527143D02*
X50369283Y-35598571D01*
X50083569Y-35598571D01*
X49940712Y-35527143D01*
X49869283Y-35384286D01*
X49869283Y-34812857D01*
X49940712Y-34670000D01*
X50083569Y-34598571D01*
X50369283Y-34598571D01*
X50512140Y-34670000D01*
X50583569Y-34812857D01*
X50583569Y-34955714D01*
X49869283Y-35098571D01*
X51226426Y-34598571D02*
X51226426Y-35598571D01*
X51226426Y-34741429D02*
X51297854Y-34670000D01*
X51440712Y-34598571D01*
X51654997Y-34598571D01*
X51797854Y-34670000D01*
X51869283Y-34812857D01*
X51869283Y-35598571D01*
X52512140Y-35527143D02*
X52654997Y-35598571D01*
X52940712Y-35598571D01*
X53083569Y-35527143D01*
X53154997Y-35384286D01*
X53154997Y-35312857D01*
X53083569Y-35170000D01*
X52940712Y-35098571D01*
X52726426Y-35098571D01*
X52583569Y-35027143D01*
X52512140Y-34884286D01*
X52512140Y-34812857D01*
X52583569Y-34670000D01*
X52726426Y-34598571D01*
X52940712Y-34598571D01*
X53083569Y-34670000D01*
X54012141Y-35598571D02*
X53869283Y-35527143D01*
X53797855Y-35455714D01*
X53726426Y-35312857D01*
X53726426Y-34884286D01*
X53797855Y-34741429D01*
X53869283Y-34670000D01*
X54012141Y-34598571D01*
X54226426Y-34598571D01*
X54369283Y-34670000D01*
X54440712Y-34741429D01*
X54512141Y-34884286D01*
X54512141Y-35312857D01*
X54440712Y-35455714D01*
X54369283Y-35527143D01*
X54226426Y-35598571D01*
X54012141Y-35598571D01*
X55154998Y-35598571D02*
X55154998Y-34598571D01*
X55154998Y-34884286D02*
X55226426Y-34741429D01*
X55297855Y-34670000D01*
X55440712Y-34598571D01*
X55583569Y-34598571D01*
X34012143Y-38148571D02*
X34012143Y-36648571D01*
X34512143Y-37720000D01*
X35012143Y-36648571D01*
X35012143Y-38148571D01*
X35726429Y-38148571D02*
X35726429Y-37148571D01*
X35726429Y-36648571D02*
X35655000Y-36720000D01*
X35726429Y-36791429D01*
X35797857Y-36720000D01*
X35726429Y-36648571D01*
X35726429Y-36791429D01*
X36226429Y-37148571D02*
X36797858Y-37148571D01*
X36440715Y-36648571D02*
X36440715Y-37934286D01*
X36512143Y-38077143D01*
X36655001Y-38148571D01*
X36797858Y-38148571D01*
X37940715Y-38077143D02*
X37797858Y-38148571D01*
X37512144Y-38148571D01*
X37369286Y-38077143D01*
X37297858Y-38005714D01*
X37226429Y-37862857D01*
X37226429Y-37434286D01*
X37297858Y-37291429D01*
X37369286Y-37220000D01*
X37512144Y-37148571D01*
X37797858Y-37148571D01*
X37940715Y-37220000D01*
X38583572Y-38148571D02*
X38583572Y-36648571D01*
X39226429Y-38148571D02*
X39226429Y-37362857D01*
X39155000Y-37220000D01*
X39012143Y-37148571D01*
X38797858Y-37148571D01*
X38655000Y-37220000D01*
X38583572Y-37291429D01*
X40512143Y-38077143D02*
X40369286Y-38148571D01*
X40083572Y-38148571D01*
X39940715Y-38077143D01*
X39869286Y-37934286D01*
X39869286Y-37362857D01*
X39940715Y-37220000D01*
X40083572Y-37148571D01*
X40369286Y-37148571D01*
X40512143Y-37220000D01*
X40583572Y-37362857D01*
X40583572Y-37505714D01*
X39869286Y-37648571D01*
X41440715Y-38148571D02*
X41297857Y-38077143D01*
X41226429Y-37934286D01*
X41226429Y-36648571D01*
X42226429Y-38148571D02*
X42083571Y-38077143D01*
X42012143Y-37934286D01*
X42012143Y-36648571D01*
X44726428Y-36720000D02*
X44583571Y-36648571D01*
X44369285Y-36648571D01*
X44155000Y-36720000D01*
X44012142Y-36862857D01*
X43940714Y-37005714D01*
X43869285Y-37291429D01*
X43869285Y-37505714D01*
X43940714Y-37791429D01*
X44012142Y-37934286D01*
X44155000Y-38077143D01*
X44369285Y-38148571D01*
X44512142Y-38148571D01*
X44726428Y-38077143D01*
X44797857Y-38005714D01*
X44797857Y-37505714D01*
X44512142Y-37505714D01*
X46083571Y-37148571D02*
X46083571Y-38148571D01*
X45440714Y-37148571D02*
X45440714Y-37934286D01*
X45512142Y-38077143D01*
X45655000Y-38148571D01*
X45869285Y-38148571D01*
X46012142Y-38077143D01*
X46083571Y-38005714D01*
D12*
X52840000Y-62475000D02*
X52840000Y-63745000D01*
X60190000Y-62475000D02*
X60190000Y-63745000D01*
X60190000Y-74685000D02*
X60190000Y-73415000D01*
X52840000Y-74685000D02*
X52840000Y-73415000D01*
X52840000Y-62475000D02*
X60190000Y-62475000D01*
X52840000Y-74685000D02*
X60190000Y-74685000D01*
X52840000Y-63745000D02*
X51905000Y-63745000D01*
X36330000Y-54855000D02*
X36330000Y-56125000D01*
X43680000Y-54855000D02*
X43680000Y-56125000D01*
X43680000Y-74685000D02*
X43680000Y-73415000D01*
X36330000Y-74685000D02*
X36330000Y-73415000D01*
X36330000Y-54855000D02*
X43680000Y-54855000D01*
X36330000Y-74685000D02*
X43680000Y-74685000D01*
X36330000Y-56125000D02*
X35395000Y-56125000D01*
X66810000Y-62475000D02*
X66810000Y-63745000D01*
X74160000Y-62475000D02*
X74160000Y-63745000D01*
X74160000Y-74685000D02*
X74160000Y-73415000D01*
X66810000Y-74685000D02*
X66810000Y-73415000D01*
X66810000Y-62475000D02*
X74160000Y-62475000D01*
X66810000Y-74685000D02*
X74160000Y-74685000D01*
X66810000Y-63745000D02*
X65875000Y-63745000D01*
X124850000Y-80145000D02*
X123580000Y-80145000D01*
X124850000Y-87495000D02*
X123580000Y-87495000D01*
X102480000Y-87495000D02*
X103750000Y-87495000D01*
X102480000Y-80145000D02*
X103750000Y-80145000D01*
X124850000Y-80145000D02*
X124850000Y-87495000D01*
X102480000Y-80145000D02*
X102480000Y-87495000D01*
X123580000Y-80145000D02*
X123580000Y-79210000D01*
X47870000Y-50665000D02*
X49140000Y-50665000D01*
X47870000Y-43315000D02*
X49140000Y-43315000D01*
X67700000Y-43315000D02*
X66430000Y-43315000D01*
X67700000Y-50665000D02*
X66430000Y-50665000D01*
X47870000Y-50665000D02*
X47870000Y-43315000D01*
X67700000Y-50665000D02*
X67700000Y-43315000D01*
X49140000Y-50665000D02*
X49140000Y-51600000D01*
X42545000Y-52070000D02*
X37465000Y-52070000D01*
X37465000Y-52070000D02*
X37465000Y-49530000D01*
X37465000Y-49530000D02*
X42545000Y-49530000D01*
X42545000Y-49530000D02*
X42545000Y-52070000D01*
X73025000Y-59690000D02*
X67945000Y-59690000D01*
X67945000Y-59690000D02*
X67945000Y-57150000D01*
X67945000Y-57150000D02*
X73025000Y-57150000D01*
X73025000Y-57150000D02*
X73025000Y-59690000D01*
X73025000Y-55880000D02*
X67945000Y-55880000D01*
X67945000Y-55880000D02*
X67945000Y-53340000D01*
X67945000Y-53340000D02*
X73025000Y-53340000D01*
X73025000Y-53340000D02*
X73025000Y-55880000D01*
X127002214Y-67230000D02*
G75*
G03X127002214Y-67230000I-447214J0D01*
G01*
X119555000Y-57230000D02*
X118555000Y-62230000D01*
X118555000Y-62230000D02*
X117555000Y-67230000D01*
X117555000Y-67230000D02*
X124555000Y-67230000D01*
X124555000Y-67230000D02*
X125555000Y-62230000D01*
X126555000Y-57230000D02*
X125555000Y-62230000D01*
X125555000Y-62230000D02*
X118555000Y-62230000D01*
X119555000Y-57230000D02*
X126555000Y-57230000D01*
X128855000Y-71830000D02*
X116255000Y-71830000D01*
X116255000Y-56530000D02*
X116255000Y-67930000D01*
X128855000Y-56530000D02*
X128855000Y-67930000D01*
X116255000Y-52630000D02*
X128855000Y-52630000D01*
X48641000Y-86614000D02*
X48641000Y-86106000D01*
X49149000Y-86614000D02*
X49149000Y-86106000D01*
X46609000Y-86614000D02*
X46609000Y-86106000D01*
X46101000Y-86614000D02*
X46101000Y-86106000D01*
X44069000Y-86614000D02*
X44069000Y-86106000D01*
X43561000Y-86614000D02*
X43561000Y-86106000D01*
X35941000Y-86614000D02*
X35941000Y-86106000D01*
X36449000Y-86614000D02*
X36449000Y-86106000D01*
X41529000Y-86614000D02*
X41529000Y-86106000D01*
X41021000Y-86614000D02*
X41021000Y-86106000D01*
X38989000Y-86614000D02*
X38989000Y-86106000D01*
X38481000Y-86614000D02*
X38481000Y-86106000D01*
X49149000Y-89154000D02*
X49149000Y-88646000D01*
X48641000Y-89154000D02*
X48641000Y-88646000D01*
X46609000Y-89154000D02*
X46609000Y-88646000D01*
X46101000Y-89154000D02*
X46101000Y-88646000D01*
X35941000Y-89154000D02*
X35941000Y-88646000D01*
X36449000Y-89154000D02*
X36449000Y-88646000D01*
X38481000Y-89154000D02*
X38481000Y-88646000D01*
X38989000Y-89154000D02*
X38989000Y-88646000D01*
X44069000Y-89154000D02*
X44069000Y-88646000D01*
X43561000Y-89154000D02*
X43561000Y-88646000D01*
X41529000Y-89154000D02*
X41529000Y-88646000D01*
X41021000Y-89154000D02*
X41021000Y-88646000D01*
X34645000Y-85090000D02*
X34645000Y-83940000D01*
X34645000Y-83940000D02*
X36195000Y-83940000D01*
X36068000Y-91694000D02*
X36068000Y-97663000D01*
X36068000Y-97663000D02*
X36322000Y-97663000D01*
X36322000Y-97663000D02*
X36322000Y-91821000D01*
X36322000Y-91821000D02*
X36195000Y-91821000D01*
X36195000Y-91821000D02*
X36195000Y-97663000D01*
X45085000Y-89154000D02*
X45085000Y-91694000D01*
X45085000Y-89154000D02*
X47625000Y-89154000D01*
X47625000Y-89154000D02*
X47625000Y-91694000D01*
X46101000Y-91694000D02*
X46101000Y-97790000D01*
X46101000Y-97790000D02*
X46609000Y-97790000D01*
X46609000Y-97790000D02*
X46609000Y-91694000D01*
X47625000Y-91694000D02*
X45085000Y-91694000D01*
X50165000Y-91694000D02*
X47625000Y-91694000D01*
X49149000Y-97790000D02*
X49149000Y-91694000D01*
X48641000Y-97790000D02*
X49149000Y-97790000D01*
X48641000Y-91694000D02*
X48641000Y-97790000D01*
X47625000Y-89154000D02*
X50165000Y-89154000D01*
X47625000Y-89154000D02*
X47625000Y-91694000D01*
X50165000Y-89154000D02*
X50165000Y-91694000D01*
X40005000Y-89154000D02*
X40005000Y-91694000D01*
X40005000Y-89154000D02*
X42545000Y-89154000D01*
X42545000Y-89154000D02*
X42545000Y-91694000D01*
X41021000Y-91694000D02*
X41021000Y-97790000D01*
X41021000Y-97790000D02*
X41529000Y-97790000D01*
X41529000Y-97790000D02*
X41529000Y-91694000D01*
X42545000Y-91694000D02*
X40005000Y-91694000D01*
X45085000Y-91694000D02*
X42545000Y-91694000D01*
X44069000Y-97790000D02*
X44069000Y-91694000D01*
X43561000Y-97790000D02*
X44069000Y-97790000D01*
X43561000Y-91694000D02*
X43561000Y-97790000D01*
X45085000Y-89154000D02*
X45085000Y-91694000D01*
X42545000Y-89154000D02*
X45085000Y-89154000D01*
X42545000Y-89154000D02*
X42545000Y-91694000D01*
X37465000Y-89154000D02*
X37465000Y-91694000D01*
X37465000Y-89154000D02*
X40005000Y-89154000D01*
X40005000Y-89154000D02*
X40005000Y-91694000D01*
X38481000Y-91694000D02*
X38481000Y-97790000D01*
X38481000Y-97790000D02*
X38989000Y-97790000D01*
X38989000Y-97790000D02*
X38989000Y-91694000D01*
X40005000Y-91694000D02*
X37465000Y-91694000D01*
X37465000Y-91694000D02*
X34925000Y-91694000D01*
X36449000Y-97790000D02*
X36449000Y-91694000D01*
X35941000Y-97790000D02*
X36449000Y-97790000D01*
X35941000Y-91694000D02*
X35941000Y-97790000D01*
X37465000Y-89154000D02*
X37465000Y-91694000D01*
X34925000Y-89154000D02*
X37465000Y-89154000D01*
X34925000Y-89154000D02*
X34925000Y-91694000D01*
X37465000Y-41910000D02*
X42545000Y-41910000D01*
X42545000Y-41910000D02*
X42545000Y-44450000D01*
X42545000Y-44450000D02*
X37465000Y-44450000D01*
X37465000Y-44450000D02*
X37465000Y-41910000D01*
X53975000Y-80010000D02*
X59055000Y-80010000D01*
X59055000Y-80010000D02*
X59055000Y-82550000D01*
X59055000Y-82550000D02*
X53975000Y-82550000D01*
X53975000Y-82550000D02*
X53975000Y-80010000D01*
X67945000Y-76200000D02*
X73025000Y-76200000D01*
X73025000Y-76200000D02*
X73025000Y-78740000D01*
X73025000Y-78740000D02*
X67945000Y-78740000D01*
X67945000Y-78740000D02*
X67945000Y-76200000D01*
X59055000Y-78740000D02*
X53975000Y-78740000D01*
X53975000Y-78740000D02*
X53975000Y-76200000D01*
X53975000Y-76200000D02*
X59055000Y-76200000D01*
X59055000Y-76200000D02*
X59055000Y-78740000D01*
X73025000Y-82550000D02*
X67945000Y-82550000D01*
X67945000Y-82550000D02*
X67945000Y-80010000D01*
X67945000Y-80010000D02*
X73025000Y-80010000D01*
X73025000Y-80010000D02*
X73025000Y-82550000D01*
X114302214Y-67230000D02*
G75*
G03X114302214Y-67230000I-447214J0D01*
G01*
X106855000Y-57230000D02*
X105855000Y-62230000D01*
X105855000Y-62230000D02*
X104855000Y-67230000D01*
X104855000Y-67230000D02*
X111855000Y-67230000D01*
X111855000Y-67230000D02*
X112855000Y-62230000D01*
X113855000Y-57230000D02*
X112855000Y-62230000D01*
X112855000Y-62230000D02*
X105855000Y-62230000D01*
X106855000Y-57230000D02*
X113855000Y-57230000D01*
X116155000Y-71830000D02*
X103555000Y-71830000D01*
X103555000Y-56530000D02*
X103555000Y-67930000D01*
X116155000Y-56530000D02*
X116155000Y-67930000D01*
X103555000Y-52630000D02*
X116155000Y-52630000D01*
X101602214Y-67230000D02*
G75*
G03X101602214Y-67230000I-447214J0D01*
G01*
X94155000Y-57230000D02*
X93155000Y-62230000D01*
X93155000Y-62230000D02*
X92155000Y-67230000D01*
X92155000Y-67230000D02*
X99155000Y-67230000D01*
X99155000Y-67230000D02*
X100155000Y-62230000D01*
X101155000Y-57230000D02*
X100155000Y-62230000D01*
X100155000Y-62230000D02*
X93155000Y-62230000D01*
X94155000Y-57230000D02*
X101155000Y-57230000D01*
X103455000Y-71830000D02*
X90855000Y-71830000D01*
X90855000Y-56530000D02*
X90855000Y-67930000D01*
X103455000Y-56530000D02*
X103455000Y-67930000D01*
X90855000Y-52630000D02*
X103455000Y-52630000D01*
X88902214Y-67230000D02*
G75*
G03X88902214Y-67230000I-447214J0D01*
G01*
X81455000Y-57230000D02*
X80455000Y-62230000D01*
X80455000Y-62230000D02*
X79455000Y-67230000D01*
X79455000Y-67230000D02*
X86455000Y-67230000D01*
X86455000Y-67230000D02*
X87455000Y-62230000D01*
X88455000Y-57230000D02*
X87455000Y-62230000D01*
X87455000Y-62230000D02*
X80455000Y-62230000D01*
X81455000Y-57230000D02*
X88455000Y-57230000D01*
X90755000Y-71830000D02*
X78155000Y-71830000D01*
X78155000Y-56530000D02*
X78155000Y-67930000D01*
X90755000Y-56530000D02*
X90755000Y-67930000D01*
X78155000Y-52630000D02*
X90755000Y-52630000D01*
X50316000Y-54150000D02*
X63316000Y-54150000D01*
X63316000Y-54150000D02*
X63316000Y-60150000D01*
X63316000Y-60150000D02*
X50316000Y-60150000D01*
X50316000Y-60150000D02*
X50316000Y-54150000D01*
X128510000Y-48930000D02*
X128510000Y-50130000D01*
X126760000Y-50130000D02*
X126760000Y-48930000D01*
X126760000Y-75530000D02*
X126760000Y-74330000D01*
X128510000Y-74330000D02*
X128510000Y-75530000D01*
X125970000Y-48930000D02*
X125970000Y-50130000D01*
X124220000Y-50130000D02*
X124220000Y-48930000D01*
X124220000Y-75530000D02*
X124220000Y-74330000D01*
X125970000Y-74330000D02*
X125970000Y-75530000D01*
X120890000Y-48930000D02*
X120890000Y-50130000D01*
X119140000Y-50130000D02*
X119140000Y-48930000D01*
X119140000Y-75530000D02*
X119140000Y-74330000D01*
X120890000Y-74330000D02*
X120890000Y-75530000D01*
X118350000Y-48930000D02*
X118350000Y-50130000D01*
X116600000Y-50130000D02*
X116600000Y-48930000D01*
X116600000Y-75530000D02*
X116600000Y-74330000D01*
X118350000Y-74330000D02*
X118350000Y-75530000D01*
X115810000Y-48930000D02*
X115810000Y-50130000D01*
X114060000Y-50130000D02*
X114060000Y-48930000D01*
X114060000Y-75530000D02*
X114060000Y-74330000D01*
X115810000Y-74330000D02*
X115810000Y-75530000D01*
X113270000Y-48930000D02*
X113270000Y-50130000D01*
X111520000Y-50130000D02*
X111520000Y-48930000D01*
X111520000Y-75530000D02*
X111520000Y-74330000D01*
X113270000Y-74330000D02*
X113270000Y-75530000D01*
X108190000Y-48930000D02*
X108190000Y-50130000D01*
X106440000Y-50130000D02*
X106440000Y-48930000D01*
X106440000Y-75530000D02*
X106440000Y-74330000D01*
X108190000Y-74330000D02*
X108190000Y-75530000D01*
X105650000Y-48930000D02*
X105650000Y-50130000D01*
X103900000Y-50130000D02*
X103900000Y-48930000D01*
X103900000Y-75530000D02*
X103900000Y-74330000D01*
X105650000Y-74330000D02*
X105650000Y-75530000D01*
X103110000Y-48930000D02*
X103110000Y-50130000D01*
X101360000Y-50130000D02*
X101360000Y-48930000D01*
X101360000Y-75530000D02*
X101360000Y-74330000D01*
X103110000Y-74330000D02*
X103110000Y-75530000D01*
X100570000Y-48930000D02*
X100570000Y-50130000D01*
X98820000Y-50130000D02*
X98820000Y-48930000D01*
X98820000Y-75530000D02*
X98820000Y-74330000D01*
X100570000Y-74330000D02*
X100570000Y-75530000D01*
X95490000Y-48930000D02*
X95490000Y-50130000D01*
X93740000Y-50130000D02*
X93740000Y-48930000D01*
X93740000Y-75530000D02*
X93740000Y-74330000D01*
X95490000Y-74330000D02*
X95490000Y-75530000D01*
X92950000Y-48930000D02*
X92950000Y-50130000D01*
X91200000Y-50130000D02*
X91200000Y-48930000D01*
X91200000Y-75530000D02*
X91200000Y-74330000D01*
X92950000Y-74330000D02*
X92950000Y-75530000D01*
X90410000Y-48930000D02*
X90410000Y-50130000D01*
X88660000Y-50130000D02*
X88660000Y-48930000D01*
X88660000Y-75530000D02*
X88660000Y-74330000D01*
X90410000Y-74330000D02*
X90410000Y-75530000D01*
X87870000Y-48930000D02*
X87870000Y-50130000D01*
X86120000Y-50130000D02*
X86120000Y-48930000D01*
X86120000Y-75530000D02*
X86120000Y-74330000D01*
X87870000Y-74330000D02*
X87870000Y-75530000D01*
X82790000Y-48930000D02*
X82790000Y-50130000D01*
X81040000Y-50130000D02*
X81040000Y-48930000D01*
X81040000Y-75530000D02*
X81040000Y-74330000D01*
X82790000Y-74330000D02*
X82790000Y-75530000D01*
X80250000Y-48930000D02*
X80250000Y-50130000D01*
X78500000Y-50130000D02*
X78500000Y-48930000D01*
X78500000Y-75530000D02*
X78500000Y-74330000D01*
X80250000Y-74330000D02*
X80250000Y-75530000D01*
X107560000Y-44315000D02*
X108830000Y-44315000D01*
X107560000Y-36965000D02*
X108830000Y-36965000D01*
X129930000Y-36965000D02*
X128660000Y-36965000D01*
X129930000Y-44315000D02*
X128660000Y-44315000D01*
X107560000Y-44315000D02*
X107560000Y-36965000D01*
X129930000Y-44315000D02*
X129930000Y-36965000D01*
X108830000Y-44315000D02*
X108830000Y-45250000D01*
X82160000Y-44315000D02*
X83430000Y-44315000D01*
X82160000Y-36965000D02*
X83430000Y-36965000D01*
X104530000Y-36965000D02*
X103260000Y-36965000D01*
X104530000Y-44315000D02*
X103260000Y-44315000D01*
X82160000Y-44315000D02*
X82160000Y-36965000D01*
X104530000Y-44315000D02*
X104530000Y-36965000D01*
X83430000Y-44315000D02*
X83430000Y-45250000D01*
X99450000Y-80145000D02*
X98180000Y-80145000D01*
X99450000Y-87495000D02*
X98180000Y-87495000D01*
X77080000Y-87495000D02*
X78350000Y-87495000D01*
X77080000Y-80145000D02*
X78350000Y-80145000D01*
X99450000Y-80145000D02*
X99450000Y-87495000D01*
X77080000Y-80145000D02*
X77080000Y-87495000D01*
X98180000Y-80145000D02*
X98180000Y-79210000D01*
X65405000Y-35915000D02*
X66955000Y-35915000D01*
X66955000Y-35915000D02*
X66955000Y-39015000D01*
X66955000Y-39015000D02*
X65405000Y-39015000D01*
X64135000Y-38735000D02*
X53975000Y-38735000D01*
X53975000Y-38735000D02*
X53975000Y-36195000D01*
X53975000Y-36195000D02*
X64135000Y-36195000D01*
X64135000Y-38735000D02*
X64135000Y-36195000D01*
X73025000Y-88900000D02*
X67945000Y-88900000D01*
X67945000Y-88900000D02*
X67945000Y-86360000D01*
X67945000Y-86360000D02*
X73025000Y-86360000D01*
X73025000Y-86360000D02*
X73025000Y-88900000D01*
X74410000Y-61810000D02*
X75410000Y-61810000D01*
X75410000Y-60110000D02*
X74410000Y-60110000D01*
X61242000Y-62318000D02*
X62242000Y-62318000D01*
X62242000Y-60618000D02*
X61242000Y-60618000D01*
X44870000Y-55380000D02*
X44870000Y-56380000D01*
X46570000Y-56380000D02*
X46570000Y-55380000D01*
X99734000Y-87618000D02*
X99734000Y-88618000D01*
X101434000Y-88618000D02*
X101434000Y-87618000D01*
X125134000Y-87658000D02*
X125134000Y-88658000D01*
X126834000Y-88658000D02*
X126834000Y-87658000D01*
X107530000Y-37076000D02*
X107530000Y-36076000D01*
X105830000Y-36076000D02*
X105830000Y-37076000D01*
X82130000Y-37076000D02*
X82130000Y-36076000D01*
X80430000Y-36076000D02*
X80430000Y-37076000D01*
X55753095Y-61047381D02*
X55753095Y-61856905D01*
X55800714Y-61952143D01*
X55848333Y-61999762D01*
X55943571Y-62047381D01*
X56134048Y-62047381D01*
X56229286Y-61999762D01*
X56276905Y-61952143D01*
X56324524Y-61856905D01*
X56324524Y-61047381D01*
X56705476Y-61047381D02*
X57324524Y-61047381D01*
X56991190Y-61428333D01*
X57134048Y-61428333D01*
X57229286Y-61475952D01*
X57276905Y-61523571D01*
X57324524Y-61618810D01*
X57324524Y-61856905D01*
X57276905Y-61952143D01*
X57229286Y-61999762D01*
X57134048Y-62047381D01*
X56848333Y-62047381D01*
X56753095Y-61999762D01*
X56705476Y-61952143D01*
X39243095Y-53427381D02*
X39243095Y-54236905D01*
X39290714Y-54332143D01*
X39338333Y-54379762D01*
X39433571Y-54427381D01*
X39624048Y-54427381D01*
X39719286Y-54379762D01*
X39766905Y-54332143D01*
X39814524Y-54236905D01*
X39814524Y-53427381D01*
X40243095Y-53522619D02*
X40290714Y-53475000D01*
X40385952Y-53427381D01*
X40624048Y-53427381D01*
X40719286Y-53475000D01*
X40766905Y-53522619D01*
X40814524Y-53617857D01*
X40814524Y-53713095D01*
X40766905Y-53855952D01*
X40195476Y-54427381D01*
X40814524Y-54427381D01*
X69723095Y-61047381D02*
X69723095Y-61856905D01*
X69770714Y-61952143D01*
X69818333Y-61999762D01*
X69913571Y-62047381D01*
X70104048Y-62047381D01*
X70199286Y-61999762D01*
X70246905Y-61952143D01*
X70294524Y-61856905D01*
X70294524Y-61047381D01*
X71199286Y-61380714D02*
X71199286Y-62047381D01*
X70961190Y-60999762D02*
X70723095Y-61714048D01*
X71342143Y-61714048D01*
X125182381Y-84581905D02*
X125991905Y-84581905D01*
X126087143Y-84534286D01*
X126134762Y-84486667D01*
X126182381Y-84391429D01*
X126182381Y-84200952D01*
X126134762Y-84105714D01*
X126087143Y-84058095D01*
X125991905Y-84010476D01*
X125182381Y-84010476D01*
X125182381Y-83629524D02*
X125182381Y-82962857D01*
X126182381Y-83391429D01*
X46442381Y-47751905D02*
X47251905Y-47751905D01*
X47347143Y-47704286D01*
X47394762Y-47656667D01*
X47442381Y-47561429D01*
X47442381Y-47370952D01*
X47394762Y-47275714D01*
X47347143Y-47228095D01*
X47251905Y-47180476D01*
X46442381Y-47180476D01*
X47442381Y-46180476D02*
X47442381Y-46751905D01*
X47442381Y-46466191D02*
X46442381Y-46466191D01*
X46585238Y-46561429D01*
X46680476Y-46656667D01*
X46728095Y-46751905D01*
X39838334Y-48712381D02*
X39505000Y-48236190D01*
X39266905Y-48712381D02*
X39266905Y-47712381D01*
X39647858Y-47712381D01*
X39743096Y-47760000D01*
X39790715Y-47807619D01*
X39838334Y-47902857D01*
X39838334Y-48045714D01*
X39790715Y-48140952D01*
X39743096Y-48188571D01*
X39647858Y-48236190D01*
X39266905Y-48236190D01*
X40790715Y-48712381D02*
X40219286Y-48712381D01*
X40505000Y-48712381D02*
X40505000Y-47712381D01*
X40409762Y-47855238D01*
X40314524Y-47950476D01*
X40219286Y-47998095D01*
X70318334Y-56967381D02*
X69985000Y-56491190D01*
X69746905Y-56967381D02*
X69746905Y-55967381D01*
X70127858Y-55967381D01*
X70223096Y-56015000D01*
X70270715Y-56062619D01*
X70318334Y-56157857D01*
X70318334Y-56300714D01*
X70270715Y-56395952D01*
X70223096Y-56443571D01*
X70127858Y-56491190D01*
X69746905Y-56491190D01*
X70699286Y-56062619D02*
X70746905Y-56015000D01*
X70842143Y-55967381D01*
X71080239Y-55967381D01*
X71175477Y-56015000D01*
X71223096Y-56062619D01*
X71270715Y-56157857D01*
X71270715Y-56253095D01*
X71223096Y-56395952D01*
X70651667Y-56967381D01*
X71270715Y-56967381D01*
X70318334Y-53157381D02*
X69985000Y-52681190D01*
X69746905Y-53157381D02*
X69746905Y-52157381D01*
X70127858Y-52157381D01*
X70223096Y-52205000D01*
X70270715Y-52252619D01*
X70318334Y-52347857D01*
X70318334Y-52490714D01*
X70270715Y-52585952D01*
X70223096Y-52633571D01*
X70127858Y-52681190D01*
X69746905Y-52681190D01*
X70651667Y-52157381D02*
X71270715Y-52157381D01*
X70937381Y-52538333D01*
X71080239Y-52538333D01*
X71175477Y-52585952D01*
X71223096Y-52633571D01*
X71270715Y-52728810D01*
X71270715Y-52966905D01*
X71223096Y-53062143D01*
X71175477Y-53109762D01*
X71080239Y-53157381D01*
X70794524Y-53157381D01*
X70699286Y-53109762D01*
X70651667Y-53062143D01*
X120983571Y-61761667D02*
X121459762Y-61761667D01*
X120888333Y-62047381D02*
X121221666Y-61047381D01*
X121555000Y-62047381D01*
X122221667Y-61523571D02*
X121888333Y-61523571D01*
X121888333Y-62047381D02*
X121888333Y-61047381D01*
X122364524Y-61047381D01*
X123078810Y-61523571D02*
X122745476Y-61523571D01*
X122745476Y-62047381D02*
X122745476Y-61047381D01*
X123221667Y-61047381D01*
X124126429Y-62047381D02*
X123555000Y-62047381D01*
X123840714Y-62047381D02*
X123840714Y-61047381D01*
X123745476Y-61190238D01*
X123650238Y-61285476D01*
X123555000Y-61333095D01*
X34821905Y-83002381D02*
X34821905Y-82002381D01*
X35202858Y-82002381D01*
X35298096Y-82050000D01*
X35345715Y-82097619D01*
X35393334Y-82192857D01*
X35393334Y-82335714D01*
X35345715Y-82430952D01*
X35298096Y-82478571D01*
X35202858Y-82526190D01*
X34821905Y-82526190D01*
X36345715Y-83002381D02*
X35774286Y-83002381D01*
X36060000Y-83002381D02*
X36060000Y-82002381D01*
X35964762Y-82145238D01*
X35869524Y-82240476D01*
X35774286Y-82288095D01*
X39838334Y-41092381D02*
X39505000Y-40616190D01*
X39266905Y-41092381D02*
X39266905Y-40092381D01*
X39647858Y-40092381D01*
X39743096Y-40140000D01*
X39790715Y-40187619D01*
X39838334Y-40282857D01*
X39838334Y-40425714D01*
X39790715Y-40520952D01*
X39743096Y-40568571D01*
X39647858Y-40616190D01*
X39266905Y-40616190D01*
X40695477Y-40425714D02*
X40695477Y-41092381D01*
X40457381Y-40044762D02*
X40219286Y-40759048D01*
X40838334Y-40759048D01*
X56348334Y-83637381D02*
X56015000Y-83161190D01*
X55776905Y-83637381D02*
X55776905Y-82637381D01*
X56157858Y-82637381D01*
X56253096Y-82685000D01*
X56300715Y-82732619D01*
X56348334Y-82827857D01*
X56348334Y-82970714D01*
X56300715Y-83065952D01*
X56253096Y-83113571D01*
X56157858Y-83161190D01*
X55776905Y-83161190D01*
X57253096Y-82637381D02*
X56776905Y-82637381D01*
X56729286Y-83113571D01*
X56776905Y-83065952D01*
X56872143Y-83018333D01*
X57110239Y-83018333D01*
X57205477Y-83065952D01*
X57253096Y-83113571D01*
X57300715Y-83208810D01*
X57300715Y-83446905D01*
X57253096Y-83542143D01*
X57205477Y-83589762D01*
X57110239Y-83637381D01*
X56872143Y-83637381D01*
X56776905Y-83589762D01*
X56729286Y-83542143D01*
X70318334Y-79827381D02*
X69985000Y-79351190D01*
X69746905Y-79827381D02*
X69746905Y-78827381D01*
X70127858Y-78827381D01*
X70223096Y-78875000D01*
X70270715Y-78922619D01*
X70318334Y-79017857D01*
X70318334Y-79160714D01*
X70270715Y-79255952D01*
X70223096Y-79303571D01*
X70127858Y-79351190D01*
X69746905Y-79351190D01*
X71175477Y-78827381D02*
X70985000Y-78827381D01*
X70889762Y-78875000D01*
X70842143Y-78922619D01*
X70746905Y-79065476D01*
X70699286Y-79255952D01*
X70699286Y-79636905D01*
X70746905Y-79732143D01*
X70794524Y-79779762D01*
X70889762Y-79827381D01*
X71080239Y-79827381D01*
X71175477Y-79779762D01*
X71223096Y-79732143D01*
X71270715Y-79636905D01*
X71270715Y-79398810D01*
X71223096Y-79303571D01*
X71175477Y-79255952D01*
X71080239Y-79208333D01*
X70889762Y-79208333D01*
X70794524Y-79255952D01*
X70746905Y-79303571D01*
X70699286Y-79398810D01*
X55872143Y-79827381D02*
X55538809Y-79351190D01*
X55300714Y-79827381D02*
X55300714Y-78827381D01*
X55681667Y-78827381D01*
X55776905Y-78875000D01*
X55824524Y-78922619D01*
X55872143Y-79017857D01*
X55872143Y-79160714D01*
X55824524Y-79255952D01*
X55776905Y-79303571D01*
X55681667Y-79351190D01*
X55300714Y-79351190D01*
X56824524Y-79827381D02*
X56253095Y-79827381D01*
X56538809Y-79827381D02*
X56538809Y-78827381D01*
X56443571Y-78970238D01*
X56348333Y-79065476D01*
X56253095Y-79113095D01*
X57729286Y-78827381D02*
X57253095Y-78827381D01*
X57205476Y-79303571D01*
X57253095Y-79255952D01*
X57348333Y-79208333D01*
X57586429Y-79208333D01*
X57681667Y-79255952D01*
X57729286Y-79303571D01*
X57776905Y-79398810D01*
X57776905Y-79636905D01*
X57729286Y-79732143D01*
X57681667Y-79779762D01*
X57586429Y-79827381D01*
X57348333Y-79827381D01*
X57253095Y-79779762D01*
X57205476Y-79732143D01*
X69842143Y-83637381D02*
X69508809Y-83161190D01*
X69270714Y-83637381D02*
X69270714Y-82637381D01*
X69651667Y-82637381D01*
X69746905Y-82685000D01*
X69794524Y-82732619D01*
X69842143Y-82827857D01*
X69842143Y-82970714D01*
X69794524Y-83065952D01*
X69746905Y-83113571D01*
X69651667Y-83161190D01*
X69270714Y-83161190D01*
X70794524Y-83637381D02*
X70223095Y-83637381D01*
X70508809Y-83637381D02*
X70508809Y-82637381D01*
X70413571Y-82780238D01*
X70318333Y-82875476D01*
X70223095Y-82923095D01*
X71651667Y-82637381D02*
X71461190Y-82637381D01*
X71365952Y-82685000D01*
X71318333Y-82732619D01*
X71223095Y-82875476D01*
X71175476Y-83065952D01*
X71175476Y-83446905D01*
X71223095Y-83542143D01*
X71270714Y-83589762D01*
X71365952Y-83637381D01*
X71556429Y-83637381D01*
X71651667Y-83589762D01*
X71699286Y-83542143D01*
X71746905Y-83446905D01*
X71746905Y-83208810D01*
X71699286Y-83113571D01*
X71651667Y-83065952D01*
X71556429Y-83018333D01*
X71365952Y-83018333D01*
X71270714Y-83065952D01*
X71223095Y-83113571D01*
X71175476Y-83208810D01*
X108283571Y-61761667D02*
X108759762Y-61761667D01*
X108188333Y-62047381D02*
X108521666Y-61047381D01*
X108855000Y-62047381D01*
X109521667Y-61523571D02*
X109188333Y-61523571D01*
X109188333Y-62047381D02*
X109188333Y-61047381D01*
X109664524Y-61047381D01*
X110378810Y-61523571D02*
X110045476Y-61523571D01*
X110045476Y-62047381D02*
X110045476Y-61047381D01*
X110521667Y-61047381D01*
X110855000Y-61142619D02*
X110902619Y-61095000D01*
X110997857Y-61047381D01*
X111235953Y-61047381D01*
X111331191Y-61095000D01*
X111378810Y-61142619D01*
X111426429Y-61237857D01*
X111426429Y-61333095D01*
X111378810Y-61475952D01*
X110807381Y-62047381D01*
X111426429Y-62047381D01*
X95583571Y-61761667D02*
X96059762Y-61761667D01*
X95488333Y-62047381D02*
X95821666Y-61047381D01*
X96155000Y-62047381D01*
X96821667Y-61523571D02*
X96488333Y-61523571D01*
X96488333Y-62047381D02*
X96488333Y-61047381D01*
X96964524Y-61047381D01*
X97678810Y-61523571D02*
X97345476Y-61523571D01*
X97345476Y-62047381D02*
X97345476Y-61047381D01*
X97821667Y-61047381D01*
X98107381Y-61047381D02*
X98726429Y-61047381D01*
X98393095Y-61428333D01*
X98535953Y-61428333D01*
X98631191Y-61475952D01*
X98678810Y-61523571D01*
X98726429Y-61618810D01*
X98726429Y-61856905D01*
X98678810Y-61952143D01*
X98631191Y-61999762D01*
X98535953Y-62047381D01*
X98250238Y-62047381D01*
X98155000Y-61999762D01*
X98107381Y-61952143D01*
X82883571Y-61761667D02*
X83359762Y-61761667D01*
X82788333Y-62047381D02*
X83121666Y-61047381D01*
X83455000Y-62047381D01*
X84121667Y-61523571D02*
X83788333Y-61523571D01*
X83788333Y-62047381D02*
X83788333Y-61047381D01*
X84264524Y-61047381D01*
X84978810Y-61523571D02*
X84645476Y-61523571D01*
X84645476Y-62047381D02*
X84645476Y-61047381D01*
X85121667Y-61047381D01*
X85931191Y-61380714D02*
X85931191Y-62047381D01*
X85693095Y-60999762D02*
X85455000Y-61714048D01*
X86074048Y-61714048D01*
X56729334Y-61317143D02*
X56681715Y-61364762D01*
X56538858Y-61412381D01*
X56443620Y-61412381D01*
X56300762Y-61364762D01*
X56205524Y-61269524D01*
X56157905Y-61174286D01*
X56110286Y-60983810D01*
X56110286Y-60840952D01*
X56157905Y-60650476D01*
X56205524Y-60555238D01*
X56300762Y-60460000D01*
X56443620Y-60412381D01*
X56538858Y-60412381D01*
X56681715Y-60460000D01*
X56729334Y-60507619D01*
X57681715Y-61412381D02*
X57110286Y-61412381D01*
X57396000Y-61412381D02*
X57396000Y-60412381D01*
X57300762Y-60555238D01*
X57205524Y-60650476D01*
X57110286Y-60698095D01*
X106132381Y-41401905D02*
X106941905Y-41401905D01*
X107037143Y-41354286D01*
X107084762Y-41306667D01*
X107132381Y-41211429D01*
X107132381Y-41020952D01*
X107084762Y-40925714D01*
X107037143Y-40878095D01*
X106941905Y-40830476D01*
X106132381Y-40830476D01*
X106132381Y-39925714D02*
X106132381Y-40116191D01*
X106180000Y-40211429D01*
X106227619Y-40259048D01*
X106370476Y-40354286D01*
X106560952Y-40401905D01*
X106941905Y-40401905D01*
X107037143Y-40354286D01*
X107084762Y-40306667D01*
X107132381Y-40211429D01*
X107132381Y-40020952D01*
X107084762Y-39925714D01*
X107037143Y-39878095D01*
X106941905Y-39830476D01*
X106703810Y-39830476D01*
X106608571Y-39878095D01*
X106560952Y-39925714D01*
X106513333Y-40020952D01*
X106513333Y-40211429D01*
X106560952Y-40306667D01*
X106608571Y-40354286D01*
X106703810Y-40401905D01*
X80732381Y-41401905D02*
X81541905Y-41401905D01*
X81637143Y-41354286D01*
X81684762Y-41306667D01*
X81732381Y-41211429D01*
X81732381Y-41020952D01*
X81684762Y-40925714D01*
X81637143Y-40878095D01*
X81541905Y-40830476D01*
X80732381Y-40830476D01*
X81160952Y-40211429D02*
X81113333Y-40306667D01*
X81065714Y-40354286D01*
X80970476Y-40401905D01*
X80922857Y-40401905D01*
X80827619Y-40354286D01*
X80780000Y-40306667D01*
X80732381Y-40211429D01*
X80732381Y-40020952D01*
X80780000Y-39925714D01*
X80827619Y-39878095D01*
X80922857Y-39830476D01*
X80970476Y-39830476D01*
X81065714Y-39878095D01*
X81113333Y-39925714D01*
X81160952Y-40020952D01*
X81160952Y-40211429D01*
X81208571Y-40306667D01*
X81256190Y-40354286D01*
X81351429Y-40401905D01*
X81541905Y-40401905D01*
X81637143Y-40354286D01*
X81684762Y-40306667D01*
X81732381Y-40211429D01*
X81732381Y-40020952D01*
X81684762Y-39925714D01*
X81637143Y-39878095D01*
X81541905Y-39830476D01*
X81351429Y-39830476D01*
X81256190Y-39878095D01*
X81208571Y-39925714D01*
X81160952Y-40020952D01*
X99147381Y-84581905D02*
X99956905Y-84581905D01*
X100052143Y-84534286D01*
X100099762Y-84486667D01*
X100147381Y-84391429D01*
X100147381Y-84200952D01*
X100099762Y-84105714D01*
X100052143Y-84058095D01*
X99956905Y-84010476D01*
X99147381Y-84010476D01*
X100147381Y-83486667D02*
X100147381Y-83296191D01*
X100099762Y-83200952D01*
X100052143Y-83153333D01*
X99909286Y-83058095D01*
X99718810Y-83010476D01*
X99337857Y-83010476D01*
X99242619Y-83058095D01*
X99195000Y-83105714D01*
X99147381Y-83200952D01*
X99147381Y-83391429D01*
X99195000Y-83486667D01*
X99242619Y-83534286D01*
X99337857Y-83581905D01*
X99575952Y-83581905D01*
X99671190Y-83534286D01*
X99718810Y-83486667D01*
X99766429Y-83391429D01*
X99766429Y-83200952D01*
X99718810Y-83105714D01*
X99671190Y-83058095D01*
X99575952Y-83010476D01*
X70957381Y-38203095D02*
X69957381Y-38203095D01*
X69957381Y-37822142D01*
X70005000Y-37726904D01*
X70052619Y-37679285D01*
X70147857Y-37631666D01*
X70290714Y-37631666D01*
X70385952Y-37679285D01*
X70433571Y-37726904D01*
X70481190Y-37822142D01*
X70481190Y-38203095D01*
X70052619Y-37250714D02*
X70005000Y-37203095D01*
X69957381Y-37107857D01*
X69957381Y-36869761D01*
X70005000Y-36774523D01*
X70052619Y-36726904D01*
X70147857Y-36679285D01*
X70243095Y-36679285D01*
X70385952Y-36726904D01*
X70957381Y-37298333D01*
X70957381Y-36679285D01*
X69842143Y-86177381D02*
X69508809Y-85701190D01*
X69270714Y-86177381D02*
X69270714Y-85177381D01*
X69651667Y-85177381D01*
X69746905Y-85225000D01*
X69794524Y-85272619D01*
X69842143Y-85367857D01*
X69842143Y-85510714D01*
X69794524Y-85605952D01*
X69746905Y-85653571D01*
X69651667Y-85701190D01*
X69270714Y-85701190D01*
X70699286Y-85510714D02*
X70699286Y-86177381D01*
X70461190Y-85129762D02*
X70223095Y-85844048D01*
X70842143Y-85844048D01*
X71746905Y-86177381D02*
X71175476Y-86177381D01*
X71461190Y-86177381D02*
X71461190Y-85177381D01*
X71365952Y-85320238D01*
X71270714Y-85415476D01*
X71175476Y-85463095D01*
X74743334Y-63417143D02*
X74695715Y-63464762D01*
X74552858Y-63512381D01*
X74457620Y-63512381D01*
X74314762Y-63464762D01*
X74219524Y-63369524D01*
X74171905Y-63274286D01*
X74124286Y-63083810D01*
X74124286Y-62940952D01*
X74171905Y-62750476D01*
X74219524Y-62655238D01*
X74314762Y-62560000D01*
X74457620Y-62512381D01*
X74552858Y-62512381D01*
X74695715Y-62560000D01*
X74743334Y-62607619D01*
X75124286Y-62607619D02*
X75171905Y-62560000D01*
X75267143Y-62512381D01*
X75505239Y-62512381D01*
X75600477Y-62560000D01*
X75648096Y-62607619D01*
X75695715Y-62702857D01*
X75695715Y-62798095D01*
X75648096Y-62940952D01*
X75076667Y-63512381D01*
X75695715Y-63512381D01*
X61575334Y-63925143D02*
X61527715Y-63972762D01*
X61384858Y-64020381D01*
X61289620Y-64020381D01*
X61146762Y-63972762D01*
X61051524Y-63877524D01*
X61003905Y-63782286D01*
X60956286Y-63591810D01*
X60956286Y-63448952D01*
X61003905Y-63258476D01*
X61051524Y-63163238D01*
X61146762Y-63068000D01*
X61289620Y-63020381D01*
X61384858Y-63020381D01*
X61527715Y-63068000D01*
X61575334Y-63115619D01*
X61908667Y-63020381D02*
X62527715Y-63020381D01*
X62194381Y-63401333D01*
X62337239Y-63401333D01*
X62432477Y-63448952D01*
X62480096Y-63496571D01*
X62527715Y-63591810D01*
X62527715Y-63829905D01*
X62480096Y-63925143D01*
X62432477Y-63972762D01*
X62337239Y-64020381D01*
X62051524Y-64020381D01*
X61956286Y-63972762D01*
X61908667Y-63925143D01*
X43977143Y-56046666D02*
X44024762Y-56094285D01*
X44072381Y-56237142D01*
X44072381Y-56332380D01*
X44024762Y-56475238D01*
X43929524Y-56570476D01*
X43834286Y-56618095D01*
X43643810Y-56665714D01*
X43500952Y-56665714D01*
X43310476Y-56618095D01*
X43215238Y-56570476D01*
X43120000Y-56475238D01*
X43072381Y-56332380D01*
X43072381Y-56237142D01*
X43120000Y-56094285D01*
X43167619Y-56046666D01*
X43405714Y-55189523D02*
X44072381Y-55189523D01*
X43024762Y-55427619D02*
X43739048Y-55665714D01*
X43739048Y-55046666D01*
X98841143Y-88284666D02*
X98888762Y-88332285D01*
X98936381Y-88475142D01*
X98936381Y-88570380D01*
X98888762Y-88713238D01*
X98793524Y-88808476D01*
X98698286Y-88856095D01*
X98507810Y-88903714D01*
X98364952Y-88903714D01*
X98174476Y-88856095D01*
X98079238Y-88808476D01*
X97984000Y-88713238D01*
X97936381Y-88570380D01*
X97936381Y-88475142D01*
X97984000Y-88332285D01*
X98031619Y-88284666D01*
X97936381Y-87379904D02*
X97936381Y-87856095D01*
X98412571Y-87903714D01*
X98364952Y-87856095D01*
X98317333Y-87760857D01*
X98317333Y-87522761D01*
X98364952Y-87427523D01*
X98412571Y-87379904D01*
X98507810Y-87332285D01*
X98745905Y-87332285D01*
X98841143Y-87379904D01*
X98888762Y-87427523D01*
X98936381Y-87522761D01*
X98936381Y-87760857D01*
X98888762Y-87856095D01*
X98841143Y-87903714D01*
X124241143Y-88324666D02*
X124288762Y-88372285D01*
X124336381Y-88515142D01*
X124336381Y-88610380D01*
X124288762Y-88753238D01*
X124193524Y-88848476D01*
X124098286Y-88896095D01*
X123907810Y-88943714D01*
X123764952Y-88943714D01*
X123574476Y-88896095D01*
X123479238Y-88848476D01*
X123384000Y-88753238D01*
X123336381Y-88610380D01*
X123336381Y-88515142D01*
X123384000Y-88372285D01*
X123431619Y-88324666D01*
X123336381Y-87467523D02*
X123336381Y-87658000D01*
X123384000Y-87753238D01*
X123431619Y-87800857D01*
X123574476Y-87896095D01*
X123764952Y-87943714D01*
X124145905Y-87943714D01*
X124241143Y-87896095D01*
X124288762Y-87848476D01*
X124336381Y-87753238D01*
X124336381Y-87562761D01*
X124288762Y-87467523D01*
X124241143Y-87419904D01*
X124145905Y-87372285D01*
X123907810Y-87372285D01*
X123812571Y-87419904D01*
X123764952Y-87467523D01*
X123717333Y-87562761D01*
X123717333Y-87753238D01*
X123764952Y-87848476D01*
X123812571Y-87896095D01*
X123907810Y-87943714D01*
X109137143Y-36742666D02*
X109184762Y-36790285D01*
X109232381Y-36933142D01*
X109232381Y-37028380D01*
X109184762Y-37171238D01*
X109089524Y-37266476D01*
X108994286Y-37314095D01*
X108803810Y-37361714D01*
X108660952Y-37361714D01*
X108470476Y-37314095D01*
X108375238Y-37266476D01*
X108280000Y-37171238D01*
X108232381Y-37028380D01*
X108232381Y-36933142D01*
X108280000Y-36790285D01*
X108327619Y-36742666D01*
X108232381Y-36409333D02*
X108232381Y-35742666D01*
X109232381Y-36171238D01*
X83737143Y-36742666D02*
X83784762Y-36790285D01*
X83832381Y-36933142D01*
X83832381Y-37028380D01*
X83784762Y-37171238D01*
X83689524Y-37266476D01*
X83594286Y-37314095D01*
X83403810Y-37361714D01*
X83260952Y-37361714D01*
X83070476Y-37314095D01*
X82975238Y-37266476D01*
X82880000Y-37171238D01*
X82832381Y-37028380D01*
X82832381Y-36933142D01*
X82880000Y-36790285D01*
X82927619Y-36742666D01*
X83260952Y-36171238D02*
X83213333Y-36266476D01*
X83165714Y-36314095D01*
X83070476Y-36361714D01*
X83022857Y-36361714D01*
X82927619Y-36314095D01*
X82880000Y-36266476D01*
X82832381Y-36171238D01*
X82832381Y-35980761D01*
X82880000Y-35885523D01*
X82927619Y-35837904D01*
X83022857Y-35790285D01*
X83070476Y-35790285D01*
X83165714Y-35837904D01*
X83213333Y-35885523D01*
X83260952Y-35980761D01*
X83260952Y-36171238D01*
X83308571Y-36266476D01*
X83356190Y-36314095D01*
X83451429Y-36361714D01*
X83641905Y-36361714D01*
X83737143Y-36314095D01*
X83784762Y-36266476D01*
X83832381Y-36171238D01*
X83832381Y-35980761D01*
X83784762Y-35885523D01*
X83737143Y-35837904D01*
X83641905Y-35790285D01*
X83451429Y-35790285D01*
X83356190Y-35837904D01*
X83308571Y-35885523D01*
X83260952Y-35980761D01*
M02*
