G04 #@! TF.FileFunction,Soldermask,Top*
%FSLAX46Y46*%
G04 Gerber Fmt 4.6, Leading zero omitted, Abs format (unit mm)*
G04 Created by KiCad (PCBNEW 4.0.4-stable) date Friday, December 09, 2016 'AMt' 01:33:51 AM*
%MOMM*%
%LPD*%
G01*
G04 APERTURE LIST*
%ADD10C,0.100000*%
%ADD11O,2.000000X2.000000*%
%ADD12C,2.398980*%
%ADD13O,1.924000X2.924000*%
%ADD14R,2.127200X2.127200*%
%ADD15O,2.127200X2.127200*%
%ADD16R,1.800000X1.800000*%
%ADD17C,1.800000*%
%ADD18R,1.700000X1.900000*%
%ADD19R,2.127200X2.432000*%
%ADD20O,2.127200X2.432000*%
%ADD21R,1.900000X1.650000*%
%ADD22R,1.650000X1.900000*%
G04 APERTURE END LIST*
D10*
D11*
X52705000Y-64770000D03*
X52705000Y-67310000D03*
X52705000Y-69850000D03*
X52705000Y-72390000D03*
X60325000Y-72390000D03*
X60325000Y-69850000D03*
X60325000Y-67310000D03*
X60325000Y-64770000D03*
X36195000Y-57150000D03*
X36195000Y-59690000D03*
X36195000Y-62230000D03*
X36195000Y-64770000D03*
X36195000Y-67310000D03*
X36195000Y-69850000D03*
X36195000Y-72390000D03*
X43815000Y-72390000D03*
X43815000Y-69850000D03*
X43815000Y-67310000D03*
X43815000Y-64770000D03*
X43815000Y-62230000D03*
X43815000Y-59690000D03*
X43815000Y-57150000D03*
X66675000Y-64770000D03*
X66675000Y-67310000D03*
X66675000Y-69850000D03*
X66675000Y-72390000D03*
X74295000Y-72390000D03*
X74295000Y-69850000D03*
X74295000Y-67310000D03*
X74295000Y-64770000D03*
X122555000Y-80010000D03*
X120015000Y-80010000D03*
X117475000Y-80010000D03*
X114935000Y-80010000D03*
X112395000Y-80010000D03*
X109855000Y-80010000D03*
X107315000Y-80010000D03*
X104775000Y-80010000D03*
X104775000Y-87630000D03*
X107315000Y-87630000D03*
X109855000Y-87630000D03*
X112395000Y-87630000D03*
X114935000Y-87630000D03*
X117475000Y-87630000D03*
X120015000Y-87630000D03*
X122555000Y-87630000D03*
X50165000Y-50800000D03*
X52705000Y-50800000D03*
X55245000Y-50800000D03*
X57785000Y-50800000D03*
X60325000Y-50800000D03*
X62865000Y-50800000D03*
X65405000Y-50800000D03*
X65405000Y-43180000D03*
X62865000Y-43180000D03*
X60325000Y-43180000D03*
X57785000Y-43180000D03*
X55245000Y-43180000D03*
X52705000Y-43180000D03*
X50165000Y-43180000D03*
D12*
X43815000Y-50800000D03*
X36195000Y-50800000D03*
X74295000Y-58420000D03*
X66675000Y-58420000D03*
X74295000Y-54610000D03*
X66675000Y-54610000D03*
D13*
X117475000Y-69850000D03*
X120015000Y-69850000D03*
X122555000Y-69850000D03*
X125095000Y-69850000D03*
X127635000Y-69850000D03*
X127635000Y-54610000D03*
X125095000Y-54610000D03*
X122555000Y-54610000D03*
X120015000Y-54610000D03*
X117475000Y-54610000D03*
D14*
X36195000Y-85090000D03*
D15*
X36195000Y-87630000D03*
X38735000Y-85090000D03*
X38735000Y-87630000D03*
X41275000Y-85090000D03*
X41275000Y-87630000D03*
X43815000Y-85090000D03*
X43815000Y-87630000D03*
X46355000Y-85090000D03*
X46355000Y-87630000D03*
X48895000Y-85090000D03*
X48895000Y-87630000D03*
D12*
X36195000Y-43180000D03*
X43815000Y-43180000D03*
X52705000Y-81280000D03*
X60325000Y-81280000D03*
X66675000Y-77470000D03*
X74295000Y-77470000D03*
X60325000Y-77470000D03*
X52705000Y-77470000D03*
X74295000Y-81280000D03*
X66675000Y-81280000D03*
D13*
X104775000Y-69850000D03*
X107315000Y-69850000D03*
X109855000Y-69850000D03*
X112395000Y-69850000D03*
X114935000Y-69850000D03*
X114935000Y-54610000D03*
X112395000Y-54610000D03*
X109855000Y-54610000D03*
X107315000Y-54610000D03*
X104775000Y-54610000D03*
X92075000Y-69850000D03*
X94615000Y-69850000D03*
X97155000Y-69850000D03*
X99695000Y-69850000D03*
X102235000Y-69850000D03*
X102235000Y-54610000D03*
X99695000Y-54610000D03*
X97155000Y-54610000D03*
X94615000Y-54610000D03*
X92075000Y-54610000D03*
X79375000Y-69850000D03*
X81915000Y-69850000D03*
X84455000Y-69850000D03*
X86995000Y-69850000D03*
X89535000Y-69850000D03*
X89535000Y-54610000D03*
X86995000Y-54610000D03*
X84455000Y-54610000D03*
X81915000Y-54610000D03*
X79375000Y-54610000D03*
D16*
X51816000Y-57150000D03*
D17*
X61816000Y-57150000D03*
D18*
X127635000Y-50880000D03*
X127635000Y-48180000D03*
X127635000Y-73580000D03*
X127635000Y-76280000D03*
X125095000Y-50880000D03*
X125095000Y-48180000D03*
X125095000Y-73580000D03*
X125095000Y-76280000D03*
X120015000Y-50880000D03*
X120015000Y-48180000D03*
X120015000Y-73580000D03*
X120015000Y-76280000D03*
X117475000Y-50880000D03*
X117475000Y-48180000D03*
X117475000Y-73580000D03*
X117475000Y-76280000D03*
X114935000Y-50880000D03*
X114935000Y-48180000D03*
X114935000Y-73580000D03*
X114935000Y-76280000D03*
X112395000Y-50880000D03*
X112395000Y-48180000D03*
X112395000Y-73580000D03*
X112395000Y-76280000D03*
X107315000Y-50880000D03*
X107315000Y-48180000D03*
X107315000Y-73580000D03*
X107315000Y-76280000D03*
X104775000Y-50880000D03*
X104775000Y-48180000D03*
X104775000Y-73580000D03*
X104775000Y-76280000D03*
X102235000Y-50880000D03*
X102235000Y-48180000D03*
X102235000Y-73580000D03*
X102235000Y-76280000D03*
X99695000Y-50880000D03*
X99695000Y-48180000D03*
X99695000Y-73580000D03*
X99695000Y-76280000D03*
X94615000Y-50880000D03*
X94615000Y-48180000D03*
X94615000Y-73580000D03*
X94615000Y-76280000D03*
X92075000Y-50880000D03*
X92075000Y-48180000D03*
X92075000Y-73580000D03*
X92075000Y-76280000D03*
X89535000Y-50880000D03*
X89535000Y-48180000D03*
X89535000Y-73580000D03*
X89535000Y-76280000D03*
X86995000Y-50880000D03*
X86995000Y-48180000D03*
X86995000Y-73580000D03*
X86995000Y-76280000D03*
X81915000Y-50880000D03*
X81915000Y-48180000D03*
X81915000Y-73580000D03*
X81915000Y-76280000D03*
X79375000Y-50880000D03*
X79375000Y-48180000D03*
X79375000Y-73580000D03*
X79375000Y-76280000D03*
D11*
X109855000Y-44450000D03*
X112395000Y-44450000D03*
X114935000Y-44450000D03*
X117475000Y-44450000D03*
X120015000Y-44450000D03*
X122555000Y-44450000D03*
X125095000Y-44450000D03*
X127635000Y-44450000D03*
X127635000Y-36830000D03*
X125095000Y-36830000D03*
X122555000Y-36830000D03*
X120015000Y-36830000D03*
X117475000Y-36830000D03*
X114935000Y-36830000D03*
X112395000Y-36830000D03*
X109855000Y-36830000D03*
X84455000Y-44450000D03*
X86995000Y-44450000D03*
X89535000Y-44450000D03*
X92075000Y-44450000D03*
X94615000Y-44450000D03*
X97155000Y-44450000D03*
X99695000Y-44450000D03*
X102235000Y-44450000D03*
X102235000Y-36830000D03*
X99695000Y-36830000D03*
X97155000Y-36830000D03*
X94615000Y-36830000D03*
X92075000Y-36830000D03*
X89535000Y-36830000D03*
X86995000Y-36830000D03*
X84455000Y-36830000D03*
X97155000Y-80010000D03*
X94615000Y-80010000D03*
X92075000Y-80010000D03*
X89535000Y-80010000D03*
X86995000Y-80010000D03*
X84455000Y-80010000D03*
X81915000Y-80010000D03*
X79375000Y-80010000D03*
X79375000Y-87630000D03*
X81915000Y-87630000D03*
X84455000Y-87630000D03*
X86995000Y-87630000D03*
X89535000Y-87630000D03*
X92075000Y-87630000D03*
X94615000Y-87630000D03*
X97155000Y-87630000D03*
D19*
X65405000Y-37465000D03*
D20*
X62865000Y-37465000D03*
X60325000Y-37465000D03*
X57785000Y-37465000D03*
X55245000Y-37465000D03*
D12*
X74295000Y-87630000D03*
X66675000Y-87630000D03*
D21*
X76160000Y-60960000D03*
X73660000Y-60960000D03*
X62992000Y-61468000D03*
X60492000Y-61468000D03*
D22*
X45720000Y-57130000D03*
X45720000Y-54630000D03*
X100584000Y-89368000D03*
X100584000Y-86868000D03*
X125984000Y-89408000D03*
X125984000Y-86908000D03*
X106680000Y-35326000D03*
X106680000Y-37826000D03*
X81280000Y-35326000D03*
X81280000Y-37826000D03*
M02*
